<?xml version="1.0" encoding="UTF-8"?>
<svg version="1.1" xmlns="http://www.w3.org/2000/svg" width="356" height="356">
<path d="M0 0 C2.61782521 -0.00214828 5.23564948 -0.00602956 7.85346985 -0.01150513 C14.20018964 -0.02153535 20.5466993 -0.01037509 26.89339295 0.00819547 C34.29414544 0.02906453 41.6948537 0.02882046 49.09563008 0.02785031 C62.30321806 0.02685136 75.51070881 0.04511222 88.71826172 0.07421875 C101.51808441 0.10241187 114.31782161 0.11655911 127.11767578 0.11523438 C128.30121146 0.11511451 128.30121146 0.11511451 129.50865695 0.11499222 C130.29635353 0.11491151 131.08405012 0.1148308 131.89561629 0.11474764 C146.49639164 0.11336637 161.09713088 0.12515411 175.6978945 0.14305408 C180.8504952 0.14907324 186.00308923 0.15121156 191.15569305 0.15211868 C198.09313091 0.15362906 205.03047754 0.16635653 211.96788597 0.18645096 C214.51195159 0.1922852 217.05602752 0.19475489 219.60009956 0.19359589 C223.07551505 0.19261184 226.55068131 0.20395163 230.02606201 0.21841431 C231.02986208 0.2153171 232.03366214 0.2122199 233.06788039 0.20902884 C247.9784493 0.31132653 258.81262875 5.38628079 269.64160156 15.72021484 C279.69188495 26.76928416 282.63356069 39.66674851 282.53817749 54.25697327 C282.54285746 55.37835849 282.54753743 56.49974371 282.55235922 57.6551103 C282.56423897 61.37883967 282.55487936 65.10219622 282.54541016 68.82592773 C282.54947895 71.5093339 282.55471484 74.19271515 282.56134033 76.87611389 C282.57462814 83.38736182 282.57182228 89.89850556 282.56310241 96.40975744 C282.55630725 101.70448457 282.55541703 106.99918265 282.55867386 112.29391289 C282.55913356 113.04956004 282.55959326 113.80520719 282.56006689 114.58375273 C282.56102613 116.11916929 282.56199877 117.65458584 282.56298466 119.19000237 C282.57152389 133.5620586 282.56172721 147.93405727 282.54558356 162.30610406 C282.53217898 174.62068345 282.53451246 186.93517799 282.54833984 199.24975586 C282.56441694 213.57447833 282.57070291 227.89915047 282.56150305 242.22388071 C282.56054747 243.75311465 282.55960436 245.28234861 282.55867386 246.81158257 C282.55821103 247.56386109 282.55774821 248.31613962 282.55727135 249.09121447 C282.55468805 254.37612517 282.55903813 259.66100377 282.56611252 264.9459095 C282.57455131 271.39131561 282.57219751 277.83661219 282.55627029 284.28200585 C282.54841979 287.56648059 282.5468726 290.85073675 282.55521774 294.13521576 C282.56344813 297.70422071 282.55309294 301.27271726 282.53817749 304.84169006 C282.54486966 305.8675832 282.55156182 306.89347634 282.55845678 307.95045716 C282.48298894 317.29756374 280.66031005 325.82826536 275.71972656 333.86083984 C275.14351563 334.81732422 274.56730469 335.77380859 273.97363281 336.75927734 C270.73006998 341.6281093 267.55850617 345.19921155 262.78222656 348.61083984 C261.86699219 349.27341797 260.95175781 349.93599609 260.00878906 350.61865234 C252.94875961 355.24152095 247.98977961 355.92105252 239.68328857 355.88024902 C238.52140526 355.88634013 237.35952195 355.89243123 236.16243005 355.89870691 C232.94574034 355.91246 229.72937542 355.91279288 226.51267123 355.90733194 C223.04012986 355.90465909 219.56765353 355.91919848 216.09513855 355.931427 C209.29465671 355.95247375 202.49426014 355.95702224 195.69374958 355.95523912 C190.16431465 355.95393089 184.6349063 355.95773872 179.10547638 355.96516418 C177.5119865 355.96726342 175.91849661 355.96936102 174.32500672 355.971457 C173.53183983 355.97250053 172.73867293 355.97354406 171.92147067 355.97461921 C156.92236531 355.99351917 141.92330885 355.99247238 126.92419651 355.98564988 C113.21252084 355.98007691 99.50103217 356.00088974 85.78940019 356.03401035 C71.70241127 356.06777282 57.61551185 356.08291235 43.52848172 356.07829332 C35.62290989 356.07605091 27.71751079 356.08125799 19.81197357 356.10618591 C13.08015383 356.12723234 6.3486015 356.1307583 -0.38322935 356.11188632 C-3.81549061 356.1027481 -7.24725376 356.10152543 -10.67947578 356.12224197 C-14.40707087 356.14042827 -18.13334543 356.12768694 -21.86090088 356.1072998 C-22.93660001 356.11981765 -24.01229914 356.1323355 -25.12059522 356.14523268 C-36.13207696 356.01639511 -43.66246317 351.38806889 -51.51855469 343.93896484 C-62.61734329 332.22461318 -65.99634409 320.20775661 -65.98321533 304.44296265 C-65.98618645 303.32740954 -65.98915758 302.21185643 -65.99221873 301.06249869 C-66.00089373 297.32258267 -66.00241298 293.58269872 -66.00390625 289.84277344 C-66.00853529 287.16188405 -66.01353967 284.48099756 -66.01895142 281.80010986 C-66.03251353 274.51476947 -66.03855624 267.2294346 -66.04296207 259.94408369 C-66.04572828 255.39137754 -66.04996633 250.8386735 -66.05446625 246.28596878 C-66.0666565 233.67041597 -66.07695606 221.05486484 -66.08034134 208.43930626 C-66.08056091 207.63241025 -66.08078047 206.82551424 -66.08100669 205.99416683 C-66.08122497 205.18538519 -66.08144325 204.37660356 -66.08166814 203.54331338 C-66.0821116 201.90452663 -66.08255816 200.26573988 -66.08300781 198.62695312 C-66.08322924 197.81406541 -66.08345067 197.0011777 -66.08367881 196.16365702 C-66.0876246 182.99980526 -66.10507301 169.83600892 -66.12836733 156.67217855 C-66.15211333 143.14341999 -66.16454468 129.61468921 -66.16570926 116.08590949 C-66.16662423 108.49553953 -66.17233158 100.90524181 -66.19052887 93.31489182 C-66.20597382 86.84998614 -66.21102454 80.38517502 -66.20279077 73.92025439 C-66.19889963 70.62556106 -66.20138989 67.33109649 -66.21384811 64.03641891 C-66.22659539 60.45432372 -66.22067517 56.87271125 -66.21026611 53.2906189 C-66.21832252 52.26354588 -66.22637892 51.23647286 -66.23467946 50.17827642 C-66.13324394 35.17588881 -61.23295418 23.46075946 -51.02636719 12.52099609 C-36.562923 -0.95924437 -18.45969051 -0.08799004 0 0 Z " fill="#491A9B" transform="translate(68.8427734375,0.51416015625)"/>
<path d="M0 0 C0.56258137 0.84998157 1.12516273 1.69996313 1.70479202 2.57570171 C3.87003541 5.34829881 3.87003541 5.34829881 7.60004807 5.61523914 C9.07849957 5.63623056 10.55749666 5.62950414 12.03582764 5.60127258 C12.85187226 5.60554471 13.66791687 5.60981683 14.50869012 5.61421841 C17.24690928 5.62246345 19.98360135 5.59493937 22.72167969 5.56762695 C24.68283553 5.56621681 26.64399401 5.56700781 28.60514832 5.56983948 C33.93348434 5.57127633 39.26125964 5.54184265 44.58946514 5.50696969 C50.15615192 5.47575123 55.72285101 5.47277901 61.28961182 5.46684265 C71.83293629 5.45129097 82.3760021 5.41024443 92.91921258 5.3600952 C104.92145884 5.30424307 116.92371733 5.27672561 128.92606115 5.25161803 C153.61751761 5.19932986 178.30874432 5.11136169 203 5 C203.28101563 4.37480469 203.56203125 3.74960938 203.8515625 3.10546875 C205.64031568 -0.17391208 208.39822929 -1.3924318 211.8125 -2.6875 C220.50697176 -3.92956739 220.50697176 -3.92956739 224.0390625 -1.73046875 C229.83138936 3.1679805 229.83138936 3.1679805 230.203125 7.20703125 C230.31389133 13.36379335 229.7716152 16.79076134 225.6640625 21.546875 C222.64360485 24.18445773 218.90462488 24.61824422 215 25 C210.40438501 24.11622789 207.39744649 22.19759669 204 19 C204 18.34 204 17.68 204 17 C173.64 17 143.28 17 112 17 C112.33 88.61 112.66 160.22 113 234 C110.69 234 108.38 234 106 234 C103.68307922 234.76043848 103.68307922 234.76043848 101.75 235.9375 C99.44577508 237.22325751 97.53119618 238.15626794 95 239 C95 240.98 95 242.96 95 245 C93.02 245.99 93.02 245.99 91 247 C90.91795172 245.60517921 90.86033796 244.20891272 90.8125 242.8125 C90.77769531 242.03519531 90.74289063 241.25789062 90.70703125 240.45703125 C91 238 91 238 92.49339008 235.89652729 C94.5583216 231.92660089 94.42462033 228.60990207 94.39872742 224.1985321 C94.40537424 223.31221267 94.41202107 222.42589324 94.41886932 221.51271564 C94.43752037 218.54310968 94.43489259 215.57390589 94.43237305 212.60424805 C94.44138891 210.47545298 94.45171569 208.34666312 94.46325684 206.21788025 C94.49087352 200.4373553 94.50011773 194.65692873 94.50611091 188.87634635 C94.51548239 182.83580346 94.54168479 176.79533441 94.56611633 170.75483704 C94.60981873 159.31566072 94.63834275 147.87649871 94.66143972 136.43726426 C94.68847131 123.41437906 94.7323841 110.39156799 94.77772844 97.36873567 C94.87062835 70.57918649 94.94005605 43.78964459 95 17 C64.64 17 34.28 17 3 17 C2.34 18.32 1.68 19.64 1 21 C-2.04522039 24.28883802 -5.45846451 24.72394302 -9.75390625 25.0625 C-13.16988788 24.9674466 -15.22041129 23.93924794 -18 22 C-22.03598998 17.63676759 -23.41807673 14.14126489 -23.3515625 8.1328125 C-22.60695224 3.61551028 -19.67741069 0.28601487 -16.125 -2.4375 C-10.10919383 -4.02991928 -5.38099489 -2.94431796 0 0 Z " fill="#FAF7FC" transform="translate(73,72)"/>
<path d="M0 0 C12.54 0 25.08 0 38 0 C38 3.63 38 7.26 38 11 C29.75 11 21.5 11 13 11 C13 72.05 13 133.1 13 196 C8.71 196 4.42 196 0 196 C0 131.32 0 66.64 0 0 Z " fill="#FCF9FD" transform="translate(197,103)"/>
<path d="M0 0 C12.54 0 25.08 0 38 0 C38 64.68 38 129.36 38 196 C33.71 196 29.42 196 25 196 C25 134.95 25 73.9 25 11 C16.75 11 8.5 11 0 11 C0 7.37 0 3.74 0 0 Z " fill="#FBF9FD" transform="translate(118,103)"/>
<path d="M0 0 C60.72 0 121.44 0 184 0 C184 3.96 184 7.92 184 12 C123.28 12 62.56 12 0 12 C0 8.04 0 4.08 0 0 Z " fill="#FEFCFD" transform="translate(85,54)"/>
<path d="M0 0 C0.33 0.99 0.66 1.98 1 3 C1.66 3 2.32 3 3 3 C3.33 2.01 3.66 1.02 4 0 C4.99 0 5.98 0 7 0 C8.05397666 3.41718994 8.0706246 6.50037159 8 10.0625 C7.93279614 13.46049499 7.92032657 15.76097972 9 19 C8.0625 21.1875 8.0625 21.1875 7 23 C6.34 22.67 5.68 22.34 5 22 C5 22.66 5 23.32 5 24 C3.35 24 1.7 24 0 24 C0 23.01 0 22.02 0 21 C-58.41 21 -116.82 21 -177 21 C-177.33 21.66 -177.66 22.32 -178 23 C-178 22.01 -178 21.02 -178 20 C-178.433125 20.61875 -178.86625 21.2375 -179.3125 21.875 C-181 24 -181 24 -184 26 C-180.18338942 27.22560798 -176.38425281 27.15280224 -172.41973877 27.15821838 C-171.65269678 27.16315636 -170.88565479 27.16809434 -170.0953691 27.17318195 C-167.52354251 27.18854772 -164.95174087 27.19691508 -162.37988281 27.20532227 C-160.53694947 27.21490151 -158.69401832 27.22491162 -156.85108948 27.23532104 C-151.84530168 27.26237111 -146.83950445 27.28338015 -141.83368397 27.30332303 C-136.6032775 27.32518192 -131.37290011 27.35257109 -126.14251709 27.37937927 C-116.23682015 27.42930745 -106.33110707 27.47424583 -96.42537856 27.51740164 C-85.14857669 27.56677293 -73.87180398 27.62169147 -62.59503031 27.67708123 C-39.39671408 27.7909032 -16.19836988 27.89774179 7 28 C7.33 27.01 7.66 26.02 8 25 C9.33333333 24.66666667 10.66666667 24.33333333 12 24 C12.825 23.319375 13.65 22.63875 14.5 21.9375 C17 20 17 20 21 20 C21.33 19.34 21.66 18.68 22 18 C24.0625 16.875 24.0625 16.875 26 16 C26.33 16.99 26.66 17.98 27 19 C27.515625 18.505 28.03125 18.01 28.5625 17.5 C31.85639847 15.47298556 34.20122401 15.64826148 38 16 C40.86989658 18.86989658 40 20.99787403 40 25 C40.31985981 26.30058699 40.67529101 27.59285102 41.0625 28.875 C42.57510287 34.39975516 41.62303079 39.39459853 40.3125 44.875 C38.46833805 47.86078601 36.16045571 48.61730063 33 50 C32.01 50.99 32.01 50.99 31 52 C29.68 52 28.36 52 27 52 C25.2488427 53.4166747 25.2488427 53.4166747 24 55 C21.96166576 53.7260411 19.96147874 52.38938077 18 51 C18 50.34 18 49.68 18 49 C14.7 48.34 11.4 47.68 8 47 C8 46.34 8 45.68 8 45 C6.19747131 44.29805007 6.19747131 44.29805007 4 44 C3.4225 44.33 2.845 44.66 2.25 45 C-1.28502735 46.57112327 -4.22797628 45.62867062 -8 45 C-8.33 45.99 -8.66 46.98 -9 48 C-9 47.34 -9 46.68 -9 46 C-11.31 46 -13.62 46 -16 46 C-16.33 45.34 -16.66 44.68 -17 44 C-18.59146851 44.01571045 -18.59146851 44.01571045 -20.21508789 44.03173828 C-39.91325716 44.20927507 -59.40763272 44.34188382 -79 42 C-79 41.67 -79 41.34 -79 41 C-67.09114802 40.88416382 -55.18243001 40.7953136 -43.27312946 40.74093914 C-37.74316323 40.71484236 -32.21358234 40.67944218 -26.68383789 40.62280273 C-21.34756367 40.56848683 -16.01166016 40.53858008 -10.67513084 40.52561378 C-8.63891959 40.51637322 -6.60272868 40.49832843 -4.56667519 40.47134972 C-1.71498354 40.43506525 1.1351753 40.43005443 3.98706055 40.43237305 C4.82935211 40.41439667 5.67164368 40.39642029 6.53945923 40.37789917 C10.88199294 40.41611757 12.45532659 40.53930425 15.89143372 43.44563293 C16.58726059 44.28857407 17.28308746 45.1315152 18 46 C22.61015704 48.40985481 26.07500111 48.04040375 30.9453125 46.76953125 C33.7272253 45.72763615 35.26072893 44.39149772 37 42 C38.44526641 37.66420076 38.53564501 33.53126728 38 29 C35.94892412 25.60511578 34.29515379 24.19676919 31 22 C24.99661023 21.49971752 21.35847753 22.32076123 16 25 C15.34 25.33 14.68 25.66 14 26 C12.86649466 28.01669827 12.86649466 28.01669827 12 30 C-13.85994242 30.14008556 -39.71982809 30.24592972 -65.58007336 30.31087303 C-77.58712119 30.34182721 -89.59393344 30.38403789 -101.60083008 30.45263672 C-112.06455477 30.51239053 -122.52810888 30.55113777 -132.99199945 30.56453097 C-138.53400143 30.57236148 -144.07551533 30.59079781 -149.61736107 30.63438034 C-154.83194758 30.67505759 -160.04584425 30.68767881 -165.26057434 30.67864609 C-167.17584289 30.68029891 -169.09113412 30.69226283 -171.00626564 30.71523285 C-173.61966719 30.74504453 -176.23045716 30.73792819 -178.84391785 30.7215271 C-179.60365235 30.73900415 -180.36338685 30.7564812 -181.14614362 30.77448785 C-184.01858548 30.72568606 -186.30065326 30.61774481 -188.51210654 28.66433072 C-189.73571207 27.15707098 -190.87230487 25.58029938 -192 24 C-196.34480105 21.92205167 -200.21972806 21.56542982 -205 22 C-209.14798495 23.79117532 -211.2414131 25.83492576 -213 30 C-213.53647806 35.63301965 -213.16601282 39.13790888 -210 44 C-207.18488085 47.0236465 -204.24267014 47.61772773 -200.171875 48.015625 C-196.56448848 47.98967258 -193.44213571 47.04493406 -190 46 C-190 46.66 -190 47.32 -190 48 C-195.83444031 50.26894901 -200.71993493 51.73267426 -207 51 C-210 49.125 -210 49.125 -212 47 C-212 46.34 -212 45.68 -212 45 C-213.32 44.34 -214.64 43.68 -216 43 C-216.02699725 40.72923158 -216.04639453 38.45837179 -216.0625 36.1875 C-216.07990234 34.29064453 -216.07990234 34.29064453 -216.09765625 32.35546875 C-216 29 -216 29 -215 26 C-214.34 26 -213.68 26 -213 26 C-213 25.34 -213 24.68 -213 24 C-211.75 22.375 -211.75 22.375 -210 21 C-208.68 21 -207.36 21 -206 21 C-206 20.34 -206 19.68 -206 19 C-198.54508438 19.36580804 -191.95068039 20.20919651 -185 23 C-184.67 22.01 -184.34 21.02 -184 20 C-183.01 20 -182.02 20 -181 20 C-180.67 14.72 -180.34 9.44 -180 4 C-161.98806109 3.86902169 -143.97611837 3.73858368 -125.96417046 3.60884857 C-117.59964679 3.54858783 -109.23512454 3.48814109 -100.87060547 3.42724609 C-93.57435724 3.37412875 -86.27810651 3.321371 -78.98185265 3.26903296 C-75.12378317 3.24134572 -71.2657151 3.21348664 -67.40764999 3.18519592 C-63.76500628 3.15849058 -60.12235937 3.13227153 -56.47970963 3.10640144 C-54.52862559 3.09242515 -52.57754511 3.07795486 -50.62646484 3.0634613 C-49.42923798 3.05504715 -48.23201111 3.046633 -46.99850464 3.03796387 C-45.85066372 3.02941879 -44.7028228 3.02087372 -43.52019882 3.0120697 C-41.03437947 3.00354658 -38.54848136 3.01089622 -36.06271744 3.02955627 C-34.16178141 3.04302345 -34.16178141 3.04302345 -32.22244263 3.0567627 C-30.5036449 3.07540752 -30.5036449 3.07540752 -28.75012398 3.09442902 C-26.03774738 3.1923141 -26.03774738 3.1923141 -24 2 C-22.18658158 1.91528636 -20.37005839 1.89278917 -18.5546875 1.90234375 C-17.47832031 1.90556641 -16.40195313 1.90878906 -15.29296875 1.91210938 C-14.16503906 1.92048828 -13.03710938 1.92886719 -11.875 1.9375 C-10.73933594 1.94201172 -9.60367188 1.94652344 -8.43359375 1.95117188 C-5.62234362 1.96298385 -2.8111977 1.97945493 0 2 C0 1.34 0 0.68 0 0 Z M-179 6 C-179 9.96 -179 13.92 -179 18 C-118.28 18 -57.56 18 5 18 C5 14.04 5 10.08 5 6 C-55.72 6 -116.44 6 -179 6 Z " fill="#462379" transform="translate(264,48)"/>
<path d="M0 0 C33.86102061 -0.04579396 67.7220335 -0.0810276 101.5830782 -0.10213066 C105.58215961 -0.10463202 109.58124095 -0.10722067 113.58032227 -0.10986328 C114.77452229 -0.11065021 114.77452229 -0.11065021 115.99284757 -0.11145304 C128.87779746 -0.12015179 141.76272948 -0.13591885 154.64766877 -0.15430559 C167.87224624 -0.17301937 181.09681435 -0.18411985 194.32140452 -0.18817699 C202.47936988 -0.19091898 210.63728471 -0.19957434 218.79523451 -0.21583293 C225.05444774 -0.22767072 231.31362257 -0.2289076 237.57284546 -0.22621536 C240.13787204 -0.22676543 242.70290055 -0.2307416 245.26791573 -0.23841095 C248.7724662 -0.24837522 252.27680125 -0.24596328 255.78135681 -0.24050903 C256.79402443 -0.24633472 257.80669206 -0.2521604 258.85004658 -0.25816262 C273.79061501 -0.19540348 284.63477432 4.88075607 295.484375 15.234375 C305.55909947 26.31031432 308.4846842 39.22223527 308.36076355 53.84515381 C308.36332682 54.97430025 308.3658901 56.1034467 308.36853105 57.2668097 C308.37343687 61.01623877 308.35702874 64.76525703 308.34057617 68.51464844 C308.33972921 71.21590067 308.34007458 73.91712843 308.34190369 76.61837769 C308.34347027 82.41644217 308.33412583 88.2144047 308.31719017 94.01244354 C308.2927207 102.39522787 308.28498681 110.77796334 308.2812262 119.16077951 C308.27467412 132.76411526 308.25474687 146.36739678 308.22631836 159.97070312 C308.19874548 173.17838267 308.17752774 186.38604745 308.16479492 199.59375 C308.16400675 200.40903411 308.16321858 201.22431821 308.16240653 202.0643079 C308.15849117 206.15469572 308.15470011 210.24508364 308.15097082 214.33547163 C308.11991368 248.22368707 308.06711195 282.11183686 308 316 C307.67 316 307.34 316 307 316 C306.505 224.92 306.505 224.92 306 132 C305.67 132 305.34 132 305 132 C305.00222061 131.1775882 305.00444122 130.35517639 305.00672913 129.50784302 C305.02674338 121.76777424 305.04197994 114.02771796 305.05181217 106.28763008 C305.05703689 102.30811588 305.0641271 98.32862301 305.07543945 94.34912109 C305.08628291 90.51066757 305.09227994 86.6722346 305.09487724 82.83376694 C305.09672885 81.36730501 305.10034444 79.90084423 305.10573006 78.43439102 C305.11295983 76.38478388 305.11399012 74.33526232 305.11352539 72.28564453 C305.115746 71.11760284 305.11796661 69.94956116 305.12025452 68.74612427 C305.188576 66.03743917 305.188576 66.03743917 304 64 C303.34 64.33 302.68 64.66 302 65 C302.33 61.7 302.66 58.4 303 55 C303.33 55.66 303.66 56.32 304 57 C304.66 57 305.32 57 306 57 C305.67 52.71 305.34 48.42 305 44 C304.67 44.99 304.34 45.98 304 47 C303.34 47 302.68 47 302 47 C300.875 40.375 300.875 40.375 302 37 C300.515 37.495 300.515 37.495 299 38 C298.61936779 35.6739143 298.28730055 33.33944736 298 31 C298.33 30.67 298.66 30.34 299 30 C298.34 27.69 297.68 25.38 297 23 C295.68 22.67 294.36 22.34 293 22 C292.67 19.69 292.34 17.38 292 15 C290.35 15.33 288.7 15.66 287 16 C287 15.34 287 14.68 287 14 C285.515 14.495 285.515 14.495 284 15 C283.34 14.34 282.68 13.68 282 13 C282.66 13 283.32 13 284 13 C284 12.01 284 11.02 284 10 C283.401875 10.165 282.80375 10.33 282.1875 10.5 C280 11 280 11 277 11 C277 10.01 277 9.02 277 8 C276.67 7.01 276.34 6.02 276 5 C273.03 5 270.06 5 267 5 C267 4.34 267 3.68 267 3 C264.93757383 2.97282308 262.87504297 2.9535242 260.8125 2.9375 C259.66394531 2.92589844 258.51539063 2.91429687 257.33203125 2.90234375 C254.39009058 2.9885671 251.85241309 3.32597088 249 4 C244.95572015 4.83937884 242.41097802 5.10955602 238.38725281 4.03693581 C233.60478886 2.77352653 229.04115462 2.71083435 224.11645508 2.7215271 C222.66674977 2.7128385 222.66674977 2.7128385 221.18775749 2.70397437 C217.96498112 2.68703476 214.74234847 2.68410305 211.51953125 2.68115234 C209.20310619 2.67185001 206.88668448 2.66168089 204.57026672 2.65071106 C198.29202215 2.62343151 192.0138 2.60826763 185.73551178 2.59528303 C179.17049084 2.57964362 172.60551562 2.55285595 166.04052734 2.5272522 C155.02491766 2.48546427 144.00930188 2.45119321 132.99365234 2.421875 C121.65020957 2.3916655 110.30679184 2.35730424 98.96337891 2.31738281 C98.26353673 2.31492126 97.56369456 2.31245972 96.84264505 2.30992357 C93.33155314 2.29754851 89.82046152 2.28509206 86.30937004 2.27259517 C57.20628277 2.16911483 28.10316102 2.08002949 -1 2 C-0.67 1.34 -0.34 0.68 0 0 Z " fill="#C09BCC" transform="translate(43,1)"/>
<path d="M0 0 C0.66 0 1.32 0 2 0 C5.29209872 4.10949351 5.43150599 7.98391136 5.39872742 13.04219055 C5.40537424 13.84683894 5.41202107 14.65148733 5.41886932 15.480519 C5.43750531 18.17374646 5.43489364 20.8665299 5.43237305 23.55981445 C5.44138984 25.49156828 5.45171685 27.42331636 5.46325684 29.35505676 C5.49086261 34.59841017 5.50011624 39.84165513 5.50611091 45.0850718 C5.51548523 50.5650744 5.54168787 56.04499568 5.56611633 61.52494812 C5.6098109 71.90164393 5.63833973 82.27832398 5.66143972 92.65508384 C5.68847551 104.46880651 5.73238804 116.2824475 5.77772844 128.09611189 C5.8706171 152.39736367 5.94227854 176.69864106 6 201 C5.01 201.33 4.02 201.66 3 202 C3 136.99 3 71.98 3 5 C-9.54 5 -22.08 5 -35 5 C-35 8.63 -35 12.26 -35 16 C-26.75 16 -18.5 16 -10 16 C-10 77.38 -10 138.76 -10 202 C-6.04 202 -2.08 202 2 202 C2 202.33 2 202.66 2 203 C-5.10204082 205.32653061 -5.10204082 205.32653061 -9.4375 203.75 C-12 202 -12 202 -13 200 C-13.08325838 197.60645225 -13.10547391 195.24317908 -13.08229065 192.85006714 C-13.07906152 192.10515176 -13.07583239 191.36023638 -13.07250541 190.59274781 C-13.06039181 188.08375349 -13.04102705 185.57486657 -13.02172852 183.06591797 C-13.0115898 181.27254472 -13.00189569 179.47916891 -12.99261475 177.68579102 C-12.96609293 172.80586465 -12.9333218 167.92599756 -12.89946485 163.04611731 C-12.86516215 157.95053521 -12.83655656 152.8549213 -12.80735779 147.75930786 C-12.75116523 138.104954 -12.68981707 128.45064 -12.62663645 118.79632962 C-12.55497122 107.80739843 -12.48902331 96.81843528 -12.42356598 85.82946563 C-12.28875855 63.21960229 -12.14673764 40.60978883 -12 18 C-12.60996826 18.0407666 -13.21993652 18.0815332 -13.84838867 18.12353516 C-16.62747442 18.30255845 -19.40731797 18.46393613 -22.1875 18.625 C-23.62706055 18.72167969 -23.62706055 18.72167969 -25.09570312 18.8203125 C-26.02705078 18.871875 -26.95839844 18.9234375 -27.91796875 18.9765625 C-29.19837036 19.05511475 -29.19837036 19.05511475 -30.50463867 19.13525391 C-33.35265773 18.9808852 -35.42178077 18.18311391 -38 17 C-37.9131252 15.04082341 -37.80495488 13.08258129 -37.6875 11.125 C-37.62949219 10.03445312 -37.57148437 8.94390625 -37.51171875 7.8203125 C-37.34285156 6.88960938 -37.17398438 5.95890625 -37 5 C-33.34337096 2.56224731 -30.50584571 2.65313456 -26.26953125 2.5859375 C-25.14390022 2.55688828 -25.14390022 2.55688828 -23.99552917 2.5272522 C-21.60130133 2.46752541 -19.20702523 2.42109935 -16.8125 2.375 C-15.1881302 2.3368138 -13.56378052 2.29776169 -11.93945312 2.2578125 C-7.95979895 2.16182975 -3.98004999 2.07777364 0 2 C0 1.34 0 0.68 0 0 Z " fill="#3A1E7C" transform="translate(153,98)"/>
<path d="M0 0 C30.36 0 60.72 0 92 0 C92.06768278 28.07655091 92.12296188 56.15303591 92.15543652 84.22964764 C92.17091485 97.26567693 92.19202289 110.30165199 92.22631836 123.33764648 C92.25619106 134.69791109 92.27556797 146.05813642 92.28226548 157.41843921 C92.28618134 163.43535237 92.29540432 169.45215318 92.31719017 175.46903038 C92.33752161 181.1299788 92.34384053 186.79076834 92.33932304 192.4517498 C92.34014974 194.53146986 92.34613518 196.61119511 92.35761642 198.69088364 C92.37250809 201.52696278 92.36896565 204.36243947 92.36076355 207.1985321 C92.36950207 208.02441273 92.3782406 208.85029335 92.38724393 209.70120066 C92.35063363 214.37387132 91.80642064 217.09120451 89 221 C88.26816645 225.19010583 88.57805335 228.92169189 90.125 232.875 C93.60768145 236.82203897 97.89234901 238.24887485 103 239 C103 239.33 103 239.66 103 240 C94.42857143 240.14285714 94.42857143 240.14285714 91 239 C91 238.34 91 237.68 91 237 C89.35 237.33 87.7 237.66 86 238 C85.17361624 235.10765685 85 233.11257569 85 230 C84.814375 228.845 84.62875 227.69 84.4375 226.5 C84.05853662 223.46829292 83.98901097 221.80830287 85 219 C86.32 218.67 87.64 218.34 89 218 C89 147.05 89 76.1 89 3 C42.4160169 -2.70986007 42.4160169 -2.70986007 -1 5 C-0.67 3.35 -0.34 1.7 0 0 Z " fill="#3D217F" transform="translate(76,89)"/>
<path d="M0 0 C5.75 0.875 5.75 0.875 8 2 C10.04506404 2.15448656 12.09471735 2.24995343 14.14453125 2.31640625 C15.37880859 2.35830078 16.61308594 2.40019531 17.88476562 2.44335938 C19.82899414 2.50233398 19.82899414 2.50233398 21.8125 2.5625 C23.73932617 2.62727539 23.73932617 2.62727539 25.70507812 2.69335938 C32.21838785 2.94219583 32.21838785 2.94219583 38.7331543 2.91772461 C41 3 41 3 43.8125 4.5 C46.17579123 7.20090427 46.33176186 7.72771774 46.375 11.125 C46 15 46 15 45 17 C45.66 17.33 46.32 17.66 47 18 C46.25 19.9375 46.25 19.9375 45 22 C42.875 22.75 42.875 22.75 41 23 C40.34 22.01 39.68 21.02 39 20 C36.24053386 19.69669661 33.75504315 19.58165142 31 19.625 C30.26265625 19.61339844 29.5253125 19.60179688 28.765625 19.58984375 C26.37184431 19.56590998 26.37184431 19.56590998 23 20 C21.20446585 22.69330122 20.57303539 24.1460601 19.875 27.1875 C19.441875 29.0746875 19.441875 29.0746875 19 31 C18.67 31 18.34 31 18 31 C17.97313447 29.02090602 17.95366625 27.04171029 17.9375 25.0625 C17.92589844 23.96035156 17.91429687 22.85820313 17.90234375 21.72265625 C18 19 18 19 19 18 C20.70563778 17.84259395 22.41727244 17.74906608 24.12890625 17.68359375 C25.16337891 17.64169922 26.19785156 17.59980469 27.26367188 17.55664062 C28.35228516 17.51732422 29.44089844 17.47800781 30.5625 17.4375 C32.2012207 17.37272461 32.2012207 17.37272461 33.87304688 17.30664062 C36.58186768 17.20018042 39.29091651 17.09955193 42 17 C42 13.37 42 9.74 42 6 C29.46 6 16.92 6 4 6 C4 70.68 4 135.36 4 202 C3.01 201.67 2.02 201.34 1 201 C0.97666304 175.49658784 0.95901689 149.99317727 0.94818783 124.48975658 C0.94302657 112.64868501 0.9359871 100.80762006 0.92456055 88.96655273 C0.91460853 78.64861001 0.90814533 68.33067209 0.90591151 58.0127247 C0.90460528 52.54700744 0.90152498 47.08130391 0.89426994 41.61559105 C0.88750158 36.47505756 0.88538472 31.33454349 0.88689232 26.19400597 C0.88661636 24.3037353 0.88461607 22.413464 0.88079453 20.52319717 C0.87584457 17.94933446 0.87700658 15.37554583 0.87974548 12.80168152 C0.87683264 12.04779418 0.8739198 11.29390684 0.87091869 10.51717442 C0.87992576 7.40156237 1.00673054 4.97980839 2 2 C1.34 2 0.68 2 0 2 C0 1.34 0 0.68 0 0 Z M-1 6 C-0.34 6.66 0.32 7.32 1 8 C0.01 8.495 0.01 8.495 -1 9 C-1 8.01 -1 7.02 -1 6 Z " fill="#522F86" transform="translate(193,97)"/>
<path d="M0 0 C0.99 0.33 1.98 0.66 3 1 C3 1.66 3 2.32 3 3 C3.515625 2.505 4.03125 2.01 4.5625 1.5 C7.85639847 -0.52701444 10.20122401 -0.35173852 14 0 C16.86989658 2.86989658 16 4.99787403 16 9 C16.31985981 10.30058699 16.67529101 11.59285102 17.0625 12.875 C18.57510287 18.39975516 17.62303079 23.39459853 16.3125 28.875 C14.46833805 31.86078601 12.16045571 32.61730063 9 34 C8.01 34.99 8.01 34.99 7 36 C5.68 36 4.36 36 3 36 C1.2488427 37.4166747 1.2488427 37.4166747 0 39 C-2.03833424 37.7260411 -4.03852126 36.38938077 -6 35 C-6 34.34 -6 33.68 -6 33 C-9.3 32.34 -12.6 31.68 -16 31 C-16 30.34 -16 29.68 -16 29 C-17.80252869 28.29805007 -17.80252869 28.29805007 -20 28 C-20.5775 28.33 -21.155 28.66 -21.75 29 C-25.28502735 30.57112327 -28.22797628 29.62867062 -32 29 C-32.495 30.485 -32.495 30.485 -33 32 C-33 31.34 -33 30.68 -33 30 C-35.31 30 -37.62 30 -40 30 C-40.495 29.01 -40.495 29.01 -41 28 C-42.59146851 28.01571045 -42.59146851 28.01571045 -44.21508789 28.03173828 C-63.91325716 28.20927507 -83.40763272 28.34188382 -103 26 C-103 25.67 -103 25.34 -103 25 C-91.09114802 24.88416382 -79.18243001 24.7953136 -67.27312946 24.74093914 C-61.74316323 24.71484236 -56.21358234 24.67944218 -50.68383789 24.62280273 C-45.34756367 24.56848683 -40.01166016 24.53858008 -34.67513084 24.52561378 C-32.63891959 24.51637322 -30.60272868 24.49832843 -28.56667519 24.47134972 C-25.71498354 24.43506525 -22.8648247 24.43005443 -20.01293945 24.43237305 C-19.17064789 24.41439667 -18.32835632 24.39642029 -17.46054077 24.37789917 C-13.11800706 24.41611757 -11.54467341 24.53930425 -8.10856628 27.44563293 C-7.06482597 28.71004463 -7.06482597 28.71004463 -6 30 C-1.38984296 32.40985481 2.07500111 32.04040375 6.9453125 30.76953125 C9.7272253 29.72763615 11.26072893 28.39149772 13 26 C14.44526641 21.66420076 14.53564501 17.53126728 14 13 C11.94892412 9.60511578 10.29515379 8.19676919 7 6 C0.99661023 5.49971752 -2.64152247 6.32076123 -8 9 C-8.66 9.33 -9.32 9.66 -10 10 C-10.66 11.32 -11.32 12.64 -12 14 C-45 13.67 -78 13.34 -112 13 C-112 12.67 -112 12.34 -112 12 C-80.65 12 -49.3 12 -17 12 C-16.67 11.01 -16.34 10.02 -16 9 C-14.66666667 8.66666667 -13.33333333 8.33333333 -12 8 C-10.7625 6.9790625 -10.7625 6.9790625 -9.5 5.9375 C-7 4 -7 4 -3 4 C-2.67 3.34 -2.34 2.68 -2 2 C-1.34 1.34 -0.68 0.68 0 0 Z " fill="#5E317F" transform="translate(288,64)"/>
<path d="M0 0 C0.66 0 1.32 0 2 0 C2.1678628 21.06750897 2.32749298 42.13507389 2.48177338 63.20268631 C2.49991899 65.67645575 2.51816919 68.15022439 2.53643799 70.62399292 C2.80233483 106.70364917 3.04635344 142.78249031 3.03125 178.86328125 C3.03074142 180.15337286 3.03023285 181.44346447 3.02970886 182.77264977 C3.02341763 194.87940727 3.00579905 206.98610241 2.97194672 219.09281445 C2.96040556 223.43838003 2.95225187 227.78394842 2.94456482 232.12952232 C2.93768555 235.07675769 2.92512623 238.02393143 2.91223145 240.97114563 C2.90865369 242.70797674 2.90533995 244.44480842 2.90234375 246.18164062 C2.89717995 246.9698051 2.89201614 247.75796957 2.88669586 248.57001781 C2.88650933 250.38040587 2.93742684 252.19069363 3 254 C3.33 254.33 3.66 254.66 4 255 C4.07179964 256.51928038 4.08392007 258.04167482 4.0625 259.5625 C4.05347656 260.38878906 4.04445313 261.21507812 4.03515625 262.06640625 C4.02355469 262.70449219 4.01195312 263.34257812 4 264 C3.67 264 3.34 264 3 264 C2.67 267.3 2.34 270.6 2 274 C1.34 274 0.68 274 0 274 C0 183.58 0 93.16 0 0 Z " fill="#52478F" transform="translate(3,42)"/>
<path d="M0 0 C33.96315537 -0.02287324 67.92630882 -0.04050173 101.88947018 -0.05106533 C105.89628417 -0.05231608 109.90309814 -0.0536104 113.90991211 -0.05493164 C114.70761932 -0.05519395 115.50532653 -0.05545626 116.32720669 -0.05572652 C129.255002 -0.06008154 142.18279287 -0.06796817 155.11058555 -0.0771528 C168.36903525 -0.086494 181.62748263 -0.0920566 194.88593549 -0.09408849 C203.07154022 -0.09546275 211.25713243 -0.0998081 219.44273331 -0.10791647 C225.7123218 -0.11381172 231.98190067 -0.11445777 238.25149155 -0.11310768 C240.82871134 -0.11338384 243.40593159 -0.11538681 245.98314857 -0.11920547 C249.48974481 -0.12414836 252.99628654 -0.12299603 256.50288391 -0.12025452 C257.53302858 -0.12316736 258.56317325 -0.1260802 259.62453443 -0.12908131 C260.56057419 -0.12709026 261.49661396 -0.12509921 262.46101856 -0.12304783 C263.27096203 -0.12342755 264.08090549 -0.12380727 264.9153927 -0.1241985 C267 -0 267 -0 270 1 C270 1.66 270 2.32 270 3 C270.66 3.33 271.32 3.66 272 4 C270.35 4.33 268.7 4.66 267 5 C267 4.34 267 3.68 267 3 C264.93757383 2.97282308 262.87504297 2.9535242 260.8125 2.9375 C259.66394531 2.92589844 258.51539063 2.91429687 257.33203125 2.90234375 C254.39009058 2.9885671 251.85241309 3.32597088 249 4 C244.95572015 4.83937884 242.41097802 5.10955602 238.38725281 4.03693581 C233.60478886 2.77352653 229.04115462 2.71083435 224.11645508 2.7215271 C222.66674977 2.7128385 222.66674977 2.7128385 221.18775749 2.70397437 C217.96498112 2.68703476 214.74234847 2.68410305 211.51953125 2.68115234 C209.20310619 2.67185001 206.88668448 2.66168089 204.57026672 2.65071106 C198.29202215 2.62343151 192.0138 2.60826763 185.73551178 2.59528303 C179.17049084 2.57964362 172.60551562 2.55285595 166.04052734 2.5272522 C155.02491766 2.48546427 144.00930188 2.45119321 132.99365234 2.421875 C121.65020957 2.3916655 110.30679184 2.35730424 98.96337891 2.31738281 C98.26353673 2.31492126 97.56369456 2.31245972 96.84264505 2.30992357 C93.33155314 2.29754851 89.82046152 2.28509206 86.30937004 2.27259517 C57.20628277 2.16911483 28.10316102 2.08002949 -1 2 C-0.67 1.34 -0.34 0.68 0 0 Z " fill="#7E5F9E" transform="translate(43,1)"/>
<path d="M0 0 C0.33 0.66 0.66 1.32 1 2 C0.01 2.495 0.01 2.495 -1 3 C-0.89300781 3.81984375 -0.78601563 4.6396875 -0.67578125 5.484375 C-0.55589844 6.56203125 -0.43601562 7.6396875 -0.3125 8.75 C-0.18488281 9.81734375 -0.05726562 10.8846875 0.07421875 11.984375 C-0.00998186 15.40557866 -0.69074515 16.55420823 -3 19 C-2.01 19.33 -1.02 19.66 0 20 C0 19.34 0 18.68 0 18 C0.99 18.33 1.98 18.66 3 19 C-1.08604709 23.08604709 -4.00234425 24.80013396 -9.82421875 25.1328125 C-14.52190619 24.84605959 -17.20084906 22.86394696 -20.3125 19.5 C-23.16804266 15.26956643 -23.82462683 11.00273608 -23 6 C-21.32106391 2.54810739 -19.16649687 -0.10568573 -16.125 -2.4375 C-9.98798814 -4.06200314 -5.43025321 -2.82373167 0 0 Z " fill="#F6EFFA" transform="translate(73,72)"/>
<path d="M0 0 C5.79232686 4.89844925 5.79232686 4.89844925 6.1640625 8.9375 C6.27491398 15.0989945 5.72393885 18.51371937 1.62890625 23.28125 C-1.37083647 25.88758383 -5.18137518 26.25754736 -9.0390625 26.73046875 C-12.1015625 26.35546875 -12.1015625 26.35546875 -14.0390625 25.73046875 C-13.08 25.26640625 -13.08 25.26640625 -12.1015625 24.79296875 C-10.10295429 23.89595245 -10.10295429 23.89595245 -9.0390625 22.73046875 C-10.71872909 20.8828355 -11.75391163 19.82272344 -14.1640625 19.04296875 C-16.0390625 17.73046875 -16.0390625 17.73046875 -16.515625 15.828125 C-16.76471708 13.80336228 -16.9077209 11.76626352 -17.0390625 9.73046875 C-17.6990625 9.73046875 -18.3590625 9.73046875 -19.0390625 9.73046875 C-19.3690625 7.75046875 -19.6990625 5.77046875 -20.0390625 3.73046875 C-14.22706564 -0.36434722 -6.84885407 -4.26413328 0 0 Z " fill="#F9EEFB" transform="translate(297.0390625,70.26953125)"/>
<path d="M0 0 C2.31 0 4.62 0 7 0 C7.33 1.32 7.66 2.64 8 4 C7.01 3.67 6.02 3.34 5 3 C5 3.99 5 4.98 5 6 C4.01 6.495 4.01 6.495 3 7 C2.95333835 33.95489837 2.91803985 60.90979071 2.89637566 87.8647213 C2.88605052 100.37955447 2.87196662 112.89436259 2.84912109 125.40917969 C2.82922502 136.31345372 2.81629257 147.21770961 2.81182301 158.12200129 C2.8092092 163.89901831 2.80304008 169.67598343 2.78853989 175.45298386 C2.77501566 180.88490395 2.77076685 186.31675051 2.77378464 191.74868584 C2.77323215 193.74742087 2.76922412 195.74615824 2.76158905 197.74487877 C2.75170844 200.46366785 2.75400574 203.18217552 2.75949097 205.90097046 C2.75366528 206.70057107 2.7478396 207.50017169 2.74183738 208.32400262 C2.60410736 212.62578908 2.60410736 212.62578908 5 216 C7 218 7 218 7.046875 220.42578125 C6.94890625 221.37839844 6.8509375 222.33101562 6.75 223.3125 C6.61851562 224.72982422 6.61851562 224.72982422 6.484375 226.17578125 C5.6771655 230.88233341 4.82481221 233.33313055 1.0625 236.375 C-0.4534375 237.179375 -0.4534375 237.179375 -2 238 C-2.99 237.67 -3.98 237.34 -5 237 C-4.05125 236.401875 -3.1025 235.80375 -2.125 235.1875 C1.13964197 233.18437474 1.13964197 233.18437474 3 230 C3.35505425 227.3942313 3.35505425 227.3942313 3.3125 224.5625 C3.32925781 223.61503906 3.34601563 222.66757812 3.36328125 221.69140625 C3.25736943 218.96721515 3.25736943 218.96721515 1.49984264 217.3719902 C-0.72116944 213.8594758 -0.40341461 210.3829412 -0.36076355 206.35675049 C-0.36460846 205.0346783 -0.36460846 205.0346783 -0.36853105 203.68589759 C-0.37347993 200.72693685 -0.35695771 197.7684842 -0.34057617 194.80957031 C-0.33973014 192.69078076 -0.34020458 190.57199033 -0.34190369 188.45320129 C-0.34276599 182.6952806 -0.32510207 176.93754661 -0.30418181 171.17966938 C-0.28545425 165.16452793 -0.28366767 159.14938241 -0.28010559 153.13421631 C-0.2707736 141.74099147 -0.24614416 130.34785277 -0.21605712 118.9546659 C-0.18254904 105.98506175 -0.16603614 93.01545354 -0.15097082 80.0458169 C-0.11959565 53.36383013 -0.06681269 26.68191989 0 0 Z " fill="#3C1C77" transform="translate(185,90)"/>
<path d="M0 0 C0.33 0.99 0.66 1.98 1 3 C1.66 3 2.32 3 3 3 C3.33 2.01 3.66 1.02 4 0 C4.99 0 5.98 0 7 0 C8.05397666 3.41718994 8.0706246 6.50037159 8 10.0625 C7.93279614 13.46049499 7.92032657 15.76097972 9 19 C8.0625 21.1875 8.0625 21.1875 7 23 C6.34 22.67 5.68 22.34 5 22 C5 22.66 5 23.32 5 24 C3.35 24 1.7 24 0 24 C0 23.01 0 22.02 0 21 C-29.04 21 -58.08 21 -88 21 C-88 20.67 -88 20.34 -88 20 C-118.03 19.67 -148.06 19.34 -179 19 C-179 18.67 -179 18.34 -179 18 C-118.28 18 -57.56 18 5 18 C5 14.04 5 10.08 5 6 C-20.41 5.67 -45.82 5.34 -72 5 C-72 4.67 -72 4.34 -72 4 C-61.71310208 3.09030196 -51.56564902 2.90076563 -41.25 3 C-38.40104624 3.02660206 -35.55215557 3.04649947 -32.703125 3.0625 C-30.84155762 3.07990234 -30.84155762 3.07990234 -28.94238281 3.09765625 C-26.06639314 3.20707083 -26.06639314 3.20707083 -24 2 C-22.18658158 1.91528636 -20.37005839 1.89278917 -18.5546875 1.90234375 C-17.47832031 1.90556641 -16.40195313 1.90878906 -15.29296875 1.91210938 C-14.16503906 1.92048828 -13.03710938 1.92886719 -11.875 1.9375 C-10.73933594 1.94201172 -9.60367188 1.94652344 -8.43359375 1.95117188 C-5.62234362 1.96298385 -2.8111977 1.97945493 0 2 C0 1.34 0 0.68 0 0 Z " fill="#5B2A83" transform="translate(264,48)"/>
<path d="M0 0 C60.72 0 121.44 0 184 0 C184 3.96 184 7.92 184 12 C124.93 12 65.86 12 5 12 C5 11.67 5 11.34 5 11 C63.41 11 121.82 11 182 11 C182 8.03 182 5.06 182 2 C181.29577911 2.00222061 180.59155823 2.00444122 179.86599731 2.00672913 C170.28567495 2.03526439 160.70535749 2.05232635 151.125 2.0625 C149.92491617 2.06378403 149.92491617 2.06378403 148.70058823 2.06509399 C115.56923135 2.096185 82.44202714 1.82933705 49.3125 1.5 C48.10917274 1.48804218 46.90584549 1.47608437 45.66605377 1.46376419 C30.77730434 1.31525278 15.88862378 1.1606001 1 1 C1 4.63 1 8.26 1 12 C0.67 12 0.34 12 0 12 C0 8.04 0 4.08 0 0 Z " fill="#F6E4FE" transform="translate(85,54)"/>
<path d="M0 0 C0.33 0 0.66 0 1 0 C1.0935053 25.25209815 1.16400965 50.50417029 1.20724869 75.75640678 C1.22786033 87.48186918 1.25595433 99.20722391 1.30175781 110.93261719 C1.34166822 121.15430847 1.36744297 131.37592176 1.37635398 141.59768879 C1.38156157 147.00838892 1.39377241 152.41886596 1.42292023 157.82949448 C1.45015562 162.9266263 1.45842854 168.02344402 1.45243073 173.12064171 C1.45352733 174.98702516 1.4614326 176.85341958 1.4768219 178.71973991 C1.60337833 194.86546412 -1.47778565 205.38519406 -12.4375 217.75 C-25.25 229 -25.25 229 -32 229 C-31.67 228.01 -31.34 227.02 -31 226 C-30.01 226.33 -29.02 226.66 -28 227 C-28 226.34 -28 225.68 -28 225 C-26.02 224.67 -24.04 224.34 -22 224 C-22 223.34 -22 222.68 -22 222 C-21.34 221.67 -20.68 221.34 -20 221 C-20 220.34 -20 219.68 -20 219 C-19.34 219 -18.68 219 -18 219 C-17.67 218.01 -17.34 217.02 -17 216 C-15.68 216 -14.36 216 -13 216 C-13 215.34 -13 214.68 -13 214 C-12.34 214 -11.68 214 -11 214 C-11 213.01 -11 212.02 -11 211 C-11.66 210.67 -12.32 210.34 -13 210 C-12.01 209.67 -11.02 209.34 -10 209 C-9.67 208.34 -9.34 207.68 -9 207 C-8.34 207.33 -7.68 207.66 -7 208 C-6.855625 207.21625 -6.71125 206.4325 -6.5625 205.625 C-6 203 -6 203 -5 201 C-4.34 201 -3.68 201 -3 201 C-3.04125 199.9275 -3.0825 198.855 -3.125 197.75 C-3 194 -3 194 -2.00763988 192.03977966 C-0.85449203 189.70544616 -0.75089318 188.20343448 -0.75276184 185.61352539 C-0.74856735 184.74188248 -0.74437286 183.87023956 -0.74005127 182.97218323 C-0.74567078 182.02358932 -0.75129028 181.07499542 -0.75708008 180.09765625 C-0.75518173 179.09222275 -0.75328339 178.08678925 -0.75132751 177.05088806 C-0.74761843 173.72134642 -0.75833207 170.39202234 -0.76953125 167.0625 C-0.77072386 164.7428388 -0.77117604 162.42317712 -0.7709198 160.10351562 C-0.77248528 155.23450711 -0.7807754 150.36557205 -0.79418945 145.49658203 C-0.81110362 139.28077699 -0.81500587 133.06505326 -0.81424427 126.84922791 C-0.81451752 122.05343867 -0.82002468 117.25766693 -0.82724571 112.46188354 C-0.83041121 110.17194755 -0.83239479 107.88200959 -0.83313942 105.59207153 C-0.84220237 92.27717978 -0.90324367 79.17961122 -3 66 C-2.34 66 -1.68 66 -1 66 C-1.00222061 65.32063385 -1.00444122 64.6412677 -1.00672913 63.9413147 C-1.02894695 56.83539356 -1.04397514 49.72948239 -1.05493164 42.62353516 C-1.05994333 39.97574462 -1.06675444 37.32795682 -1.07543945 34.68017578 C-1.08764403 30.86229777 -1.0932601 27.04445654 -1.09765625 23.2265625 C-1.10281754 22.05324371 -1.10797882 20.87992493 -1.11329651 19.67105103 C-1.1137429 13.04933095 -0.82157172 6.57245731 0 0 Z " fill="#612E80" transform="translate(349,127)"/>
<path d="M0 0 C0.69222656 0.06703125 1.38445312 0.1340625 2.09765625 0.203125 C3.9375 0.75 3.9375 0.75 5.9375 3.75 C6.58987324 8.12433428 6.97151151 12.76269906 4.88671875 16.76953125 C2.40117483 19.78297831 0.40948643 21.5840756 -3.48828125 22.0234375 C-11.28645274 22.29779807 -11.28645274 22.29779807 -15.25 19.5 C-17.65198918 15.85560263 -17.17722923 13.53876347 -16.5625 9.3125 C-14.54350079 4.51737687 -11.64231287 2.9446826 -7.0625 0.75 C-4.18049341 -0.21066886 -2.91744009 -0.32718954 0 0 Z " fill="#F0EAFA" transform="translate(183.0625,305.25)"/>
<path d="M0 0 C0.33 0 0.66 0 1 0 C1 61.05 1 122.1 1 185 C-0.65 185 -2.3 185 -4 185 C-3.01 184.01 -3.01 184.01 -2 183 C-1.79709857 180.59635901 -1.71922655 178.30679423 -1.72825623 175.90148926 C-1.72316939 175.16206856 -1.71808255 174.42264787 -1.71284157 173.66082048 C-1.69811761 171.17031261 -1.69764593 168.68000156 -1.69702148 166.18945312 C-1.6893645 164.40917066 -1.68081895 162.62889182 -1.67144775 160.84861755 C-1.65313707 157.0088104 -1.641119 153.16905228 -1.63390923 149.32920837 C-1.62245225 143.26275294 -1.59700918 137.1964062 -1.56959534 131.13000488 C-1.527904 121.53828621 -1.4955082 111.94656239 -1.46712118 102.35479593 C-1.41618148 85.17042372 -1.35409932 67.98609658 -1.28178078 50.8018012 C-1.25680784 44.7660288 -1.23739893 38.73027078 -1.22239864 32.69446564 C-1.21221979 28.94572723 -1.19807385 25.19701115 -1.18292236 21.44828987 C-1.1767483 19.70434658 -1.17229944 17.96039624 -1.16966438 16.21644402 C-1.1658734 13.84375787 -1.15607711 11.47117111 -1.14476013 9.09851074 C-1.14514626 8.40143902 -1.1455324 7.7043673 -1.14593023 6.9861722 C-1.11406399 2.22812797 -1.11406399 2.22812797 0 0 Z " fill="#CFBCDD" transform="translate(209,114)"/>
<path d="M0 0 C12.54 0 25.08 0 38 0 C38 64.68 38 129.36 38 196 C37.67 196 37.34 196 37 196 C36.505 99.475 36.505 99.475 36 1 C18.92114875 -0.28653546 18.92114875 -0.28653546 3 3 C2.67 4.98 2.34 6.96 2 9 C9.59 9.33 17.18 9.66 25 10 C25 10.33 25 10.66 25 11 C16.75 11 8.5 11 0 11 C0 7.37 0 3.74 0 0 Z " fill="#C8B6E8" transform="translate(118,103)"/>
<path d="M0 0 C30.36 0 60.72 0 92 0 C91.67 21.45 91.34 42.9 91 65 C90.67 65 90.34 65 90 65 C89.67 44.54 89.34 24.08 89 3 C73.81250744 2.94183858 73.81250744 2.94183858 58.625 2.90234375 C52.43160582 2.89038317 46.23827071 2.876226 40.04492188 2.84912109 C35.05232851 2.82740771 30.05979849 2.81543452 25.06716156 2.81024551 C23.16135409 2.80654706 21.25555013 2.79932502 19.34976959 2.78853989 C16.68264748 2.77404502 14.01578791 2.77202122 11.34863281 2.77294922 C10.5588504 2.76575867 9.76906799 2.75856812 8.95535278 2.75115967 C5.15631936 2.76548495 2.2191471 2.85317088 -1 5 C-0.67 3.35 -0.34 1.7 0 0 Z " fill="#4F2B82" transform="translate(76,89)"/>
<path d="M0 0 C7.26 0 14.52 0 22 0 C22 0.33 22 0.66 22 1 C12.1 1.495 12.1 1.495 2 2 C1.97678006 23.08934006 1.95896918 44.178677 1.94818783 65.26802731 C1.94304722 75.06174596 1.93604744 84.85545649 1.92456055 94.64916992 C1.91454507 103.19247699 1.90813034 111.73577817 1.90591151 120.27909094 C1.90461598 124.79622061 1.90160437 129.31333345 1.89426994 133.83045769 C1.88740103 138.09608886 1.88540476 142.36169651 1.88689232 146.62733269 C1.88662081 148.17953622 1.88468097 149.73174067 1.88079453 151.28393936 C1.87568606 153.43252742 1.87588217 155.58100918 1.87974548 157.729599 C1.88037581 158.40739438 1.88100614 159.08518976 1.88165557 159.78352439 C1.90735529 163.43531282 2.05380529 167.05069202 2.33572578 170.69214058 C2.39395155 171.46498251 2.45217733 172.23782443 2.51216751 173.03408581 C2.63068265 174.51364427 2.7637262 175.99213644 2.91372007 177.46883577 C3.16982284 180.61217397 3.19395966 182.62923238 1.71513271 185.45611477 C-0.93784979 187.84421015 -3.20748791 187.38782226 -6.6875 187.25 C-7.86699219 187.21390625 -9.04648438 187.1778125 -10.26171875 187.140625 C-11.16535156 187.09421875 -12.06898438 187.0478125 -13 187 C-13 186.67 -13 186.34 -13 186 C-9.04 185.67 -5.08 185.34 -1 185 C-0.505 93.425 -0.505 93.425 0 0 Z " fill="#3F1971" transform="translate(210,114)"/>
<path d="M0 0 C3.72975427 1.15283314 5.35163561 1.75988138 7.4375 5.0625 C7.4375 8.99191056 6.99334616 11.2596111 4.75 14.5 C1.68171404 16.57316619 0.07776866 16.65682958 -3.5625 16.0625 C-6.4375 14.5 -6.4375 14.5 -8.5625 12.0625 C-9.36990332 7.62178174 -9.06581836 5.79459944 -6.5 2.0625 C-3.5625 0.0625 -3.5625 0.0625 0 0 Z " fill="#43248D" transform="translate(64.5625,74.9375)"/>
<path d="M0 0 C0.66 0 1.32 0 2 0 C2 0.66 2 1.32 2 2 C3.65 2.33 5.3 2.66 7 3 C7.103125 4.11375 7.20625 5.2275 7.3125 6.375 C7.6528125 8.169375 7.6528125 8.169375 8 10 C8.99 10.66 9.98 11.32 11 12 C11.33 11.34 11.66 10.68 12 10 C12 10.66 12 11.32 12 12 C13.32 12.33 14.64 12.66 16 13 C15.67 14.65 15.34 16.3 15 18 C18.28696233 18.79953138 19.71023192 19.09658936 23 18 C23.12375 19.3921875 23.12375 19.3921875 23.25 20.8125 C24.11491747 24.48839926 24.94061702 25.02620453 28 27 C28 27.66 28 28.32 28 29 C17.03746997 27.71495668 9.56226532 19.29619722 3 11 C-1.13141101 5.28125739 -1.13141101 5.28125739 -0.75 1.5625 C-0.5025 1.046875 -0.255 0.53125 0 0 Z " fill="#3C35A2" transform="translate(8,326)"/>
<path d="M0 0 C3.36344489 2.48602449 4.80057749 3.91425523 5.5625 8.0625 C4.86355315 11.71255579 4.01797955 12.85564611 1 15 C-1.9375 16.0625 -1.9375 16.0625 -5 16 C-7.875 14 -7.875 14 -10 11 C-10.63534983 6.97611774 -10.64970619 4.97455929 -8.375 1.5625 C-5.24316508 -0.49791771 -3.68455227 -0.6767545 0 0 Z " fill="#66168A" transform="translate(292,75)"/>
<path d="M0 0 C2.4375 2.25 2.4375 2.25 4 5 C4 8.24074924 3.23110923 9.67111379 1.375 12.3125 C-1.94506252 14.67149179 -4.01547016 14.56921855 -8 14 C-10.4375 12.375 -10.4375 12.375 -12 10 C-12.50347322 6.54761218 -12.41556154 4.73217986 -10.6875 1.6875 C-7.35721313 -1.64278687 -4.26806714 -1.21944775 0 0 Z " fill="#402D88" transform="translate(181,308)"/>
<path d="M0 0 C11.37607029 1.47805877 20.45802065 8.67821723 28 17 C35.23567631 26.94905493 35.23567631 26.94905493 34.671875 31.85546875 C34.33929688 32.91701172 34.33929688 32.91701172 34 34 C30.81886632 31.87924421 30.51414676 31.40492218 29.375 28 C28.6613665 25.91281386 27.98738482 23.97476963 27 22 C24.97536745 21.34786708 24.97536745 21.34786708 23 21 C22.67 18.69 22.34 16.38 22 14 C20.35 14.33 18.7 14.66 17 15 C17 14.34 17 13.68 17 13 C16.01 13.33 15.02 13.66 14 14 C13.34 13.34 12.68 12.68 12 12 C12.66 12 13.32 12 14 12 C14 11.01 14 10.02 14 9 C13.401875 9.165 12.80375 9.33 12.1875 9.5 C10 10 10 10 7 10 C7 9.01 7 8.02 7 7 C6.67 6.01 6.34 5.02 6 4 C2.99152582 2.77479736 2.99152582 2.77479736 0 2 C0 1.34 0 0.68 0 0 Z " fill="#752F88" transform="translate(313,2)"/>
<path d="M0 0 C0.66 0 1.32 0 2 0 C2.495 2.475 2.495 2.475 3 5 C-9.54 5 -22.08 5 -35 5 C-35 8.63 -35 12.26 -35 16 C-27.08 16.33 -19.16 16.66 -11 17 C-11 28.22 -11 39.44 -11 51 C-11.33 51 -11.66 51 -12 51 C-12 40.11 -12 29.22 -12 18 C-18.68671916 18.4066296 -18.68671916 18.4066296 -25.37182617 18.83837891 C-26.63216675 18.90677979 -26.63216675 18.90677979 -27.91796875 18.9765625 C-29.19837036 19.05511475 -29.19837036 19.05511475 -30.50463867 19.13525391 C-33.35265773 18.9808852 -35.42178077 18.18311391 -38 17 C-37.9131252 15.04082341 -37.80495488 13.08258129 -37.6875 11.125 C-37.62949219 10.03445312 -37.57148437 8.94390625 -37.51171875 7.8203125 C-37.34285156 6.88960938 -37.17398438 5.95890625 -37 5 C-33.34337096 2.56224731 -30.50584571 2.65313456 -26.26953125 2.5859375 C-25.14390022 2.55688828 -25.14390022 2.55688828 -23.99552917 2.5272522 C-21.60130133 2.46752541 -19.20702523 2.42109935 -16.8125 2.375 C-15.1881302 2.3368138 -13.56378052 2.29776169 -11.93945312 2.2578125 C-7.95979895 2.16182975 -3.98004999 2.07777364 0 2 C0 1.34 0 0.68 0 0 Z " fill="#401D88" transform="translate(153,98)"/>
<path d="M0 0 C-0.33 0.99 -0.66 1.98 -1 3 C-1.495 2.505 -1.99 2.01 -2.5 1.5 C-5.96958778 -0.58175267 -9.10039584 -0.55916112 -13 0 C-15.49925293 0.80385328 -17.63605086 1.81802543 -20 3 C-20.66 3.33 -21.32 3.66 -22 4 C-22.66 5.32 -23.32 6.64 -24 8 C-57 7.67 -90 7.34 -124 7 C-124 6.67 -124 6.34 -124 6 C-92.65 6 -61.3 6 -29 6 C-28.67 5.01 -28.34 4.02 -28 3 C-26.66666667 2.66666667 -25.33333333 2.33333333 -24 2 C-22.8553125 1.01 -22.8553125 1.01 -21.6875 0 C-15.74346276 -4.42346957 -6.23303453 -3.89564658 0 0 Z " fill="#54227B" transform="translate(300,70)"/>
<path d="M0 0 C0.99 0.33 1.98 0.66 3 1 C3 1.66 3 2.32 3 3 C3.515625 2.505 4.03125 2.01 4.5625 1.5 C7.85639847 -0.52701444 10.20122401 -0.35173852 14 0 C16.86989658 2.86989658 16 4.99787403 16 9 C16.31985981 10.30058699 16.67529101 11.59285102 17.0625 12.875 C18.57510287 18.39975516 17.62303079 23.39459853 16.3125 28.875 C14.46833805 31.86078601 12.16045571 32.61730063 9 34 C8.34 34.66 7.68 35.32 7 36 C5.68 35.34 4.36 34.68 3 34 C3 33.34 3 32.68 3 32 C4.093125 31.566875 5.18625 31.13375 6.3125 30.6875 C9.08796498 29.49320901 11.14829237 28.46894351 13 26 C13.97551509 23.07345473 14.16478088 21.05345004 14.1875 18 C14.20167969 17.13375 14.21585937 16.2675 14.23046875 15.375 C14.16255938 12.73278463 14.16255938 12.73278463 12 10 C12 8.68 12 7.36 12 6 C10.06302033 5.66365624 8.12539514 5.33102835 6.1875 5 C5.10855469 4.814375 4.02960938 4.62875 2.91796875 4.4375 C-0.00270898 3.92586214 -0.00270898 3.92586214 -3 4 C-2 2 -2 2 0 0 Z " fill="#692784" transform="translate(288,64)"/>
<path d="M0 0 C33 0 66 0 100 0 C100 0.33 100 0.66 100 1 C95.07040958 1.14296383 90.14080336 1.28536564 85.21118164 1.42724609 C83.53409384 1.47559399 81.85701046 1.5240956 80.17993164 1.57275391 C77.76970548 1.64265688 75.35946396 1.7120075 72.94921875 1.78125 C72.19912033 1.80312378 71.44902191 1.82499756 70.67619324 1.84753418 C66.74618522 1.95985644 62.82986379 2.00940652 58.8984375 1.96484375 C57.73570312 1.95582031 56.57296875 1.94679688 55.375 1.9375 C54.20710938 1.92589844 53.03921875 1.91429687 51.8359375 1.90234375 C49.0988539 1.67369512 49.0988539 1.67369512 48 3 C45.98405418 3.23427778 43.961526 3.41336124 41.9375 3.5625 C40.83277344 3.64628906 39.72804687 3.73007813 38.58984375 3.81640625 C37.73519531 3.87699219 36.88054687 3.93757812 36 4 C35.505 3.01 35.505 3.01 35 2 C31.85418577 1.97111486 28.70840531 1.95324077 25.5625 1.9375 C24.66466797 1.92912109 23.76683594 1.92074219 22.84179688 1.91210938 C21.98779297 1.90888672 21.13378906 1.90566406 20.25390625 1.90234375 C19.46314697 1.89710693 18.6723877 1.89187012 17.85766602 1.88647461 C15.98407311 1.79504091 15.98407311 1.79504091 15 3 C12.46950598 3.07313567 9.96695163 3.09247527 7.4375 3.0625 C6.72658203 3.05798828 6.01566406 3.05347656 5.28320312 3.04882812 C3.52209987 3.03700864 1.76103964 3.01907263 0 3 C0 2.01 0 1.02 0 0 Z " fill="#57168B" transform="translate(160,3)"/>
<path d="M0 0 C0.33 0 0.66 0 1 0 C1.02321756 8.87558336 1.04096298 17.75115619 1.05181217 26.62676334 C1.05702044 30.74850096 1.06408061 34.87021774 1.07543945 38.99194336 C1.08634158 42.97306459 1.09229232 46.95416582 1.09487724 50.93530083 C1.09671832 52.45066073 1.10031341 53.96601959 1.10573006 55.48137093 C1.11303782 57.61138358 1.11398686 59.74131463 1.11352539 61.87133789 C1.115746 63.0815712 1.11796661 64.2918045 1.12025452 65.53871155 C0.99690576 69.08906151 0.56558998 72.49512104 0 76 C-0.33 76 -0.66 76 -1 76 C-0.98839844 74.88882813 -0.97679687 73.77765625 -0.96484375 72.6328125 C-0.95545248 71.13021004 -0.94635374 69.62760573 -0.9375 68.125 C-0.92912109 67.39796875 -0.92074219 66.6709375 -0.91210938 65.921875 C-0.89469874 61.95225091 -1.06614589 58.10390886 -1.53125 54.16015625 C-2.14655687 48.50173532 -1.87503039 42.98474693 -1.5625 37.3125 C-1.08544435 27.52991437 -0.91552248 17.79077797 -1.03735352 7.99731445 C-1.04980103 6.6373938 -1.04980103 6.6373938 -1.0625 5.25 C-1.07410156 4.45078125 -1.08570313 3.6515625 -1.09765625 2.828125 C-1 1 -1 1 0 0 Z " fill="#53198D" transform="translate(348,248)"/>
<path d="M0 0 C1.98 0 3.96 0 6 0 C6.33 1.32 6.66 2.64 7 4 C6.01 3.67 5.02 3.34 4 3 C4 3.99 4 4.98 4 6 C3.01 6.495 3.01 6.495 2 7 C1.67 38.35 1.34 69.7 1 102 C0.67 102 0.34 102 0 102 C0 68.34 0 34.68 0 0 Z " fill="#491C86" transform="translate(186,90)"/>
<path d="M0 0 C0.66 0 1.32 0 2 0 C1.73805186 7.98941815 -0.77421648 13.28259884 -5 20 C-5.4434375 20.72445313 -5.886875 21.44890625 -6.34375 22.1953125 C-11.52941223 29.88335825 -19.61771433 35.25790818 -28 39 C-28.99 39 -29.98 39 -31 39 C-30.67 38.01 -30.34 37.02 -30 36 C-29.01 36.33 -28.02 36.66 -27 37 C-27 36.34 -27 35.68 -27 35 C-24.03 34.505 -24.03 34.505 -21 34 C-21 33.34 -21 32.68 -21 32 C-20.34 31.67 -19.68 31.34 -19 31 C-19 30.34 -19 29.68 -19 29 C-18.34 29 -17.68 29 -17 29 C-16.67 28.01 -16.34 27.02 -16 26 C-14.68 26 -13.36 26 -12 26 C-12 25.34 -12 24.68 -12 24 C-11.34 24 -10.68 24 -10 24 C-10 23.01 -10 22.02 -10 21 C-10.66 20.67 -11.32 20.34 -12 20 C-11.01 19.67 -10.02 19.34 -9 19 C-8.67 18.34 -8.34 17.68 -8 17 C-7.34 17.33 -6.68 17.66 -6 18 C-5.855625 17.21625 -5.71125 16.4325 -5.5625 15.625 C-5 13 -5 13 -4 11 C-3.34 11 -2.68 11 -2 11 C-2.04125 9.9275 -2.0825 8.855 -2.125 7.75 C-2.0114175 4.34252515 -1.78726636 2.79260369 0 0 Z " fill="#6F529D" transform="translate(348,317)"/>
<path d="M0 0 C-0.66 0 -1.32 0 -2 0 C-2.33 0.66 -2.66 1.32 -3 2 C-5.5625 2.625 -5.5625 2.625 -8 3 C-7.67 3.33 -7.34 3.66 -7 4 C-7.8125 7.4375 -7.8125 7.4375 -9 11 C-12.93670488 12.31223496 -15.12488144 11.24296256 -19 10 C-19.66 11.32 -20.32 12.64 -21 14 C-22.98 14 -24.96 14 -27 14 C-21.73729003 6.63220604 -9.53753113 -3.04612778 0 0 Z " fill="#3E1D99" transform="translate(42,3)"/>
<path d="M0 0 C0.33 0 0.66 0 1 0 C1.01030746 0.66382187 1.02061493 1.32764374 1.03123474 2.01158142 C1.14055004 9.00511089 1.25502381 15.99854321 1.37231445 22.99194336 C1.41526829 25.59185731 1.45696549 28.19179237 1.49731445 30.79174805 C1.55598995 34.55784586 1.61875917 38.32384721 1.68359375 42.08984375 C1.70352386 43.30747406 1.72345398 44.52510437 1.74398804 45.77963257 C1.89739297 53.86026652 2.31729978 61.86812849 3.09399414 69.91235352 C3 73 3 73 1.71337891 75.40893555 C0 77 0 77 -3.13671875 77.390625 C-4.30847656 77.34421875 -5.48023438 77.2978125 -6.6875 77.25 C-7.86699219 77.21390625 -9.04648438 77.1778125 -10.26171875 77.140625 C-11.16535156 77.09421875 -12.06898438 77.0478125 -13 77 C-13 76.67 -13 76.34 -13 76 C-7.06 75.505 -7.06 75.505 -1 75 C-0.67 50.25 -0.34 25.5 0 0 Z " fill="#3A1B7C" transform="translate(210,224)"/>
<path d="M0 0 C1.72694923 1.48874933 3.3537998 3.00957573 4.92578125 4.66015625 C4.26578125 5.32015625 3.60578125 5.98015625 2.92578125 6.66015625 C2.71953125 6.02078125 2.51328125 5.38140625 2.30078125 4.72265625 C1.03039916 2.31090548 1.03039916 2.31090548 -2.19921875 1.91015625 C-3.14796875 1.82765625 -4.09671875 1.74515625 -5.07421875 1.66015625 C-5.07421875 1.00015625 -5.07421875 0.34015625 -5.07421875 -0.33984375 C-8.53921875 1.14515625 -8.53921875 1.14515625 -12.07421875 2.66015625 C-10.42421875 2.99015625 -8.77421875 3.32015625 -7.07421875 3.66015625 C-7.67234375 3.92828125 -8.27046875 4.19640625 -8.88671875 4.47265625 C-11.21548622 5.7368443 -12.56665158 6.47418385 -14.07421875 8.66015625 C-14.34063769 12.39002147 -14.25873185 15.10661696 -13.07421875 18.66015625 C-14.06421875 18.33015625 -15.05421875 18.00015625 -16.07421875 17.66015625 C-16.40421875 15.02015625 -16.73421875 12.38015625 -17.07421875 9.66015625 C-17.73421875 9.66015625 -18.39421875 9.66015625 -19.07421875 9.66015625 C-19.40421875 7.68015625 -19.73421875 5.70015625 -20.07421875 3.66015625 C-14.26191526 -0.43487576 -6.8023961 -4.39401481 0 0 Z " fill="#F4E4F7" transform="translate(297.07421875,70.33984375)"/>
<path d="M0 0 C5.75 0.875 5.75 0.875 8 2 C10.04506404 2.15448656 12.09471735 2.24995343 14.14453125 2.31640625 C15.37880859 2.35830078 16.61308594 2.40019531 17.88476562 2.44335938 C19.82899414 2.50233398 19.82899414 2.50233398 21.8125 2.5625 C23.73932617 2.62727539 23.73932617 2.62727539 25.70507812 2.69335938 C33.35093587 2.94431049 33.35093587 2.94431049 41 3 C41 3.66 41 4.32 41 5 C28.79 5.33 16.58 5.66 4 6 C3.67 8.97 3.34 11.94 3 15 C2.67 15 2.34 15 2 15 C1.80448662 13.39679026 1.61888017 11.79237014 1.4375 10.1875 C1.28087891 8.84751953 1.28087891 8.84751953 1.12109375 7.48046875 C1 5 1 5 2 2 C1.34 2 0.68 2 0 2 C0 1.34 0 0.68 0 0 Z M-1 6 C-0.34 6.66 0.32 7.32 1 8 C0.01 8.495 0.01 8.495 -1 9 C-1 8.01 -1 7.02 -1 6 Z " fill="#4F1986" transform="translate(193,97)"/>
<path d="M0 0 C12.21 0 24.42 0 37 0 C37 2.64 37 5.28 37 8 C36.67 8 36.34 8 36 8 C36 5.69 36 3.38 36 1 C31.62155592 1.11814126 27.24334071 1.24238169 22.86523438 1.37231445 C21.37537359 1.41566589 19.88546305 1.45734084 18.39550781 1.49731445 C16.25570673 1.55501215 14.11615615 1.61870755 11.9765625 1.68359375 C10.68830566 1.72025146 9.40004883 1.75690918 8.07275391 1.79467773 C5.0872318 1.79530675 5.0872318 1.79530675 3 3 C2.67 4.98 2.34 6.96 2 9 C9.59 9.33 17.18 9.66 25 10 C25 10.33 25 10.66 25 11 C16.75 11 8.5 11 0 11 C0 7.37 0 3.74 0 0 Z " fill="#E5D4F2" transform="translate(118,103)"/>
<path d="M0 0 C7.75 -0.125 7.75 -0.125 10 1 C9.67 4.3 9.34 7.6 9 11 C7.02 11 5.04 11 3 11 C2.71125 10.195625 2.4225 9.39125 2.125 8.5625 C1.26737432 5.8673532 1.26737432 5.8673532 -1 5 C-0.67 3.35 -0.34 1.7 0 0 Z " fill="#411B9A" transform="translate(58,77)"/>
<path d="M0 0 C13.2 0 26.4 0 40 0 C40 0.66 40 1.32 40 2 C40.66 2.33 41.32 2.66 42 3 C40.35 3.33 38.7 3.66 37 4 C37 3.34 37 2.68 37 2 C34.93757383 1.97282308 32.87504297 1.9535242 30.8125 1.9375 C29.66394531 1.92589844 28.51539063 1.91429687 27.33203125 1.90234375 C23.32834699 2.01968502 19.81109671 2.80136407 15.9375 3.75 C10.30599191 4.10755607 5.37815562 2.56310927 0 1 C0 0.67 0 0.34 0 0 Z " fill="#5F2073" transform="translate(273,2)"/>
<path d="M0 0 C0.33 0 0.66 0 1 0 C1 24.75 1 49.5 1 75 C0.67 75 0.34 75 0 75 C-0.06058594 74.21496094 -0.12117188 73.42992187 -0.18359375 72.62109375 C-0.62820214 67.04638852 -1.12124643 61.52359384 -2 56 C-1.34 56 -0.68 56 0 56 C0 37.52 0 19.04 0 0 Z " fill="#621785" transform="translate(348,137)"/>
<path d="M0 0 C1.77706209 2.66559313 2.87548273 5.0280615 4 8 C4.99 7.67 5.98 7.34 7 7 C8.18681726 10.56045177 8.09689832 13.43808337 8.0625 17.1875 C8.05347656 18.45980469 8.04445313 19.73210938 8.03515625 21.04296875 C8.02355469 22.01878906 8.01195312 22.99460937 8 24 C7.67 24 7.34 24 7 24 C6.67 22.02 6.34 20.04 6 18 C5.67 18.99 5.34 19.98 5 21 C4.34 21 3.68 21 3 21 C1.875 14.375 1.875 14.375 3 11 C2.01 11.33 1.02 11.66 0 12 C-0.76173392 7.6835078 -1.16063604 4.25566547 0 0 Z " fill="#7B2E8C" transform="translate(342,27)"/>
<path d="M0 0 C7.21748709 3.14284449 11.40411012 10.25015074 15.25 16.82421875 C16.19207141 19.55720715 15.76924293 21.25476429 15 24 C11.81886632 21.87924421 11.51414676 21.40492218 10.375 18 C9.6613665 15.91281386 8.98738482 13.97476963 8 12 C5.97536745 11.34786708 5.97536745 11.34786708 4 11 C3.67 8.36 3.34 5.72 3 3 C2.01 3 1.02 3 0 3 C0 2.01 0 1.02 0 0 Z " fill="#7C3C89" transform="translate(332,12)"/>
<path d="M0 0 C0.66 0 1.32 0 2 0 C2.495 2.475 2.495 2.475 3 5 C-9.54 5 -22.08 5 -35 5 C-34.67 4.34 -34.34 3.68 -34 3 C-22.78 2.67 -11.56 2.34 0 2 C0 1.34 0 0.68 0 0 Z " fill="#502E82" transform="translate(153,98)"/>
<path d="M0 0 C2.31 0 4.62 0 7 0 C8.60355101 3.50776784 9.22036864 6.14354879 9 10 C6.69 10 4.38 10 2 10 C1.67 8.35 1.34 6.7 1 5 C0.01 4.67 -0.98 4.34 -2 4 C-2 3.34 -2 2.68 -2 2 C-1.34 2 -0.68 2 0 2 C0 1.34 0 0.68 0 0 Z " fill="#3A1D9C" transform="translate(173,310)"/>
<path d="M0 0 C0.69234745 2.70397116 0.49620256 5.26233071 0 8 C-1.5 10 -1.5 10 -3 11 C-3.495 10.505 -3.495 10.505 -4 10 C-4 6.37 -4 2.74 -4 -1 C-16.54 -1 -29.08 -1 -42 -1 C-42 -1.33 -42 -1.66 -42 -2 C-36.66201593 -2.21727894 -31.32381517 -2.41409183 -25.984375 -2.59204102 C-24.16841512 -2.65543747 -22.35264078 -2.72440543 -20.53710938 -2.79907227 C-17.92607025 -2.90548497 -15.31501764 -2.99178668 -12.703125 -3.07421875 C-11.48728729 -3.1302552 -11.48728729 -3.1302552 -10.24688721 -3.18742371 C-5.90396704 -3.30305049 -3.04317304 -3.30797056 0 0 Z " fill="#5F3483" transform="translate(239,104)"/>
<path d="M0 0 C0.99 0.33 1.98 0.66 3 1 C3 1.66 3 2.32 3 3 C3.515625 2.505 4.03125 2.01 4.5625 1.5 C7.85639847 -0.52701444 10.20122401 -0.35173852 14 0 C16 2 16 2 16.1953125 4.3828125 C16.17210937 5.28773437 16.14890625 6.19265625 16.125 7.125 C16.10695313 8.03507812 16.08890625 8.94515625 16.0703125 9.8828125 C16.04710937 10.58148438 16.02390625 11.28015625 16 12 C14.68 11.34 13.36 10.68 12 10 C12 8.68 12 7.36 12 6 C10.06302033 5.66365624 8.12539514 5.33102835 6.1875 5 C5.10855469 4.814375 4.02960938 4.62875 2.91796875 4.4375 C-0.00270898 3.92586214 -0.00270898 3.92586214 -3 4 C-2 2 -2 2 0 0 Z " fill="#68158B" transform="translate(288,64)"/>
<path d="M0 0 C0.33 0 0.66 0 1 0 C1 4.33333333 1 8.66666667 1 13 C-4.62870885 15.93161919 -7.77166905 16.2019586 -14 15 C-13.360625 14.690625 -12.72125 14.38125 -12.0625 14.0625 C-10.06389179 13.1654837 -10.06389179 13.1654837 -9 12 C-9.66 11.67 -10.32 11.34 -11 11 C-10.67 10.34 -10.34 9.68 -10 9 C-9.05125 8.855625 -8.1025 8.71125 -7.125 8.5625 C-4.07449462 8.23543885 -4.07449462 8.23543885 -2.1875 6.75 C-0.69593338 4.55190182 -0.35284675 2.61106596 0 0 Z " fill="#F1DFF5" transform="translate(297,81)"/>
<path d="M0 0 C3.64398882 0.36439888 6.53151596 0.7605526 9.8125 2.4375 C14.0674294 4.5232497 18.35296697 5.21937192 23 6 C22.01 6.495 22.01 6.495 21 7 C20.27840576 8.64363134 19.60648579 10.31050386 19 12 C16.69 10.68 14.38 9.36 12 8 C12 7.34 12 6.68 12 6 C8.7 5.34 5.4 4.68 2 4 C2 3.34 2 2.68 2 2 C1.34 1.34 0.68 0.68 0 0 Z " fill="#601D81" transform="translate(270,91)"/>
<path d="M0 0 C0.33 0 0.66 0 1 0 C2.03979556 6.23877334 2.06976622 12.32129329 1.96289062 18.62695312 C1.94078048 20.41787499 1.96625224 22.20925963 2 24 C2.33 24.33 2.66 24.66 3 25 C3.07179964 26.51928038 3.08392007 28.04167482 3.0625 29.5625 C3.05347656 30.38878906 3.04445313 31.21507812 3.03515625 32.06640625 C3.02355469 32.70449219 3.01195312 33.34257812 3 34 C2.67 34 2.34 34 2 34 C1.67 37.3 1.34 40.6 1 44 C0.67 44 0.34 44 0 44 C0 29.48 0 14.96 0 0 Z " fill="#2F2991" transform="translate(4,272)"/>
<path d="M0 0 C0.598125 0.226875 1.19625 0.45375 1.8125 0.6875 C0.8225 0.6875 -0.1675 0.6875 -1.1875 0.6875 C-1.1875 1.6775 -1.1875 2.6675 -1.1875 3.6875 C-1.8475 3.6875 -2.5075 3.6875 -3.1875 3.6875 C-3.1875 5.9975 -3.1875 8.3075 -3.1875 10.6875 C0.4425 10.6875 4.0725 10.6875 7.8125 10.6875 C8.04678313 5.8977679 8.04678313 5.8977679 5.8125 1.6875 C4.8225 1.0275 3.8325 0.3675 2.8125 -0.3125 C5.1875 0 5.1875 0 7.8125 0.6875 C10.13999345 4.17874017 10.31549316 5.57972251 9.8125 9.6875 C7.7564778 12.61337775 6.23546048 13.53451429 2.875 14.75 C-0.1875 14.6875 -0.1875 14.6875 -3.0625 12.6875 C-5.67531838 8.99881523 -5.84402643 7.11905342 -5.1875 2.6875 C-3.58118253 0.11739205 -3.03484548 -0.43354935 0 0 Z " fill="#5F2978" transform="translate(287.1875,76.3125)"/>
<path d="M0 0 C0.33 0.99 0.66 1.98 1 3 C1.66 3 2.32 3 3 3 C3.33 2.01 3.66 1.02 4 0 C4.99 0 5.98 0 7 0 C7.91058531 3.07322544 8.08886184 5.80097361 8 9 C7.34 8.01 6.68 7.02 6 6 C2.63448877 4.87816292 -0.09060232 4.79199032 -3.63671875 4.68359375 C-4.93544922 4.64169922 -6.23417969 4.59980469 -7.57226562 4.55664062 C-8.94400761 4.51683013 -10.31575244 4.47711784 -11.6875 4.4375 C-13.07097645 4.39429165 -14.45444027 4.35067661 -15.83789062 4.30664062 C-19.22515719 4.20041972 -22.61249799 4.09837642 -26 4 C-24 2 -24 2 -21.56982422 1.77294922 C-20.07733154 1.78865967 -20.07733154 1.78865967 -18.5546875 1.8046875 C-16.94013672 1.81435547 -16.94013672 1.81435547 -15.29296875 1.82421875 C-14.16503906 1.84097656 -13.03710938 1.85773437 -11.875 1.875 C-10.17150391 1.88853516 -10.17150391 1.88853516 -8.43359375 1.90234375 C-5.62218701 1.92596902 -2.81119702 1.95890987 0 2 C0 1.34 0 0.68 0 0 Z " fill="#62168C" transform="translate(264,48)"/>
<path d="M0 0 C0.99 1.485 0.99 1.485 2 3 C4.64505429 6.73955952 6.45103102 8.989118 11 10 C15.44897893 9.84851147 19.70238529 9.14018349 24 8 C24 8.66 24 9.32 24 10 C18.16555969 12.26894901 13.28006507 13.73267426 7 13 C3.02307205 10.6657162 1.22054292 8.43833789 0 4 C0 2.68 0 1.36 0 0 Z " fill="#442986" transform="translate(50,86)"/>
<path d="M0 0 C0.75410156 0.00322266 1.50820313 0.00644531 2.28515625 0.00976562 C3.06246094 0.01814453 3.83976562 0.02652344 4.640625 0.03515625 C5.43339844 0.03966797 6.22617187 0.04417969 7.04296875 0.04882812 C8.99222008 0.0605706 10.94143238 0.07850479 12.890625 0.09765625 C11.900625 1.58265625 11.900625 1.58265625 10.890625 3.09765625 C9.405625 2.75734375 9.405625 2.75734375 7.890625 2.41015625 C3.97643736 1.8273597 1.51904816 2.86098189 -2.04296875 4.39453125 C-5.44299432 5.55143976 -8.54827289 5.28842958 -12.109375 5.09765625 C-8.29100237 0.87017226 -5.59166514 -0.0423611 0 0 Z " fill="#3D1D92" transform="translate(44.109375,2.90234375)"/>
<path d="M0 0 C0.66 0.66 1.32 1.32 2 2 C1.01 2.66 0.02 3.32 -1 4 C-0.67 2.68 -0.34 1.36 0 0 Z M-13 4 C-12.38511719 4.08378906 -11.77023438 4.16757813 -11.13671875 4.25390625 C-9.92435547 4.40666016 -9.92435547 4.40666016 -8.6875 4.5625 C-7.88699219 4.66691406 -7.08648437 4.77132812 -6.26171875 4.87890625 C-3.83182884 5.14755178 -3.83182884 5.14755178 -1 4 C-1 4.66 -1 5.32 -1 6 C-0.01 6.33 0.98 6.66 2 7 C2 6.34 2 5.68 2 5 C2.99 5.33 3.98 5.66 5 6 C0.21055351 10.78944649 -3.27494919 11.83560987 -10 12 C-8.68 11.34 -7.36 10.68 -6 10 C-6 9.34 -6 8.68 -6 8 C-8.31 7.34 -10.62 6.68 -13 6 C-13 5.34 -13 4.68 -13 4 Z " fill="#ECE2F8" transform="translate(71,85)"/>
<path d="M0 0 C-0.33 0.99 -0.66 1.98 -1 3 C-1.495 2.505 -1.99 2.01 -2.5 1.5 C-5.97388351 -0.58433011 -9.09642155 -0.5482554 -13 0 C-16.53364109 1.25773666 -19.51620123 2.69621937 -22.6875 4.6875 C-25 6 -25 6 -29 6 C-28.67 5.01 -28.34 4.02 -28 3 C-26.66666667 2.66666667 -25.33333333 2.33333333 -24 2 C-23.236875 1.34 -22.47375 0.68 -21.6875 0 C-15.74346276 -4.42346957 -6.23303453 -3.89564658 0 0 Z " fill="#5C1C7D" transform="translate(300,70)"/>
<path d="M0 0 C6.93 0 13.86 0 21 0 C20.67 0.66 20.34 1.32 20 2 C16.08234111 2.81309902 12.82092412 3.37553268 9 2 C8.67 2.99 8.34 3.98 8 5 C8 4.34 8 3.68 8 3 C5.69 3 3.38 3 1 3 C0.67 2.01 0.34 1.02 0 0 Z " fill="#5F168C" transform="translate(247,91)"/>
<path d="M0 0 C0.33 0.99 0.66 1.98 1 3 C1.97582031 3.03738281 2.95164063 3.07476562 3.95703125 3.11328125 C5.22933594 3.17902344 6.50164062 3.24476563 7.8125 3.3125 C9.07707031 3.37050781 10.34164062 3.42851562 11.64453125 3.48828125 C15 4 15 4 16.94921875 5.54296875 C17.29597656 6.02378906 17.64273438 6.50460937 18 7 C12.41973672 8.61093051 6.58551899 8.58042263 0.9375 7.3125 C-1 6 -1 6 -1.8125 3.375 C-1.874375 2.59125 -1.93625 1.8075 -2 1 C-1.34 0.67 -0.68 0.34 0 0 Z " fill="#4B2B94" transform="translate(194,295)"/>
<path d="M0 0 C-0.66 0 -1.32 0 -2 0 C-2.33 0.66 -2.66 1.32 -3 2 C-3.804375 2.144375 -4.60875 2.28875 -5.4375 2.4375 C-8.34440658 2.76502717 -8.34440658 2.76502717 -10 6 C-10.66 6 -11.32 6 -12 6 C-12.33 6.66 -12.66 7.32 -13 8 C-13 7.34 -13 6.68 -13 6 C-13.66 6 -14.32 6 -15 6 C-15 6.66 -15 7.32 -15 8 C-15.99 8.33 -16.98 8.66 -18 9 C-18.66 8.34 -19.32 7.68 -20 7 C-6.48415381 -2.09443906 -6.48415381 -2.09443906 0 0 Z " fill="#604C9B" transform="translate(42,3)"/>
<path d="M0 0 C0.33 0.66 0.66 1.32 1 2 C3.02463255 2.65213292 3.02463255 2.65213292 5 3 C4.34 4.98 3.68 6.96 3 9 C0.0625 8.25 0.0625 8.25 -3 7 C-3.875 4.875 -3.875 4.875 -4 3 C-2.68 2.67 -1.36 2.34 0 2 C0 1.34 0 0.68 0 0 Z " fill="#3731A0" transform="translate(19,336)"/>
<path d="M0 0 C0.66 0.33 1.32 0.66 2 1 C1.95875 1.928125 1.9175 2.85625 1.875 3.8125 C1.72863661 7.15809719 1.72863661 7.15809719 4 10 C3.01 10.495 3.01 10.495 2 11 C2 11.66 2 12.32 2 13 C4.475 13.99 4.475 13.99 7 15 C5.3125 15.8125 5.3125 15.8125 3 16 C0.25 13.8125 0.25 13.8125 -2 11 C-2 6.91621923 -1.19287411 3.87684087 0 0 Z " fill="#E4DBF4" transform="translate(168,311)"/>
<path d="M0 0 C-1.98 0.99 -3.96 1.98 -6 3 C-5.67 3.66 -5.34 4.32 -5 5 C-4.01 5 -3.02 5 -2 5 C-2.639375 5.721875 -3.27875 6.44375 -3.9375 7.1875 C-5.98673535 9.98191184 -6.61332946 11.61663274 -7 15 C-7.33 15 -7.66 15 -8 15 C-7.67 12.03 -7.34 9.06 -7 6 C-8.32 5.67 -9.64 5.34 -11 5 C-4.74206349 -1.42261905 -4.74206349 -1.42261905 0 0 Z " fill="#E1D4F3" transform="translate(63,70)"/>
<path d="M0 0 C1.98 0 3.96 0 6 0 C6.66 2.31 7.32 4.62 8 7 C5.6875 7.625 5.6875 7.625 3 8 C2.01 7.34 1.02 6.68 0 6 C-0.1875 2.875 -0.1875 2.875 0 0 Z " fill="#6B2290" transform="translate(286,75)"/>
<path d="M0 0 C1.46109063 0.25554054 2.91888096 0.53000372 4.375 0.8125 C5.59316406 1.03873047 5.59316406 1.03873047 6.8359375 1.26953125 C9 2 9 2 11 5 C10.01 5.495 10.01 5.495 9 6 C7.86649466 8.01669827 7.86649466 8.01669827 7 10 C5.68 8.68 4.36 7.36 3 6 C3.66 6 4.32 6 5 6 C4.67 5.01 4.34 4.02 4 3 C1.98491642 2.26676204 1.98491642 2.26676204 0 2 C0 1.34 0 0.68 0 0 Z " fill="#EFE7F8" transform="translate(63,69)"/>
<path d="M0 0 C0.33 0.66 0.66 1.32 1 2 C0.0625 4.125 0.0625 4.125 -1 6 C0.32 5.34 1.64 4.68 3 4 C2.34 6.64 1.68 9.28 1 12 C-0.98 11.34 -2.96 10.68 -5 10 C-3.84414715 6.08788267 -2.64465038 3.1254959 0 0 Z " fill="#5C47A2" transform="translate(12,20)"/>
<path d="M0 0 C0 0.66 0 1.32 0 2 C2.97 2.495 2.97 2.495 6 3 C6 3.66 6 4.32 6 5 C1.1666528 5.08333357 -3.23692563 4.95261487 -8 4 C-6 1 -6 1 -4 0.3125 C-2 0 -2 0 0 0 Z " fill="#FDF8F8" transform="translate(292,70)"/>
<path d="M0 0 C2.97 0.33 5.94 0.66 9 1 C8.67 2.32 8.34 3.64 8 5 C9.98 5 11.96 5 14 5 C14.33 5.99 14.66 6.98 15 8 C8.92838975 7.68863537 4.66140596 4.64625533 0 1 C0 0.67 0 0.34 0 0 Z " fill="#5A53A1" transform="translate(21,347)"/>
<path d="M0 0 C0 3.66666667 0 7.33333333 0 11 C-1.98 11.99 -1.98 11.99 -4 13 C-4.63019694 4.80743982 -4.63019694 4.80743982 -2 1.4375 C-1.34 0.963125 -0.68 0.48875 0 0 Z " fill="#F2EBFB" transform="translate(168,306)"/>
<path d="M0 0 C0.99 0.33 1.98 0.66 3 1 C1.69331354 4.92005939 0.21332305 5.28032042 -3.375 7.1875 C-4.35210937 7.71730469 -5.32921875 8.24710937 -6.3359375 8.79296875 C-9 10 -9 10 -12 10 C-11.67 9.01 -11.34 8.02 -11 7 C-10.01 7.33 -9.02 7.66 -8 8 C-8 7.34 -8 6.68 -8 6 C-6.02 5.67 -4.04 5.34 -2 5 C-2 4.34 -2 3.68 -2 3 C-1.34 2.67 -0.68 2.34 0 2 C0 1.34 0 0.68 0 0 Z " fill="#755FA7" transform="translate(329,346)"/>
<path d="M0 0 C0 1.65 0 3.3 0 5 C-3.72433382 3.7874262 -7.37802806 2.49140021 -11 1 C-6.8204355 -1.78637633 -4.85331323 -0.79562512 0 0 Z " fill="#F2EBF9" transform="translate(187,306)"/>
<path d="M0 0 C6.6 0 13.2 0 20 0 C16.72212179 3.27787821 12.48837026 2.96738103 8 3 C5.19667285 2.55524137 2.71870928 1.85588996 0 1 C0 0.67 0 0.34 0 0 Z " fill="#6A1785" transform="translate(277,3)"/>
<path d="M0 0 C2.2586663 3.38799945 2.22069533 4.54459308 2.125 8.5 C2.10695313 9.4590625 2.08890625 10.418125 2.0703125 11.40625 C2.04710937 12.2621875 2.02390625 13.118125 2 14 C2 14.99 2 15.98 2 17 C2 19 2 21 2 23 C-1.09158737 19.90841263 -0.86840347 16.18118078 -1 12 C-0.79798573 7.98376397 -0.43957564 3.99675695 0 0 Z " fill="#5651AA" transform="translate(5,304)"/>
<path d="M0 0 C1.98 0 3.96 0 6 0 C6 0.66 6 1.32 6 2 C9.3 2 12.6 2 16 2 C16 2.33 16 2.66 16 3 C14.02 3 12.04 3 10 3 C9.67 3.99 9.34 4.98 9 6 C9 5.34 9 4.68 9 4 C6.03 3.67 3.06 3.34 0 3 C0 2.01 0 1.02 0 0 Z " fill="#5E1691" transform="translate(224,91)"/>
<path d="M0 0 C2.45840605 -0.02691685 4.91651882 -0.04679802 7.375 -0.0625 C8.07367188 -0.07087891 8.77234375 -0.07925781 9.4921875 -0.08789062 C14.7734375 -0.11328125 14.7734375 -0.11328125 17 1 C17 1.66 17 2.32 17 3 C14.69 3.66 12.38 4.32 10 5 C10 4.01 10 3.02 10 2 C6.7 1.67 3.4 1.34 0 1 C0 0.67 0 0.34 0 0 Z " fill="#4E37A2" transform="translate(143,299)"/>
<path d="M0 0 C3.77258731 0.29019902 6.32665983 0.51657629 9.4375 2.75 C11.28286337 5.40732325 11.35205968 6.8314629 11 10 C10.67 8.68 10.34 7.36 10 6 C8.68 6.33 7.36 6.66 6 7 C6.33 5.68 6.66 4.36 7 3 C4.69 3 2.38 3 0 3 C0 2.01 0 1.02 0 0 Z " fill="#4B3386" transform="translate(61,75)"/>
<path d="M0 0 C1.78054736 2.67082104 2.83232044 5.04187844 4 8 C4.33 8.33 4.66 8.66 5 9 C5.04063832 10.66617115 5.042721 12.33388095 5 14 C4.67 13.01 4.34 12.02 4 11 C2.68 11.33 1.36 11.66 0 12 C-0.76173392 7.6835078 -1.16063604 4.25566547 0 0 Z " fill="#771288" transform="translate(342,27)"/>
<path d="M0 0 C0.99 0.66 1.98 1.32 3 2 C3 3.32 3 4.64 3 6 C3.99 6.33 4.98 6.66 6 7 C4.35 7.33 2.7 7.66 1 8 C1 7.34 1 6.68 1 6 C0.01 6.33 -0.98 6.66 -2 7 C-2.66 6.34 -3.32 5.68 -4 5 C-3.34 5 -2.68 5 -2 5 C-2 4.01 -2 3.02 -2 2 C-1.34 2 -0.68 2 0 2 C0 1.34 0 0.68 0 0 Z " fill="#79258B" transform="translate(329,9)"/>
<path d="M0 0 C1.32 0 2.64 0 4 0 C3.58534283 4.83766699 1.5801385 6.85646376 -2 10 C-2.99 10.495 -2.99 10.495 -4 11 C-4 9.35 -4 7.7 -4 6 C-2.68 6 -1.36 6 0 6 C0 5.34 0 4.68 0 4 C0.66 4 1.32 4 2 4 C2 3.01 2 2.02 2 1 C1.34 0.67 0.68 0.34 0 0 Z " fill="#624695" transform="translate(336,337)"/>
<path d="M0 0 C6.86892178 -0.7230444 6.86892178 -0.7230444 10.08984375 1.3359375 C11.80497879 2.83010422 13.43160073 4.35318077 15 6 C14.34 6.66 13.68 7.32 13 8 C12.79375 7.360625 12.5875 6.72125 12.375 6.0625 C11.10461791 3.65074923 11.10461791 3.65074923 7.875 3.25 C6.92625 3.1675 5.9775 3.085 5 3 C5 2.34 5 1.68 5 1 C3.35 1 1.7 1 0 1 C0 0.67 0 0.34 0 0 Z " fill="#E8CFEF" transform="translate(287,69)"/>
<path d="M0 0 C0.78375 0.04125 1.5675 0.0825 2.375 0.125 C1.0625 2.125 1.0625 2.125 -0.625 4.125 C-1.615 4.125 -2.605 4.125 -3.625 4.125 C-3.625 4.785 -3.625 5.445 -3.625 6.125 C-2.965 6.455 -2.305 6.785 -1.625 7.125 C-3.275 7.785 -4.925 8.445 -6.625 9.125 C-4.3125 0.20535714 -4.3125 0.20535714 0 0 Z " fill="#3F268F" transform="translate(17.625,16.875)"/>
<path d="M0 0 C0.33 0.66 0.66 1.32 1 2 C1.99 2.33 2.98 2.66 4 3 C4.73046875 4.84765625 4.73046875 4.84765625 5.1875 7.0625 C5.34605469 7.79597656 5.50460938 8.52945313 5.66796875 9.28515625 C5.83232422 10.13400391 5.83232422 10.13400391 6 11 C1.125 8.125 1.125 8.125 0 7 C-0.04092937 4.66702567 -0.04241723 2.33294775 0 0 Z " fill="#493387" transform="translate(56,80)"/>
<path d="M0 0 C1.32 0 2.64 0 4 0 C3.46930939 3.82097239 2.50298434 6.06171403 0 9 C-0.84454356 5.62182575 -1.10844919 3.32534757 0 0 Z " fill="#FEFAFB" transform="translate(52,76)"/>
<path d="M0 0 C4.62 0 9.24 0 14 0 C13.67 0.66 13.34 1.32 13 2 C10.27734375 2.4140625 10.27734375 2.4140625 6.9375 2.625 C5.83277344 2.69976562 4.72804687 2.77453125 3.58984375 2.8515625 C2.73519531 2.90054687 1.88054687 2.94953125 1 3 C0.67 2.01 0.34 1.02 0 0 Z " fill="#591595" transform="translate(195,4)"/>
<path d="M0 0 C2.475 0.99 2.475 0.99 5 2 C4.34 4.97 3.68 7.94 3 11 C1.04783565 7.09567131 0.49360009 4.27786748 0 0 Z " fill="#2F2897" transform="translate(5,317)"/>
<path d="M0 0 C0.33 0.66 0.66 1.32 1 2 C1.66 2 2.32 2 3 2 C3 4.97 3 7.94 3 11 C2.34 10.34 1.68 9.68 1 9 C0.01 9.495 0.01 9.495 -1 10 C-0.67 6.7 -0.34 3.4 0 0 Z " fill="#731584" transform="translate(346,56)"/>
<path d="M0 0 C1.9375 0.8125 1.9375 0.8125 4 2 C4.33 2.99 4.66 3.98 5 5 C5.99 5.33 6.98 5.66 8 6 C7.01 6.99 6.02 7.98 5 9 C4.16094435 7.87926138 3.32892169 6.75325453 2.5 5.625 C2.0359375 4.99851562 1.571875 4.37203125 1.09375 3.7265625 C0 2 0 2 0 0 Z " fill="#5B58A8" transform="translate(9,332)"/>
<path d="M0 0 C1.98 0 3.96 0 6 0 C6.66 1.32 7.32 2.64 8 4 C5 5 5 5 2 4 C2 3.34 2 2.68 2 2 C1.34 2 0.68 2 0 2 C0 1.34 0 0.68 0 0 Z " fill="#5F1694" transform="translate(232,98)"/>
<path d="M0 0 C6.75 0.875 6.75 0.875 9 2 C9 2.66 9 3.32 9 4 C5.86650268 5.04449911 5.01031744 4.93423645 2 4 C2 3.34 2 2.68 2 2 C1.34 1.34 0.68 0.68 0 0 Z " fill="#62158E" transform="translate(270,91)"/>
<path d="M0 0 C0.598125 0.226875 1.19625 0.45375 1.8125 0.6875 C0.8225 0.6875 -0.1675 0.6875 -1.1875 0.6875 C-1.1875 1.6775 -1.1875 2.6675 -1.1875 3.6875 C-1.8475 3.6875 -2.5075 3.6875 -3.1875 3.6875 C-3.1875 5.3375 -3.1875 6.9875 -3.1875 8.6875 C-3.8475 8.6875 -4.5075 8.6875 -5.1875 8.6875 C-5.55003776 3.24943353 -5.55003776 3.24943353 -3.9375 0.75 C-2.1875 -0.3125 -2.1875 -0.3125 0 0 Z " fill="#592274" transform="translate(287.1875,76.3125)"/>
<path d="M0 0 C2 3.75 2 3.75 2 6 C2.66 6.66 3.32 7.32 4 8 C2.35 8 0.7 8 -1 8 C-0.67 6.68 -0.34 5.36 0 4 C-0.99 3.67 -1.98 3.34 -3 3 C-2.01 2.01 -1.02 1.02 0 0 Z " fill="#2F24A1" transform="translate(30,344)"/>
<path d="M0 0 C0.99 0.33 1.98 0.66 3 1 C2.25 2.9375 2.25 2.9375 1 5 C-1.125 5.75 -1.125 5.75 -3 6 C-2.625 3.5625 -2.625 3.5625 -2 1 C-1.34 0.67 -0.68 0.34 0 0 Z " fill="#591692" transform="translate(237,114)"/>
<path d="M0 0 C3.7952131 1.49097658 5.61042731 3.75700849 8 7 C6.68 7.33 5.36 7.66 4 8 C3.67 6.35 3.34 4.7 3 3 C2.01 3 1.02 3 0 3 C0 2.01 0 1.02 0 0 Z " fill="#9C64A7" transform="translate(332,12)"/>
<path d="M0 0 C1.5625 1.6875 1.5625 1.6875 3 4 C2.6875 6.75 2.6875 6.75 2 9 C1.01 8.34 0.02 7.68 -1 7 C-0.67 4.69 -0.34 2.38 0 0 Z " fill="#8D469A" transform="translate(345,27)"/>
<path d="M0 0 C1.65 0.33 3.3 0.66 5 1 C4.01 2.485 4.01 2.485 3 4 C0.375 4.1875 0.375 4.1875 -2 4 C-1.34 2.68 -0.68 1.36 0 0 Z " fill="#FDF8FD" transform="translate(62,92)"/>
<path d="M0 0 C0.66 0.33 1.32 0.66 2 1 C1.67 1.99 1.34 2.98 1 4 C0.34 3.67 -0.32 3.34 -1 3 C-1 3.99 -1 4.98 -1 6 C-1.99 6.33 -2.98 6.66 -4 7 C-4 5.35 -4 3.7 -4 2 C-2.125 0.9375 -2.125 0.9375 0 0 Z " fill="#53178E" transform="translate(191,90)"/>
<path d="M0 0 C1.98 0 3.96 0 6 0 C5.34 1.32 4.68 2.64 4 4 C3.01 3.67 2.02 3.34 1 3 C0.34 3.66 -0.32 4.32 -1 5 C-0.67 3.35 -0.34 1.7 0 0 Z " fill="#391E88" transform="translate(58,77)"/>
<path d="M0 0 C4.21912747 0.4794463 6.79663178 1.16625119 10 4 C8 5 8 5 6.0546875 4.44140625 C5.33539063 4.15136719 4.61609375 3.86132812 3.875 3.5625 C3.15054687 3.27503906 2.42609375 2.98757812 1.6796875 2.69140625 C0.84824219 2.34916016 0.84824219 2.34916016 0 2 C0 1.34 0 0.68 0 0 Z " fill="#9763A4" transform="translate(313,2)"/>
<path d="M0 0 C0.66 0.33 1.32 0.66 2 1 C2 2.98 2 4.96 2 7 C1.67 6.34 1.34 5.68 1 5 C-0.32 5 -1.64 5 -3 5 C-3.33 4.01 -3.66 3.02 -4 2 C-2.68 2.33 -1.36 2.66 0 3 C0 2.01 0 1.02 0 0 Z " fill="#E6DAF5" transform="translate(187,308)"/>
<path d="M0 0 C0.33 0.99 0.66 1.98 1 3 C1.66 3 2.32 3 3 3 C2.34 5.97 1.68 8.94 1 12 C0.67 12 0.34 12 0 12 C0 8.04 0 4.08 0 0 Z " fill="#391E98" transform="translate(5,43)"/>
<path d="M0 0 C2.31 0 4.62 0 7 0 C7 0.66 7 1.32 7 2 C7.66 2.33 8.32 2.66 9 3 C7.35 3.33 5.7 3.66 4 4 C4 3.34 4 2.68 4 2 C2.68 1.34 1.36 0.68 0 0 Z " fill="#6B2382" transform="translate(306,2)"/>
<path d="M0 0 C-0.66 0 -1.32 0 -2 0 C-2.33 0.66 -2.66 1.32 -3 2 C-4.65614657 2.38218767 -6.32457024 2.71395102 -8 3 C-8.99 3.495 -8.99 3.495 -10 4 C-10.66 3.34 -11.32 2.68 -12 2 C-10.75579353 1.4654744 -9.50429064 0.94791389 -8.25 0.4375 C-7.55390625 0.14746094 -6.8578125 -0.14257812 -6.140625 -0.44140625 C-3.69987216 -1.07831803 -2.3596345 -0.80248831 0 0 Z " fill="#8270AF" transform="translate(42,3)"/>
<path d="M0 0 C2.31 0 4.62 0 7 0 C7 0.99 7 1.98 7 3 C5.35 3 3.7 3 2 3 C2 2.34 2 1.68 2 1 C1.34 0.67 0.68 0.34 0 0 Z " fill="#3E2582" transform="translate(60,88)"/>
<path d="M0 0 C0.928125 0.20625 1.85625 0.4125 2.8125 0.625 C0.14583333 1.95833333 -2.52083333 3.29166667 -5.1875 4.625 C-5.5175 3.635 -5.8475 2.645 -6.1875 1.625 C-3.1875 -0.375 -3.1875 -0.375 0 0 Z " fill="#6B3487" transform="translate(284.1875,68.375)"/>
<path d="M0 0 C0.66 0.33 1.32 0.66 2 1 C1.3125 2.9375 1.3125 2.9375 0 5 C-2.625 5.75 -2.625 5.75 -5 6 C-3.35 4.02 -1.7 2.04 0 0 Z " fill="#8678AC" transform="translate(20,11)"/>
<path d="M0 0 C1.5 1.375 1.5 1.375 3 3 C3 3.66 3 4.32 3 5 C1.35 5 -0.3 5 -2 5 C-1.34 3.35 -0.68 1.7 0 0 Z " fill="#F3ECF6" transform="translate(74,74)"/>
<path d="M0 0 C2.97 0.33 5.94 0.66 9 1 C8.67 2.32 8.34 3.64 8 5 C7.13375 4.319375 7.13375 4.319375 6.25 3.625 C3.8094951 1.77047097 3.8094951 1.77047097 0 0 Z " fill="#50388A" transform="translate(66,69)"/>
<path d="M0 0 C1.98 0.495 1.98 0.495 4 1 C4 1.66 4 2.32 4 3 C3.34 3 2.68 3 2 3 C1.67 3.99 1.34 4.98 1 6 C0.34 5.67 -0.32 5.34 -1 5 C-0.67 3.35 -0.34 1.7 0 0 Z " fill="#772A87" transform="translate(337,18)"/>
</svg>
