<?xml version="1.0" encoding="UTF-8"?>
<svg version="1.1" xmlns="http://www.w3.org/2000/svg" width="1019" height="245">
<path d="M0 0 C0.66636235 -0.00297112 1.33272469 -0.00594224 2.01927984 -0.0090034 C4.2390523 -0.01763407 6.45877048 -0.01919385 8.67855835 -0.02069092 C10.2757173 -0.02532316 11.87287516 -0.03034836 13.47003174 -0.03573608 C17.80092215 -0.04882469 22.13179709 -0.05529835 26.46270418 -0.05974674 C29.17280438 -0.06268375 31.88290041 -0.06678978 34.5929985 -0.07125092 C43.08472028 -0.08491776 51.57643246 -0.09458787 60.06816447 -0.09845281 C69.84715284 -0.10292891 79.62600112 -0.12045941 89.40494692 -0.1494534 C96.97886869 -0.17112445 104.5527512 -0.18116001 112.12670362 -0.18249393 C116.64307322 -0.18353826 121.15931098 -0.18936621 125.67564774 -0.20731354 C129.92909457 -0.22388785 134.18231179 -0.22590471 138.43577957 -0.21717453 C139.98848082 -0.21640908 141.5411949 -0.22068114 143.09386444 -0.23063278 C157.60186369 -0.31809386 170.58865318 1.22837407 181.61361694 11.43731689 C189.61064493 19.83876229 193.23815651 27.87000964 193.28704834 39.41217041 C193.29362172 40.51328124 193.29362172 40.51328124 193.3003279 41.63663673 C193.313687 44.09754318 193.31988833 46.55841383 193.32601929 49.01934814 C193.33392273 50.78369813 193.34219183 52.5480465 193.35079956 54.31239319 C193.37699858 60.1092271 193.39232827 65.90606815 193.40658569 71.70294189 C193.41194684 73.70117192 193.41732436 75.6994019 193.42271805 77.69763184 C193.44434649 86.01362482 193.4630807 94.32961589 193.47434044 102.64562988 C193.49056268 114.5471826 193.52369905 126.44840797 193.58074129 138.3498373 C193.61951316 146.72625698 193.63898189 155.10258939 193.644261 163.47909641 C193.64790543 168.47737329 193.65982932 173.47530086 193.69236374 178.47348022 C193.72257088 183.18170145 193.72871135 187.88936435 193.71697998 192.59766197 C193.71676028 194.31808243 193.72497897 196.03852975 193.74263382 197.75885963 C193.87884975 211.8060207 191.68854074 222.49108619 181.51596069 232.94903564 C169.97143794 243.56621149 157.82270205 244.59262245 142.66879272 244.54449463 C141.03310686 244.55020784 139.39742497 244.55717576 137.76174927 244.56529236 C133.3483872 244.58313466 128.93522492 244.58207221 124.52183771 244.57634997 C120.82432834 244.57324488 117.12685663 244.57936525 113.42935264 244.58538872 C104.69956341 244.59940327 95.9698721 244.59789853 87.24008179 244.58648682 C78.26330578 244.57501084 69.28682872 244.58907953 60.31009209 244.61588329 C52.57552727 244.63810501 44.84105585 244.64466307 37.10646141 244.63880688 C32.49901341 244.63545128 27.89175694 244.6377587 23.28433609 244.65505791 C18.94865971 244.67062843 14.61342301 244.66646066 10.27776337 244.64775276 C8.69645898 244.64409454 7.11512127 244.64709352 5.53384781 244.65763855 C-7.44761667 244.73752679 -20.04589315 243.48080044 -29.86685181 234.14044189 C-30.55521118 233.49204346 -31.24357056 232.84364502 -31.95278931 232.17559814 C-42.43885684 221.39716813 -43.60463635 209.64514204 -43.49795532 195.33746338 C-43.50310332 193.57030522 -43.5103912 191.80315221 -43.51963806 190.03601074 C-43.53804686 185.26940982 -43.52528094 180.50337309 -43.50554776 175.73679614 C-43.48907512 170.73047482 -43.49798597 165.72418682 -43.50306702 160.71784973 C-43.50757796 152.31443343 -43.49177916 143.91124044 -43.46377563 135.50787354 C-43.4317179 125.81359403 -43.43174685 116.11971688 -43.4489904 106.42540878 C-43.46489189 97.07081241 -43.45809933 87.71636255 -43.44105339 78.36177254 C-43.43420833 74.39352546 -43.43518905 70.42539672 -43.44259834 66.45715141 C-43.4502985 61.77917949 -43.43801408 57.10166175 -43.41074944 52.42376709 C-43.40390387 50.71424265 -43.40372618 49.00467548 -43.41096497 47.29515266 C-43.46252482 33.52494713 -41.73594942 22.45813485 -31.86685181 12.14044189 C-22.63830148 3.47795506 -12.55960216 0.031441 0 0 Z M23.13314819 46.14044189 C22.80314819 47.46044189 22.47314819 48.78044189 22.13314819 50.14044189 C57.11314819 50.14044189 92.09314819 50.14044189 128.13314819 50.14044189 C128.13314819 48.82044189 128.13314819 47.50044189 128.13314819 46.14044189 C93.48314819 46.14044189 58.83314819 46.14044189 23.13314819 46.14044189 Z M11.13314819 60.14044189 C11.13314819 62.45044189 11.13314819 64.76044189 11.13314819 67.14044189 C30.60314819 67.14044189 50.07314819 67.14044189 70.13314819 67.14044189 C70.46314819 112.35044189 70.79314819 157.56044189 71.13314819 204.14044189 C73.77314819 203.81044189 76.41314819 203.48044189 79.13314819 203.14044189 C79.13314819 158.26044189 79.13314819 113.38044189 79.13314819 67.14044189 C99.26314819 66.81044189 119.39314819 66.48044189 140.13314819 66.14044189 C140.13314819 64.16044189 140.13314819 62.18044189 140.13314819 60.14044189 C97.56314819 60.14044189 54.99314819 60.14044189 11.13314819 60.14044189 Z M40.13314819 78.14044189 C40.13314819 78.47044189 40.13314819 78.80044189 40.13314819 79.14044189 C45.41314819 79.47044189 50.69314819 79.80044189 56.13314819 80.14044189 C56.46314819 119.08044189 56.79314819 158.02044189 57.13314819 198.14044189 C58.12314819 198.14044189 59.11314819 198.14044189 60.13314819 198.14044189 C60.13314819 158.54044189 60.13314819 118.94044189 60.13314819 78.14044189 C53.53314819 78.14044189 46.93314819 78.14044189 40.13314819 78.14044189 Z M90.13314819 78.14044189 C90.13314819 117.74044189 90.13314819 157.34044189 90.13314819 198.14044189 C91.45314819 198.14044189 92.77314819 198.14044189 94.13314819 198.14044189 C94.13314819 159.20044189 94.13314819 120.26044189 94.13314819 80.14044189 C99.08314819 80.14044189 104.03314819 80.14044189 109.13314819 80.14044189 C109.13314819 79.48044189 109.13314819 78.82044189 109.13314819 78.14044189 C102.86314819 78.14044189 96.59314819 78.14044189 90.13314819 78.14044189 Z " fill="#1D4ED5" transform="translate(43.866851806640625,0.85955810546875)"/>
<path d="M0 0 C1.48250583 -0.00270279 2.96500992 -0.0065917 4.44750977 -0.01159668 C7.53712026 -0.01745491 10.62626453 -0.00904924 13.71582031 0.00976562 C17.64615507 0.03255371 21.57539672 0.01941059 25.50569153 -0.00452423 C28.56180839 -0.01908289 31.61767251 -0.01433065 34.67379761 -0.00401306 C36.12165461 -0.00137344 37.56953571 -0.0045164 39.0173645 -0.01393127 C52.03031694 -0.08001245 61.77244898 1.92672457 71.3359375 11.15625 C76.71727557 17.23776217 78.57140755 23.63776671 78.55102539 31.6887207 C78.55090454 32.70325317 78.55078369 33.71778564 78.55065918 34.76306152 C78.54554321 35.81707153 78.54042725 36.87108154 78.53515625 37.95703125 C78.53414917 38.93490601 78.53314209 39.91278076 78.53210449 40.92028809 C78.5268857 44.56145404 78.51292444 48.20260324 78.5 51.84375 C78.479375 59.990625 78.45875 68.1375 78.4375 76.53125 C49.3975 76.53125 20.3575 76.53125 -9.5625 76.53125 C-9.5625 79.83125 -9.5625 83.13125 -9.5625 86.53125 C19.4775 86.53125 48.5175 86.53125 78.4375 86.53125 C78.4375 97.42125 78.4375 108.31125 78.4375 119.53125 C66.37141181 119.6218441 54.30555184 119.69513489 42.23919964 119.73849869 C36.63549283 119.75931768 31.03203205 119.78753115 25.4284668 119.83300781 C20.01437291 119.87666869 14.60051475 119.90042983 9.18625832 119.91075897 C7.12711696 119.91811411 5.06798759 119.9324765 3.00894737 119.95417023 C-11.85008432 120.10440768 -23.22734869 119.73362991 -34.4609375 108.91015625 C-40.03255273 102.60325351 -41.67648056 96.10701808 -41.72363281 87.87011719 C-41.72859772 87.20938705 -41.73356262 86.54865692 -41.73867798 85.86790466 C-41.75324893 83.68796738 -41.76009388 81.50810293 -41.765625 79.328125 C-41.7713816 77.80600992 -41.77713926 76.28389485 -41.78289795 74.76177979 C-41.79339421 71.57083805 -41.79924554 68.3799214 -41.80273438 65.18896484 C-41.80820948 61.11599655 -41.83222199 57.04336416 -41.86070633 52.97050095 C-41.879406 49.82534848 -41.88454224 46.68027566 -41.88607025 43.53507233 C-41.88908192 42.03447895 -41.89705984 40.53388647 -41.91025543 39.03334808 C-42.00451057 27.48905455 -41.10775257 18.61935528 -32.9140625 9.74609375 C-23.45939204 0.65803296 -12.52217472 -0.08142865 0 0 Z M-9.5625 33.53125 C-9.5625 38.15125 -9.5625 42.77125 -9.5625 47.53125 C8.9175 47.53125 27.3975 47.53125 46.4375 47.53125 C46.4375 42.91125 46.4375 38.29125 46.4375 33.53125 C27.9575 33.53125 9.4775 33.53125 -9.5625 33.53125 Z " fill="#1D4DD5" transform="translate(373.5625,117.46875)"/>
<path d="M0 0 C0.96989365 -0.01007584 0.96989365 -0.01007584 1.9593811 -0.02035522 C4.07619119 -0.03919895 6.1926818 -0.0432527 8.30957031 -0.04541016 C9.79779179 -0.0518486 11.28601204 -0.05857771 12.77423096 -0.06558228 C15.88760304 -0.07752178 19.00086447 -0.08126665 22.11425781 -0.08007812 C26.07601496 -0.07987536 30.03705134 -0.10714736 33.99863815 -0.14162254 C37.07187058 -0.164019 40.1449332 -0.16791177 43.21823883 -0.16685867 C44.67728401 -0.16919667 46.13633518 -0.17791692 47.59529877 -0.19352341 C59.44235384 -0.30837039 69.56729143 0.92803877 78.41894531 9.43505859 C84.81265818 16.33736226 87.36612136 22.64771715 87.42822266 32.26049805 C87.43493988 32.91845367 87.4416571 33.5764093 87.44857788 34.25430298 C87.46742332 36.40838376 87.47147521 38.56215073 87.47363281 40.71630859 C87.48007032 42.22934593 87.48679938 43.74238206 87.49380493 45.25541687 C87.50574425 48.4200631 87.50948924 51.58460044 87.50830078 54.74926758 C87.50809783 58.78061978 87.5353893 62.81126514 87.5698452 66.84245014 C87.59221441 69.96625398 87.59613527 73.08989041 87.59508133 76.2137661 C87.59742265 77.69875713 87.60616224 79.18375383 87.62174606 80.66866493 C87.73349168 92.41614961 86.35751299 101.75995095 78.05957031 110.53662109 C71.12143208 116.86837732 63.70421657 119.51904988 54.27539062 119.58105469 C53.62879486 119.58777191 52.9821991 119.59448914 52.31600952 119.60140991 C50.19919944 119.62025364 48.08270882 119.62430738 45.96582031 119.62646484 C44.47759883 119.63290328 42.98937859 119.6396324 41.50115967 119.64663696 C38.38778758 119.65857647 35.27452616 119.66232134 32.16113281 119.66113281 C28.19937567 119.66093005 24.23833928 119.68820205 20.27675247 119.72267723 C17.20352004 119.74507369 14.13045742 119.74896646 11.05715179 119.74791336 C9.59810662 119.75025136 8.13905544 119.7589716 6.68009186 119.77457809 C-5.68123321 119.89441048 -15.74361343 118.30844817 -24.91699219 109.51318359 C-30.78157939 102.81248055 -32.96644194 96.44507498 -33.03930664 87.66113281 C-33.04587784 87.00361526 -33.05244904 86.34609772 -33.05921936 85.6686554 C-33.07888411 83.49834053 -33.09060236 81.3280948 -33.10058594 79.15771484 C-33.10466146 78.41261784 -33.10873699 77.66752083 -33.11293602 76.89984512 C-33.13377213 72.95260143 -33.14808196 69.0053922 -33.1574707 65.05810547 C-33.16850358 61.00316788 -33.20287373 56.94878381 -33.2426424 52.89404106 C-33.26893167 49.75738586 -33.27717357 46.62085981 -33.28075218 43.48410416 C-33.2855899 41.99072678 -33.29712255 40.49735407 -33.31579018 39.00408554 C-33.45398406 27.21261518 -32.1158919 17.85682151 -23.78417969 9.04443359 C-16.84604146 2.71267737 -9.42882594 0.06200481 0 0 Z M-0.86230469 33.29052734 C-0.86230469 50.78052734 -0.86230469 68.27052734 -0.86230469 86.29052734 C17.61769531 86.29052734 36.09769531 86.29052734 55.13769531 86.29052734 C55.13769531 68.80052734 55.13769531 51.31052734 55.13769531 33.29052734 C36.65769531 33.29052734 18.17769531 33.29052734 -0.86230469 33.29052734 Z " fill="#1D4DD4" transform="translate(930.8623046875,117.70947265625)"/>
<path d="M0 0 C0.64615768 -0.0065712 1.29231537 -0.0131424 1.95805359 -0.01991272 C4.09109636 -0.03957793 6.22406872 -0.05129695 8.35717773 -0.0612793 C9.45640218 -0.06739259 9.45640218 -0.06739259 10.57783318 -0.07362938 C14.46139109 -0.09446752 18.34491397 -0.10877545 22.22851562 -0.11816406 C26.21385748 -0.12918642 30.19863451 -0.16354359 34.18377781 -0.20333576 C37.26986124 -0.22965708 40.35581367 -0.23786982 43.44199944 -0.24144554 C44.9094312 -0.24627648 46.37685852 -0.25778913 47.84417915 -0.27648354 C59.73351831 -0.41846955 69.87282963 0.78083959 78.75952148 9.3215332 C85.15822661 16.22922623 87.71545499 22.54007639 87.75292969 32.1628418 C87.75804062 32.82240372 87.76315155 33.48196564 87.76841736 34.16151428 C87.78220444 36.32041756 87.78136478 38.47899765 87.77905273 40.63793945 C87.78294591 42.15337236 87.78728185 43.66880418 87.79203796 45.18423462 C87.79947698 48.35308374 87.799226 51.52182141 87.79394531 54.69067383 C87.78815647 58.73097965 87.80507851 62.77082617 87.82828999 66.81105614 C87.84309591 69.93910341 87.84388971 73.06704184 87.84078026 76.19511795 C87.84129012 77.68371108 87.84646424 79.17231084 87.85659218 80.6608696 C87.93136312 93.18694718 86.86945224 101.64641907 78.02514648 110.9387207 C71.19145314 116.94440519 63.8961343 119.27852636 54.95654297 119.35400391 C54.31038528 119.3605751 53.6642276 119.3671463 52.99848938 119.37391663 C50.86544661 119.39358183 48.73247425 119.40530085 46.59936523 119.4152832 C45.50014079 119.42139649 45.50014079 119.42139649 44.37870979 119.42763329 C40.49515188 119.44847143 36.611629 119.46277935 32.72802734 119.47216797 C28.74268549 119.48319033 24.75790845 119.5175475 20.77276516 119.55733967 C17.68668173 119.58366099 14.6007293 119.59187372 11.51454353 119.59544945 C10.04711177 119.60028039 8.57968445 119.61179304 7.11236382 119.63048744 C-5.22937705 119.77787617 -15.38868346 118.2460665 -24.57641602 109.4699707 C-29.99032979 103.08851009 -32.63016217 95.94260516 -32.69873047 87.66113281 C-32.70530167 87.00376129 -32.71187286 86.34638977 -32.71864319 85.6690979 C-32.73835089 83.4933459 -32.75003717 81.31766308 -32.76000977 79.1418457 C-32.76612306 78.02282458 -32.76612306 78.02282458 -32.77235985 76.88119698 C-32.79321645 72.92747399 -32.80751618 68.97378561 -32.81689453 65.02001953 C-32.8279183 60.95720609 -32.8622718 56.89494651 -32.90206623 52.83232784 C-32.92835867 49.69138144 -32.93659779 46.55056402 -32.94017601 43.40951729 C-32.94501469 41.9133489 -32.95655015 40.41718521 -32.975214 38.92112541 C-33.11949459 26.58232938 -31.48846867 17.33890867 -22.81079102 8.1574707 C-16.06953869 2.32502202 -8.74650436 0.0738473 0 0 Z M-0.52172852 33.17700195 C-0.52172852 50.66700195 -0.52172852 68.15700195 -0.52172852 86.17700195 C17.95827148 86.17700195 36.43827148 86.17700195 55.47827148 86.17700195 C55.47827148 68.68700195 55.47827148 51.19700195 55.47827148 33.17700195 C36.99827148 33.17700195 18.51827148 33.17700195 -0.52172852 33.17700195 Z " fill="#1D4DD4" transform="translate(700.521728515625,117.822998046875)"/>
<path d="M0 0 C10.56 0 21.12 0 32 0 C32 26.73 32 53.46 32 81 C46.88866126 81.71309629 46.88866126 81.71309629 52.015625 76.453125 C53.02700364 74.9800015 54.02167239 73.49527746 55 72 C56.23761788 70.61507797 57.50431912 69.25566896 58.796875 67.921875 C59.44035889 67.24157227 60.08384277 66.56126953 60.74682617 65.86035156 C61.40787354 65.16393555 62.0689209 64.46751953 62.75 63.75 C68.44886478 57.72422155 74.09554846 51.65845052 79.66796875 45.515625 C80.43753906 44.68546875 81.20710937 43.8553125 82 43 C82.72388916 42.13391113 83.44777832 41.26782227 84.19360352 40.37548828 C87.76893837 37.34912829 89.60276797 37.40406471 94.234375 37.4765625 C94.91300598 37.48126556 95.59163696 37.48596863 96.29083252 37.49081421 C98.44494654 37.51206191 100.5965496 37.56864713 102.75 37.625 C104.21221645 37.64151673 105.67445914 37.65586233 107.13671875 37.66796875 C117.80385883 37.80385883 117.80385883 37.80385883 119 39 C120.27728667 42.96757173 120.16421596 46.00451955 119 50 C115.33989143 55.25493569 110.54802367 59.60915014 105.9609375 64.04199219 C103.38509258 66.61398874 101.01829505 69.33732456 98.64575195 72.09594727 C96.20606328 74.9185451 93.66704644 77.64482841 91.125 80.375 C86.02970939 85.8696207 80.99416889 91.41308884 76 97 C80.358966 102.20654273 84.9266083 107.19278374 89.54394531 112.16870117 C92.79056875 115.67314471 95.96624911 119.22506961 99.08984375 122.83984375 C101.1784182 125.20176946 103.3115754 127.5174887 105.45605469 129.82861328 C106.52151512 130.97859808 107.58341214 132.13189531 108.64160156 133.28857422 C110.74878899 135.59092127 112.84374006 137.85127764 115.10546875 140.00390625 C118.66086517 143.50863194 119.35341766 145.83005971 119.4375 150.875 C119.2168331 155.7831669 119.2168331 155.7831669 118 157 C90.52487248 160.19194901 90.52487248 160.19194901 82.296875 154.3828125 C79.52837538 151.82896641 77.33229662 148.98321335 75.26464844 145.84472656 C70.03388668 138.21468103 62.97166412 131.67966582 56.609375 125.00390625 C55.92875 124.28589844 55.248125 123.56789063 54.546875 122.828125 C53.93682617 122.1877832 53.32677734 121.54744141 52.69824219 120.88769531 C51.01895852 119.0210735 49.5064984 117.00866453 48 115 C42.72 114.67 37.44 114.34 32 114 C32 128.19 32 142.38 32 157 C26.905625 157.020625 21.81125 157.04125 16.5625 157.0625 C14.95318604 157.071604 13.34387207 157.08070801 11.68579102 157.09008789 C10.42951904 157.09258545 9.17324707 157.09508301 7.87890625 157.09765625 C6.5854126 157.10289307 5.29191895 157.10812988 3.95922852 157.11352539 C1 157 1 157 0 156 C-0.09674566 153.98771955 -0.12187008 151.97198631 -0.12025452 149.9573822 C-0.12162918 148.64339951 -0.12300385 147.32941681 -0.12442017 145.97561646 C-0.12088054 144.50579812 -0.11724573 143.03598 -0.11352539 141.56616211 C-0.11324353 140.02908836 -0.11340123 138.49201447 -0.1139679 136.9549408 C-0.11425591 132.7691714 -0.10835852 128.58343041 -0.10139394 124.39766765 C-0.09516109 120.02809844 -0.09455666 115.65852865 -0.09336853 111.28895569 C-0.09025501 103.00872953 -0.08204135 94.7285165 -0.07201904 86.44829613 C-0.06085854 77.02402841 -0.05534761 67.59976008 -0.05032361 58.1754874 C-0.03985875 38.7836493 -0.02151301 19.39182921 0 0 Z " fill="#1D4DD5" transform="translate(464,80)"/>
<path d="M0 0 C1.3488873 0.00025096 2.69778106 0.00580724 4.04663086 0.01586914 C5.99194702 0.01961548 5.99194702 0.01961548 7.9765625 0.0234375 C10.46884399 0.03709351 10.46884399 0.03709351 13.01147461 0.05102539 C18.27084961 0.07165039 23.53022461 0.09227539 28.94897461 0.11352539 C28.94897461 11.33352539 28.94897461 22.55352539 28.94897461 34.11352539 C43.13897461 34.11352539 57.32897461 34.11352539 71.94897461 34.11352539 C71.94897461 45.00352539 71.94897461 55.89352539 71.94897461 67.11352539 C57.75897461 67.11352539 43.56897461 67.11352539 28.94897461 67.11352539 C28.94897461 84.60352539 28.94897461 102.09352539 28.94897461 120.11352539 C43.13897461 120.11352539 57.32897461 120.11352539 71.94897461 120.11352539 C71.94897461 131.00352539 71.94897461 141.89352539 71.94897461 153.11352539 C65.13503112 153.18261156 58.32231617 153.24228258 51.50830078 153.27832031 C49.19315459 153.29335268 46.87803661 153.31378409 44.56298828 153.33984375 C41.22413137 153.37647135 37.88565291 153.3933078 34.54663086 153.40649414 C33.00858543 153.42971992 33.00858543 153.42971992 31.43946838 153.45341492 C21.29902169 153.45575876 12.69421845 150.85421693 4.94897461 144.11352539 C-3.50833352 133.86717132 -4.20366911 123.9308788 -4.18041992 111.13549805 C-4.18217224 109.94614655 -4.18392456 108.75679504 -4.18572998 107.53140259 C-4.18936381 104.28803783 -4.18853143 101.04471422 -4.18535089 97.80135012 C-4.18281089 94.40389199 -4.18516907 91.00643651 -4.18673706 87.60897827 C-4.18855248 81.911433 -4.18616736 76.21390072 -4.18139648 70.51635742 C-4.17593938 63.92301258 -4.1777295 57.32969859 -4.18322289 50.73635447 C-4.18775324 45.07254764 -4.18840543 39.40875012 -4.18578422 33.74494207 C-4.18422303 30.36302329 -4.1840237 26.98111905 -4.18732071 23.5992012 C-4.18984461 19.837841 -4.1860111 16.07654122 -4.18041992 12.31518555 C-4.18244415 11.18898804 -4.18446838 10.06279053 -4.18655396 8.90246582 C-4.18232422 7.37578781 -4.18232422 7.37578781 -4.17800903 5.81826782 C-4.17763201 4.92861139 -4.17725498 4.03895496 -4.17686653 3.12233925 C-3.96965505 -0.18539692 -3.38317973 0.1258845 0 0 Z " fill="#1C4ED2" transform="translate(253.051025390625,83.886474609375)"/>
<path d="M0 0 C1.07628662 0.0028299 2.15257324 0.00565979 3.26147461 0.00857544 C6.67443299 0.01970519 10.0871219 0.04479655 13.5 0.0703125 C15.82421494 0.08035161 18.14843402 0.08947583 20.47265625 0.09765625 C26.14862301 0.11791309 31.82401244 0.15707606 37.5 0.1953125 C37.5 10.7553125 37.5 21.3153125 37.5 32.1953125 C23.31 32.1953125 9.12 32.1953125 -5.5 32.1953125 C-5.5 34.1753125 -5.5 36.1553125 -5.5 38.1953125 C8.69 38.1953125 22.88 38.1953125 37.5 38.1953125 C37.5 49.0853125 37.5 59.9753125 37.5 71.1953125 C23.31 71.1953125 9.12 71.1953125 -5.5 71.1953125 C-5.5 99.5753125 -5.5 127.9553125 -5.5 157.1953125 C-15.73 157.1953125 -25.96 157.1953125 -36.5 157.1953125 C-38.18201441 155.51329809 -37.63690653 153.43214445 -37.64717102 151.12438965 C-37.65432632 150.02535309 -37.66148163 148.92631653 -37.66885376 147.79397583 C-37.67154266 146.57741302 -37.67423157 145.36085022 -37.67700195 144.10742188 C-37.68357315 142.83426117 -37.69014435 141.56110046 -37.69691467 140.24935913 C-37.71435522 136.74479991 -37.72488649 133.24025437 -37.7331202 129.73566246 C-37.73826795 127.54472491 -37.74434403 125.35379161 -37.75063133 123.16285706 C-37.76969899 116.30443784 -37.78392211 109.44602944 -37.7922433 102.58758879 C-37.80199768 94.67847118 -37.82826313 86.7696348 -37.86874419 78.86061621 C-37.89896718 72.74500469 -37.91371834 66.62947342 -37.91702431 60.5137887 C-37.91936941 56.86312559 -37.92825739 53.21276234 -37.95348549 49.56217957 C-37.98123216 45.48072856 -37.97691628 41.39989889 -37.9699707 37.31835938 C-37.98278076 36.11799042 -37.99559082 34.91762146 -38.00878906 33.68087769 C-37.94369705 23.16693688 -34.78495621 14.88312343 -27.5 7.1953125 C-19.2361617 0.44022476 -10.282156 -0.10299439 0 0 Z " fill="#1C4DD5" transform="translate(623.5,79.8046875)"/>
<path d="M0 0 C10.89 0 21.78 0 33 0 C33 40.92 33 81.84 33 124 C40.59 124 48.18 124 56 124 C56 134.89 56 145.78 56 157 C51.276875 157.0825 46.55375 157.165 41.6875 157.25 C40.22143311 157.28641602 38.75536621 157.32283203 37.24487305 157.36035156 C25.55932674 157.45839661 16.5283484 155.50293556 7.9453125 147.2890625 C2.54313428 140.93228251 -0.12817466 133.81434316 -0.12025452 125.54571533 C-0.12162918 124.43796249 -0.12300385 123.33020966 -0.12442017 122.18888855 C-0.12082489 120.97832291 -0.11722961 119.76775726 -0.11352539 118.52050781 C-0.11367142 117.24220596 -0.11381744 115.96390411 -0.1139679 114.64686584 C-0.11425475 111.1451342 -0.108376 107.64343682 -0.10139394 104.14171314 C-0.09514189 100.48085008 -0.09455513 96.81998623 -0.09336853 93.15911865 C-0.09026068 86.22833949 -0.08205464 79.2975761 -0.07201904 72.36680388 C-0.06084096 64.47569053 -0.05534318 56.58457643 -0.05032361 48.69345713 C-0.03987159 32.46229406 -0.02153288 16.23115272 0 0 Z " fill="#1C4DD5" transform="translate(794,80)"/>
<path d="M0 0 C10.56 0 21.12 0 32 0 C32 39.27 32 78.54 32 119 C21.77 119 11.54 119 1 119 C0 118 0 118 -0.12304783 116.03410244 C-0.12212604 115.16485166 -0.12120424 114.29560087 -0.12025452 113.40000916 C-0.12162918 112.40576431 -0.12300385 111.41151947 -0.12442017 110.387146 C-0.12082489 109.28735413 -0.11722961 108.18756226 -0.11352539 107.05444336 C-0.11367142 105.90337601 -0.11381744 104.75230865 -0.1139679 103.56636047 C-0.11326818 99.74083609 -0.10547302 95.91535969 -0.09765625 92.08984375 C-0.09579228 89.44568407 -0.09436828 86.80152404 -0.09336853 84.15736389 C-0.09025549 77.89584583 -0.08204248 71.63434514 -0.07201904 65.37283474 C-0.06085705 58.24598463 -0.05534724 51.1191337 -0.05032361 43.99227703 C-0.03985984 29.32817443 -0.0215147 14.66409067 0 0 Z " fill="#1D4DD4" transform="translate(860,118)"/>
<path d="M0 0 C17.30649557 -0.04667332 34.61297156 -0.08196589 51.91951561 -0.10362434 C59.95482865 -0.113947 67.99010264 -0.12802617 76.02539062 -0.15087891 C83.027074 -0.17078257 90.0287291 -0.18370923 97.03043997 -0.18817699 C100.73948962 -0.19078952 104.44845837 -0.19695048 108.15748215 -0.21146011 C112.29301325 -0.22750775 116.42840274 -0.22798164 120.56396484 -0.22705078 C122.41865135 -0.23783661 122.41865135 -0.23783661 124.31080627 -0.24884033 C125.43263809 -0.246091 126.55446991 -0.24334167 127.71029663 -0.24050903 C128.68924078 -0.24235262 129.66818493 -0.24419621 130.67679405 -0.24609566 C133 0 133 0 135 2 C135.66 1.34 136.32 0.68 137 0 C139.1640625 -0.1953125 139.1640625 -0.1953125 141.625 -0.125 C142.85089844 -0.09792969 142.85089844 -0.09792969 144.1015625 -0.0703125 C144.72804687 -0.04710937 145.35453125 -0.02390625 146 0 C146.36735794 7.46961145 146.36735794 7.46961145 144.88737488 9.60639954 C142.10782336 11.65876567 139.93693929 11.3598702 136.5090332 11.34057617 C135.8551059 11.34101425 135.20117859 11.34145233 134.5274353 11.34190369 C132.36824577 11.33981539 130.20983495 11.31648388 128.05078125 11.29296875 C126.55291671 11.28737291 125.05504668 11.28310275 123.55717468 11.28010559 C119.61641254 11.2686558 115.67598255 11.23918778 111.73535156 11.20599365 C107.71358738 11.17529548 103.69176947 11.16160082 99.66992188 11.14648438 C91.77979556 11.11431793 83.88993911 11.06312028 76 11 C77.65 12.65 79.3 14.3 81 16 C80.01 17.485 80.01 17.485 79 19 C79.66 19 80.32 19 81 19 C81.33 18.34 81.66 17.68 82 17 C85.4199802 15.2900099 89.18756505 16.05739634 92.9375 16.25 C93.76185547 16.27707031 94.58621094 16.30414063 95.43554688 16.33203125 C96.22896484 16.37199219 97.02238281 16.41195312 97.83984375 16.453125 C98.56550537 16.48567383 99.29116699 16.51822266 100.03881836 16.55175781 C102.47021181 17.1074703 103.41289288 18.12384502 105 20 C104.34 21.32 103.68 22.64 103 24 C94.585 24.495 94.585 24.495 86 25 C86.495 23.515 86.495 23.515 87 22 C91.95 22 96.9 22 102 22 C102 21.34 102 20.68 102 20 C95.73 20 89.46 20 83 20 C83 59.6 83 99.2 83 140 C84.32 140 85.64 140 87 140 C87 140.66 87 141.32 87 142 C85.35 142 83.7 142 82 142 C81.67 141.34 81.34 140.68 81 140 C80.34 140.33 79.68 140.66 79 141 C78.01 137.535 78.01 137.535 77 134 C75.06604999 136.90092502 74.69868059 137.89674737 74.375 141.1875 C74.189375 143.0746875 74.189375 143.0746875 74 145 C73.34 145 72.68 145 72 145 C72 100.12 72 55.24 72 9 C74.65907584 7.67046208 76.66565368 7.88013969 79.64306641 7.88647461 C80.82413971 7.88655014 82.00521301 7.88662567 83.22207642 7.88670349 C84.50230682 7.89186478 85.78253723 7.89702606 87.1015625 7.90234375 C88.40829926 7.9037587 89.71503601 7.90517365 91.06137085 7.90663147 C94.53676258 7.91045106 98.01211257 7.92027658 101.48748779 7.93133545 C105.03331945 7.94156157 108.57915785 7.94613167 112.125 7.95117188 C119.08335049 7.96189934 126.04167324 7.97896908 133 8 C133 6.02 133 4.04 133 2 C90.43 2 47.86 2 4 2 C4.33 3.98 4.66 5.96 5 8 C6.08661171 7.99666908 6.08661171 7.99666908 7.19517517 7.99327087 C14.00843453 7.97326773 20.82168953 7.95802575 27.63497066 7.94818783 C31.13808885 7.94296011 34.64118285 7.9358645 38.14428711 7.92456055 C42.16780841 7.91165794 46.19130414 7.90677088 50.21484375 7.90234375 C51.47836166 7.89718246 52.74187958 7.89202118 54.04368591 7.88670349 C55.204814 7.88662796 56.36594208 7.88655243 57.56225586 7.88647461 C59.1044706 7.88314369 59.1044706 7.88314369 60.67784119 7.87974548 C63 8 63 8 64 9 C64.09634459 10.77160318 64.12187481 12.54708408 64.12025452 14.32130432 C64.12231651 16.05247498 64.12231651 16.05247498 64.12442017 17.81861877 C64.11902725 19.73480263 64.11902725 19.73480263 64.11352539 21.68969727 C64.11324352 23.03958128 64.11340125 24.38946544 64.1139679 25.73934937 C64.11425587 29.41480608 64.10835916 33.09023043 64.10139394 36.7656796 C64.09516038 40.60273149 64.0945566 44.43978404 64.09336853 48.27684021 C64.09025522 55.54771218 64.08204183 62.81856919 64.07201904 70.08943456 C64.0608579 78.36499352 64.05534745 86.64055318 64.05032361 94.91611779 C64.03985922 111.94408719 64.02225978 128.97204202 64 146 C63.67 146 63.34 146 63 146 C62.67 101.12 62.34 56.24 62 10 C42.53 10.33 23.06 10.66 3 11 C1.34623289 9.34623289 1.36528792 7.19051636 0.9375 4.9375 C0.76089844 4.01839844 0.58429687 3.09929688 0.40234375 2.15234375 C0.26957031 1.44207031 0.13679688 0.73179688 0 0 Z " fill="#2250CD" transform="translate(51,59)"/>
<path d="M0 0 C10.56 0 21.12 0 32 0 C32 10.56 32 21.12 32 32 C21.44 32 10.88 32 0 32 C0 21.44 0 10.88 0 0 Z " fill="#1D4DD2" transform="translate(860,80)"/>
<path d="M0 0 C17.30649557 -0.04667332 34.61297156 -0.08196589 51.91951561 -0.10362434 C59.95482865 -0.113947 67.99010264 -0.12802617 76.02539062 -0.15087891 C83.027074 -0.17078257 90.0287291 -0.18370923 97.03043997 -0.18817699 C100.73948962 -0.19078952 104.44845837 -0.19695048 108.15748215 -0.21146011 C112.29301325 -0.22750775 116.42840274 -0.22798164 120.56396484 -0.22705078 C122.41865135 -0.23783661 122.41865135 -0.23783661 124.31080627 -0.24884033 C125.43263809 -0.246091 126.55446991 -0.24334167 127.71029663 -0.24050903 C128.68924078 -0.24235262 129.66818493 -0.24419621 130.67679405 -0.24609566 C133 0 133 0 135 2 C135.66 1.34 136.32 0.68 137 0 C139.1640625 -0.1953125 139.1640625 -0.1953125 141.625 -0.125 C142.85089844 -0.09792969 142.85089844 -0.09792969 144.1015625 -0.0703125 C144.72804687 -0.04710937 145.35453125 -0.02390625 146 0 C146.36710432 7.46445449 146.36710432 7.46445449 144.89884949 9.60639954 C142.07068159 11.68204383 139.80386557 11.35958396 136.32543945 11.34057617 C135.64113704 11.34093778 134.95683462 11.34129938 134.25179577 11.34167194 C132.03865906 11.3394343 129.82628219 11.31659704 127.61328125 11.29296875 C126.24621953 11.2885574 124.87915276 11.28549717 123.51208496 11.28381348 C118.44547932 11.26809055 113.37898218 11.22620681 108.3125 11.1875 C91.3278125 11.0946875 91.3278125 11.0946875 74 11 C73.67 55.22 73.34 99.44 73 145 C72.67 145 72.34 145 72 145 C72 100.12 72 55.24 72 9 C74.65907584 7.67046208 76.66565368 7.88013969 79.64306641 7.88647461 C80.82413971 7.88655014 82.00521301 7.88662567 83.22207642 7.88670349 C84.50230682 7.89186478 85.78253723 7.89702606 87.1015625 7.90234375 C88.40829926 7.9037587 89.71503601 7.90517365 91.06137085 7.90663147 C94.53676258 7.91045106 98.01211257 7.92027658 101.48748779 7.93133545 C105.03331945 7.94156157 108.57915785 7.94613167 112.125 7.95117188 C119.08335049 7.96189934 126.04167324 7.97896908 133 8 C133 6.02 133 4.04 133 2 C90.43 2 47.86 2 4 2 C4.33 3.98 4.66 5.96 5 8 C6.08661171 7.99666908 6.08661171 7.99666908 7.19517517 7.99327087 C14.00843453 7.97326773 20.82168953 7.95802575 27.63497066 7.94818783 C31.13808885 7.94296011 34.64118285 7.9358645 38.14428711 7.92456055 C42.16780841 7.91165794 46.19130414 7.90677088 50.21484375 7.90234375 C51.47836166 7.89718246 52.74187958 7.89202118 54.04368591 7.88670349 C55.204814 7.88662796 56.36594208 7.88655243 57.56225586 7.88647461 C59.1044706 7.88314369 59.1044706 7.88314369 60.67784119 7.87974548 C63 8 63 8 64 9 C64.09634459 10.77160318 64.12187481 12.54708408 64.12025452 14.32130432 C64.12231651 16.05247498 64.12231651 16.05247498 64.12442017 17.81861877 C64.11902725 19.73480263 64.11902725 19.73480263 64.11352539 21.68969727 C64.11324352 23.03958128 64.11340125 24.38946544 64.1139679 25.73934937 C64.11425587 29.41480608 64.10835916 33.09023043 64.10139394 36.7656796 C64.09516038 40.60273149 64.0945566 44.43978404 64.09336853 48.27684021 C64.09025522 55.54771218 64.08204183 62.81856919 64.07201904 70.08943456 C64.0608579 78.36499352 64.05534745 86.64055318 64.05032361 94.91611779 C64.03985922 111.94408719 64.02225978 128.97204202 64 146 C63.67 146 63.34 146 63 146 C62.67 101.12 62.34 56.24 62 10 C42.53 10.33 23.06 10.66 3 11 C1.34623289 9.34623289 1.36528792 7.19051636 0.9375 4.9375 C0.76089844 4.01839844 0.58429687 3.09929688 0.40234375 2.15234375 C0.26957031 1.44207031 0.13679688 0.73179688 0 0 Z " fill="#2D52AF" transform="translate(51,59)"/>
<path d="M0 0 C1.59804643 -0.00407429 3.19609005 -0.00942095 4.79412842 -0.01593018 C9.09994275 -0.02950774 13.40553939 -0.02434502 17.71135712 -0.01479292 C22.23807826 -0.00714639 26.76478196 -0.0142557 31.29150391 -0.01895142 C38.89033318 -0.02439452 46.4890747 -0.01725544 54.08789062 -0.00292969 C62.84710791 0.01339403 71.60611562 0.0081045 80.36532784 -0.0084089 C87.91390832 -0.02206511 95.46242608 -0.02392329 103.01101494 -0.0160929 C107.50715439 -0.01143903 112.00319565 -0.01072806 116.49932861 -0.02070236 C120.72826089 -0.02943022 124.95692551 -0.02324503 129.18582916 -0.00601959 C130.72884936 -0.00208559 132.27189247 -0.00313518 133.81490326 -0.00980759 C142.8542138 -0.04526333 151.09363763 0.67337709 159.7734375 3.38818359 C159.7734375 3.71818359 159.7734375 4.04818359 159.7734375 4.38818359 C158.14852796 4.41516549 156.52349117 4.43457116 154.8984375 4.45068359 C153.54105469 4.46808594 153.54105469 4.46808594 152.15625 4.48583984 C149.7734375 4.38818359 149.7734375 4.38818359 147.7734375 3.38818359 C145.57215415 3.28723382 143.3677293 3.25304793 141.16413879 3.2477417 C140.47724856 3.24477058 139.79035832 3.24179945 139.08265322 3.2387383 C136.76968958 3.23003285 134.45677758 3.22854148 132.14379883 3.22705078 C130.48985686 3.2224238 128.83591596 3.21739931 127.18197632 3.21200562 C122.67970262 3.19886551 118.17744385 3.19243319 113.67515397 3.18799496 C110.86259843 3.18506602 108.05004699 3.18096149 105.23749352 3.17649078 C96.43875516 3.16280983 87.64002615 3.15314686 78.8412779 3.14928889 C68.68298824 3.14481053 58.5248333 3.12727544 48.3665846 3.0982883 C40.5168155 3.07666614 32.66708428 3.06658428 24.81728572 3.06524777 C20.12831396 3.06419986 15.43946874 3.05829539 10.75052834 3.04042816 C6.33710115 3.0239389 1.92389548 3.02179612 -2.48955154 3.03056717 C-4.10723908 3.03133716 -5.72493857 3.02699977 -7.34259605 3.01710892 C-9.55610827 3.00437155 -11.76883813 3.01027534 -13.98234558 3.02069092 C-15.83816647 3.01849108 -15.83816647 3.01849108 -17.73147869 3.0162468 C-22.89952811 3.5662158 -27.5181372 5.32358332 -31.4140625 8.88818359 C-34.2265625 11.38818359 -34.2265625 11.38818359 -36.4765625 12.88818359 C-38.45008343 14.32875028 -38.45008343 14.32875028 -39.1640625 17.01318359 C-39.5146875 17.79693359 -39.8653125 18.58068359 -40.2265625 19.38818359 C-41.89322917 19.72151693 -43.55989583 20.05485026 -45.2265625 20.38818359 C-46.60122875 22.86454371 -46.60122875 22.86454371 -47.2265625 25.38818359 C-47.8865625 25.38818359 -48.5465625 25.38818359 -49.2265625 25.38818359 C-46.84211604 16.8439171 -40.77222161 10.71743933 -33.4140625 5.95068359 C-22.77692817 0.32173103 -11.77910846 -0.05093615 0 0 Z " fill="#2C50B1" transform="translate(53.2265625,0.61181640625)"/>
<path d="M0 0 C0.88052536 -0.00281982 1.76105072 -0.00563965 2.66825867 -0.00854492 C3.6417778 -0.00652069 4.61529694 -0.00449646 5.61831665 -0.00241089 C6.63776871 -0.00416321 7.65722076 -0.00591553 8.70756531 -0.00772095 C12.09661534 -0.01214245 15.48561369 -0.00919999 18.87466431 -0.00582886 C21.22017426 -0.00650192 23.56568414 -0.00747196 25.91119385 -0.00872803 C30.83587302 -0.01020549 35.7605341 -0.00804928 40.68521118 -0.00338745 C47.0062371 0.0023036 53.32722051 -0.00096492 59.64824486 -0.00695992 C64.4951408 -0.01056956 69.34202664 -0.00942496 74.18892288 -0.00683212 C76.51979197 -0.00616365 78.85066197 -0.00698851 81.18153 -0.00931168 C84.43782744 -0.0118441 87.69405563 -0.0079889 90.9503479 -0.00241089 C91.91981857 -0.00443512 92.88928925 -0.00645935 93.88813782 -0.00854492 C94.77430283 -0.0057251 95.66046783 -0.00290527 96.57348633 0 C97.34372824 0.00037703 98.11397015 0.00075405 98.90755272 0.0011425 C100.91372681 0.12698364 100.91372681 0.12698364 103.91372681 1.12698364 C104.03872681 3.50198364 104.03872681 3.50198364 103.91372681 6.12698364 C101.91372681 8.12698364 101.91372681 8.12698364 100.01218987 8.3730793 C99.232353 8.37123571 98.45251614 8.36939213 97.64904785 8.36749268 C96.30707336 8.37161667 96.30707336 8.37161667 94.93798828 8.37582397 C93.95400055 8.36863342 92.97001282 8.36144287 91.95620728 8.35403442 C90.92203674 8.35432648 89.88786621 8.35461853 88.82235718 8.35491943 C85.39179192 8.35352209 81.96144179 8.33794182 78.53091431 8.32229614 C76.15722777 8.31856745 73.7835397 8.3157198 71.40985107 8.3137207 C65.15279921 8.30607292 58.89583974 8.2864146 52.63882446 8.26431274 C46.25781504 8.24387895 39.87679074 8.23472427 33.49575806 8.22463989 C20.96837482 8.2031698 8.44105572 8.16940282 -4.08627319 8.12698364 C-4.41627319 7.46698364 -4.74627319 6.80698364 -5.08627319 6.12698364 C29.89372681 6.12698364 64.87372681 6.12698364 100.91372681 6.12698364 C100.91372681 4.80698364 100.91372681 3.48698364 100.91372681 2.12698364 C87.25787203 2.21121882 73.60213621 2.30603595 59.94645119 2.41451073 C53.6061384 2.4645397 47.26584282 2.51086902 40.92544556 2.54885864 C34.81107361 2.5856282 28.69684335 2.63196513 22.58259201 2.68504715 C20.24533946 2.70363552 17.9080565 2.71872688 15.57075882 2.73032761 C12.30684019 2.74711421 9.04324923 2.77613056 5.77944946 2.80813599 C4.31749397 2.81137627 4.31749397 2.81137627 2.82600403 2.81468201 C1.93976852 2.82584549 1.05353302 2.83700897 0.14044189 2.84851074 C-1.01825189 2.85680688 -1.01825189 2.85680688 -2.20035362 2.86527061 C-4.32881552 2.96739286 -4.32881552 2.96739286 -6.08627319 5.12698364 C-5.06252372 0.59323599 -4.67148198 0.00228888 0 0 Z " fill="#2E53B4" transform="translate(71.08627319335938,44.873016357421875)"/>
<path d="M0 0 C0.95656243 3.21165474 1.11134531 6.07180603 1.08229065 9.4163208 C1.07525116 10.51565948 1.06821167 11.61499817 1.06095886 12.74765015 C1.04801285 13.94886505 1.03506683 15.15007996 1.02172852 16.38769531 C1.01212097 17.65624359 1.00251343 18.92479187 0.99261475 20.23178101 C0.96618035 23.7066905 0.93339143 27.18151443 0.89946485 30.65635777 C0.86507561 34.28916512 0.83652591 37.92201825 0.80735779 41.55487061 C0.75124907 48.43255814 0.68988574 55.31018835 0.62663645 62.18781352 C0.55487872 70.01843708 0.48897596 77.84910649 0.42356598 85.67978525 C0.288894 101.78658508 0.14609328 117.89329911 0 134 C9.9 134.33 19.8 134.66 30 135 C30 106.29 30 77.58 30 48 C43.86 48 57.72 48 72 48 C72 46.35 72 44.7 72 43 C72.66 43 73.32 43 74 43 C74 45.31 74 47.62 74 50 C59.81 50 45.62 50 31 50 C31 78.38 31 106.76 31 136 C20.77 136 10.54 136 0 136 C-1.6883816 134.3116184 -1.126083 132.20249631 -1.12698364 129.88870239 C-1.12980347 128.78099487 -1.13262329 127.67328735 -1.13552856 126.53201294 C-1.13350433 125.30602386 -1.1314801 124.08003479 -1.12939453 122.81689453 C-1.13114685 121.53409607 -1.13289917 120.25129761 -1.13470459 118.92962646 C-1.1392791 115.40066164 -1.13748905 111.87172592 -1.1343255 108.34276056 C-1.13180091 104.65525386 -1.13413982 100.96774972 -1.13571167 97.28024292 C-1.13753353 91.08444774 -1.1351271 84.88866447 -1.13037109 78.69287109 C-1.12493323 71.52597445 -1.1266876 64.35910627 -1.1321975 57.19221032 C-1.13673388 51.04611947 -1.13737645 44.90003721 -1.13475883 38.75394523 C-1.13319833 35.08012098 -1.13299599 31.40631012 -1.13629532 27.73248672 C-1.13971716 23.63560549 -1.13497567 19.53877338 -1.12939453 15.44189453 C-1.13141876 14.21995392 -1.13344299 12.99801331 -1.13552856 11.73904419 C-1.13270874 10.62569702 -1.12988892 9.51234985 -1.12698364 8.36526489 C-1.12660662 7.3959157 -1.12622959 6.42656651 -1.12584114 5.42784309 C-1 3 -1 3 0 0 Z " fill="#294EB3" transform="translate(587,101)"/>
<path d="M0 0 C29.04 0 58.08 0 88 0 C88 10.89 88 21.78 88 33 C75.93391181 33.0905941 63.86805184 33.16388489 51.80169964 33.20724869 C46.19799283 33.22806768 40.59453205 33.25628115 34.9909668 33.30175781 C29.57687291 33.34541869 24.16301475 33.36917983 18.74875832 33.37950897 C16.68961696 33.38686411 14.63048759 33.4012265 12.57144737 33.42292023 C-12.47140755 33.6761248 -12.47140755 33.6761248 -20.1875 26.25 C-20.785625 25.5075 -21.38375 24.765 -22 24 C-19.03 23.67 -16.06 23.34 -13 23 C-13.33 23.99 -13.66 24.98 -14 26 C-10.9344876 29.20485388 -9.74191079 29.96978566 -5.11495972 30.15821838 C-3.39684311 30.17896874 -1.67865524 30.19421694 0.03955078 30.20532227 C0.97618561 30.21522186 1.91282043 30.22512146 2.87783813 30.23532104 C5.98363693 30.26698922 9.08945104 30.29171448 12.1953125 30.31640625 C14.34480189 30.33697119 16.49428719 30.35796753 18.64376831 30.37937927 C24.30890601 30.4346475 29.97408049 30.48403581 35.63928223 30.53222656 C41.41710698 30.58240694 47.19487813 30.63811106 52.97265625 30.69335938 C64.31506014 30.80099906 75.6575094 30.90192085 87 31 C87 21.1 87 11.2 87 1 C58.29 1 29.58 1 0 1 C0 0.67 0 0.34 0 0 Z " fill="#2E52B4" transform="translate(364,204)"/>
<path d="M0 0 C10.89 0 21.78 0 33 0 C33 40.92 33 81.84 33 124 C32.67 124 32.34 124 32 124 C32 83.41 32 42.82 32 1 C21.77 1 11.54 1 1 1 C1 43.57 1 86.14 1 130 C1.66 130 2.32 130 3 130 C4.80230168 133.82989106 5.19622241 136.78121808 5 141 C5.66 141 6.32 141 7 141 C6.67 141.99 6.34 142.98 6 144 C-0.08840849 135.67917507 -0.28764182 128.28985214 -0.22705078 118.17993164 C-0.22734283 116.90119171 -0.22763489 115.62245178 -0.22793579 114.30496216 C-0.22850731 110.81576158 -0.21678566 107.32669979 -0.20278788 103.83753133 C-0.19024695 100.18469915 -0.18910737 96.53186345 -0.18673706 92.87901306 C-0.18053214 85.96956043 -0.16413476 79.06017143 -0.14403808 72.15074676 C-0.12164825 64.28133563 -0.11067791 56.41192139 -0.10064721 48.54248631 C-0.0797676 32.36161447 -0.04310379 16.18083022 0 0 Z " fill="#274BA8" transform="translate(794,80)"/>
<path d="M0 0 C1.49927104 0.00239022 2.99854513 0.00328853 4.49781799 0.0027771 C7.61682283 0.00588246 10.73536059 0.02228195 13.85424805 0.04931641 C17.84779671 0.08350091 21.84083955 0.09093782 25.83451748 0.08942604 C28.92034207 0.08996978 32.00605659 0.10093425 35.09184456 0.11542892 C36.56501498 0.12177832 38.03819779 0.12573146 39.51138115 0.12721634 C41.56436346 0.1315576 43.61681072 0.14906929 45.66967773 0.17041016 C46.83562973 0.17803375 48.00158173 0.18565735 49.2028656 0.19351196 C52.08252932 0.45119479 53.75615682 0.95940376 56.19140625 2.4609375 C54.54140625 2.7909375 52.89140625 3.1209375 51.19140625 3.4609375 C51.19140625 2.8009375 51.19140625 2.1409375 51.19140625 1.4609375 C29.41140625 1.4609375 7.63140625 1.4609375 -14.80859375 1.4609375 C-14.80859375 2.1209375 -14.80859375 2.7809375 -14.80859375 3.4609375 C-16.74554053 4.27475545 -18.68317086 5.08694666 -20.62109375 5.8984375 C-22.23951172 6.57712891 -22.23951172 6.57712891 -23.890625 7.26953125 C-25.83810635 8.06468763 -27.81298318 8.79573398 -29.80859375 9.4609375 C-30.26234375 10.6159375 -30.71609375 11.7709375 -31.18359375 12.9609375 C-31.98796875 14.6934375 -31.98796875 14.6934375 -32.80859375 16.4609375 C-35.49609375 17.3984375 -35.49609375 17.3984375 -37.80859375 17.4609375 C-36.48509833 13.51788119 -34.94365254 11.19318808 -31.87109375 8.3984375 C-31.18144531 7.74746094 -30.49179687 7.09648438 -29.78125 6.42578125 C-20.46476545 0.26784205 -10.82359992 -0.11504641 0 0 Z " fill="#2C53B3" transform="translate(373.80859375,117.5390625)"/>
<path d="M0 0 C0.68287582 -0.00095673 1.36575165 -0.00191345 2.06932068 -0.00289917 C3.5126047 -0.00357973 4.95589178 -0.0017341 6.39916992 0.00244141 C8.61579203 0.00779968 10.83221227 0.00248807 13.04882812 -0.00390625 C14.4492192 -0.00324561 15.84961015 -0.00196473 17.25 0 C18.53076416 0.00112793 19.81152832 0.00225586 21.13110352 0.00341797 C24.05859375 0.1328125 24.05859375 0.1328125 25.05859375 1.1328125 C25.80750868 5.97522835 26.14921393 10.38236711 23.49609375 14.640625 C21.76394429 16.58929314 20.00515255 18.39977928 18.05859375 20.1328125 C17.56359375 19.1428125 17.56359375 19.1428125 17.05859375 18.1328125 C17.8359375 16.40625 17.8359375 16.40625 18.99609375 14.5078125 C19.67671875 13.3940625 20.35734375 12.2803125 21.05859375 11.1328125 C21.71859375 11.1328125 22.37859375 11.1328125 23.05859375 11.1328125 C22.56359375 6.6778125 22.56359375 6.6778125 22.05859375 2.1328125 C18.16282351 2.07459315 14.26716573 2.0391422 10.37109375 2.0078125 C9.26830078 1.99105469 8.16550781 1.97429687 7.02929688 1.95703125 C5.42924805 1.94736328 5.42924805 1.94736328 3.796875 1.9375 C2.81759033 1.92702637 1.83830566 1.91655273 0.8293457 1.90576172 C-2.14868526 2.14979809 -4.27979259 2.78888483 -6.94140625 4.1328125 C-7.27140625 4.7928125 -7.60140625 5.4528125 -7.94140625 6.1328125 C-8.60140625 6.1328125 -9.26140625 6.1328125 -9.94140625 6.1328125 C-9.94140625 6.7928125 -9.94140625 7.4528125 -9.94140625 8.1328125 C-10.68390625 8.5659375 -11.42640625 8.9990625 -12.19140625 9.4453125 C-15.21319121 11.29958964 -16.86621503 13.28903193 -18.94140625 16.1328125 C-19.60140625 15.8028125 -20.26140625 15.4728125 -20.94140625 15.1328125 C-20.49410156 14.62492188 -20.04679688 14.11703125 -19.5859375 13.59375 C-16.71957988 10.330136 -13.86848815 7.06647466 -11.12890625 3.6953125 C-7.59546391 -0.44386281 -5.3096811 0.00467196 0 0 Z " fill="#284DB1" transform="translate(557.94140625,117.8671875)"/>
<path d="M0 0 C0.33 0 0.66 0 1 0 C1.01030746 0.84968857 1.02061493 1.69937714 1.03123474 2.57481384 C1.12903689 10.56543941 1.23152618 18.55598793 1.33933926 26.54648495 C1.39460583 30.65490417 1.44803165 34.76333046 1.49731445 38.87182617 C1.54490313 42.83353126 1.59724367 46.79514718 1.65294075 50.75674629 C1.67338931 52.27145747 1.69209817 53.78619312 1.70907402 55.30094719 C1.73306299 57.41548426 1.7631245 59.52985135 1.79467773 61.64428711 C1.81022202 62.85007919 1.8257663 64.05587128 1.84178162 65.29820251 C1.69482383 67.91634376 1.69482383 67.91634376 3 69 C3.04063832 70.66617115 3.042721 72.33388095 3 74 C3.66 74 4.32 74 5 74 C6.95582488 76.93373731 8.56224304 79.78216298 10 83 C9.505 83.99 9.505 83.99 9 85 C2.66253653 77.80612255 -0.13110601 71.84609356 -0.11352539 62.21191406 C-0.11367142 61.53833359 -0.11381744 60.86475311 -0.1139679 60.17076111 C-0.11327324 57.95234924 -0.10550181 55.73402214 -0.09765625 53.515625 C-0.09579048 51.97434536 -0.09436733 50.43306512 -0.09336853 48.89178467 C-0.08955585 44.84102737 -0.07973624 40.79030609 -0.06866455 36.73956299 C-0.05842356 32.60372403 -0.05386515 28.46787924 -0.04882812 24.33203125 C-0.03811284 16.22133766 -0.02105143 8.11067332 0 0 Z " fill="#2C4EB3" transform="translate(332,143)"/>
<path d="M0 0 C-2.4283364 1.26273493 -4.81702037 2.31773014 -7.375 3.3125 C-11.3466639 5.16137802 -13.74376193 7.10556616 -17 10 C-17.7425 10.495 -18.485 10.99 -19.25 11.5 C-21.22352093 12.94056669 -21.22352093 12.94056669 -21.9375 15.625 C-22.288125 16.40875 -22.63875 17.1925 -23 18 C-24.66666667 18.33333333 -26.33333333 18.66666667 -28 19 C-29.37466625 21.47636012 -29.37466625 21.47636012 -30 24 C-30.66 24 -31.32 24 -32 24 C-29.56944134 15.29049814 -23.40550778 9.18675821 -15.8125 4.5 C-10.59011309 1.63819665 -6.05031078 -0.35590063 0 0 Z " fill="#274DC0" transform="translate(36,2)"/>
<path d="M0 0 C0.66 0.33 1.32 0.66 2 1 C2.02687279 2.81242052 2.04633715 4.62495233 2.0625 6.4375 C2.07410156 7.44683594 2.08570313 8.45617187 2.09765625 9.49609375 C2 12 2 12 1 13 C-3.34327888 13.3148104 -7.6922962 13.35681289 -12.04541016 13.4050293 C-13.50821593 13.4265745 -14.97089398 13.46063762 -16.43310547 13.50756836 C-18.5445292 13.57473047 -20.65328243 13.6020505 -22.765625 13.62109375 C-24.66489746 13.65867798 -24.66489746 13.65867798 -26.60253906 13.69702148 C-31.30048341 12.73319344 -32.32225077 10.87201006 -35 7 C-34.01 7 -33.02 7 -32 7 C-31.01 8.485 -31.01 8.485 -30 10 C-26.89786275 10.51220541 -26.89786275 10.51220541 -23.2421875 10.51171875 C-22.57913605 10.52966995 -21.91608459 10.54762115 -21.23294067 10.56611633 C-19.11369197 10.62032924 -16.99466975 10.65414771 -14.875 10.6875 C-13.43877048 10.72066367 -12.0025709 10.75515245 -10.56640625 10.79101562 C-7.04448871 10.87605964 -3.52249241 10.94281873 0 11 C0 7.37 0 3.74 0 0 Z " fill="#2C4FB1" transform="translate(581,224)"/>
<path d="M0 0 C0.99 0.33 1.98 0.66 3 1 C2.505 1.61875 2.01 2.2375 1.5 2.875 C-0.19222773 4.83880904 -0.19222773 4.83880904 0 7 C-0.66 7 -1.32 7 -2 7 C-1.34 8.32 -0.68 9.64 0 11 C0.12375 10.05125 0.2475 9.1025 0.375 8.125 C1 5 1 5 3 3 C5.125 3.375 5.125 3.375 7 4 C6.67 4.66 6.34 5.32 6 6 C5.01 6 4.02 6 3 6 C3.66 7.32 4.32 8.64 5 10 C5.66 9.67 6.32 9.34 7 9 C7 9.66 7 10.32 7 11 C7.99 10.67 8.98 10.34 10 10 C9.67 11.32 9.34 12.64 9 14 C7.68 14.33 6.36 14.66 5 15 C4.67 14.01 4.34 13.02 4 12 C3.34 12 2.68 12 2 12 C1.67 12.66 1.34 13.32 1 14 C-0.32 14 -1.64 14 -3 14 C-3.92053993 9.30524633 -4.31904262 6.27192062 -2 2 C-1.34 1.34 -0.68 0.68 0 0 Z " fill="#194CCA" transform="translate(43,56)"/>
<path d="M0 0 C0.33 0 0.66 0 1 0 C1.01030746 0.79291443 1.02061493 1.58582886 1.03123474 2.402771 C1.12923644 9.87739967 1.23175469 17.35194632 1.33933926 24.82644272 C1.39448957 28.66909719 1.4478968 32.51175938 1.49731445 36.35449219 C1.5450746 40.06334191 1.59742136 43.77210119 1.65294075 47.48084259 C1.67331159 48.8953857 1.69203325 50.30995356 1.70907402 51.72454071 C1.73323472 53.70671809 1.76381723 55.68881404 1.79467773 57.67089844 C1.81022202 58.79896912 1.8257663 59.92703979 1.84178162 61.08929443 C1.9773803 63.58387088 2.36108636 65.60761255 3 68 C3.03888349 70.33300933 3.0448635 72.66709801 3 75 C0.09975444 72.09975444 0.03702487 69.95461303 -0.12025452 65.8994751 C-0.11803391 64.68257996 -0.11581329 63.46568481 -0.11352539 62.21191406 C-0.11367142 61.53833359 -0.11381744 60.86475311 -0.1139679 60.17076111 C-0.11327324 57.95234924 -0.10550181 55.73402214 -0.09765625 53.515625 C-0.09579048 51.97434536 -0.09436733 50.43306512 -0.09336853 48.89178467 C-0.08955585 44.84102737 -0.07973624 40.79030609 -0.06866455 36.73956299 C-0.05842356 32.60372403 -0.05386515 28.46787924 -0.04882812 24.33203125 C-0.03811284 16.22133766 -0.02105143 8.11067332 0 0 Z " fill="#1C44AC" transform="translate(898,143)"/>
<path d="M0 0 C0 0.66 0 1.32 0 2 C-1.93694678 2.81381795 -3.87457711 3.62600916 -5.8125 4.4375 C-7.43091797 5.11619141 -7.43091797 5.11619141 -9.08203125 5.80859375 C-11.0295126 6.60375013 -13.00438943 7.33479648 -15 8 C-15.45375 9.155 -15.9075 10.31 -16.375 11.5 C-17.179375 13.2325 -17.179375 13.2325 -18 15 C-20.6875 15.9375 -20.6875 15.9375 -23 16 C-20.84985262 9.46992276 -15.84074523 5.2968417 -10.02734375 1.8203125 C-6.64470608 0.25909512 -3.70424008 -0.3367491 0 0 Z " fill="#224ABC" transform="translate(359,119)"/>
<path d="M0 0 C3.43260721 1.42838339 5.07954379 3.12608264 7.3125 6.0625 C9.97089805 9.24226491 10.60078241 9.90837629 14.8125 10.875 C15.864375 10.91625 16.91625 10.9575 18 11 C20 13 20 13 20 16 C20.99 16.33 21.98 16.66 23 17 C21.02 17 19.04 17 17 17 C16.773125 16.360625 16.54625 15.72125 16.3125 15.0625 C15.879375 14.381875 15.44625 13.70125 15 13 C14.2575 12.90589844 13.515 12.81179687 12.75 12.71484375 C8.96496339 11.73094929 7.13111219 9.37441196 4.6875 6.5 C4.23310547 5.98824219 3.77871094 5.47648438 3.31054688 4.94921875 C0 1.17569314 0 1.17569314 0 0 Z " fill="#1C4CC1" transform="translate(534,218)"/>
<path d="M0 0 C0.66 0 1.32 0 2 0 C0.33248852 3.94139078 -2.22710649 6.7892812 -5 10 C-2.36 12.64 0.28 15.28 3 18 C2.67 18.66 2.34 19.32 2 20 C1.52949219 19.51789063 1.05898438 19.03578125 0.57421875 18.5390625 C-0.04839844 17.90742188 -0.67101562 17.27578125 -1.3125 16.625 C-1.92738281 15.99851563 -2.54226563 15.37203125 -3.17578125 14.7265625 C-5.08812528 12.81913393 -5.08812528 12.81913393 -8 11 C-8 10.01 -8 9.02 -8 8 C-7.34 8 -6.68 8 -6 8 C-6 6.68 -6 5.36 -6 4 C-4.35 3.67 -2.7 3.34 -1 3 C-0.67 2.01 -0.34 1.02 0 0 Z " fill="#2246B6" transform="translate(545,168)"/>
<path d="M0 0 C0 3.59462316 -1.05541784 5.04423511 -3 8 C-4 9 -4 9 -7.81640625 9.09765625 C-9.39846682 9.09098089 -10.98051159 9.07901875 -12.5625 9.0625 C-13.36880859 9.05798828 -14.17511719 9.05347656 -15.00585938 9.04882812 C-17.00393756 9.03700518 -19.00197783 9.01906914 -21 9 C-21 8.34 -21 7.68 -21 7 C-19.90300781 6.99742187 -18.80601562 6.99484375 -17.67578125 6.9921875 C-16.22131393 6.95465286 -14.76688762 6.91550514 -13.3125 6.875 C-12.59126953 6.87757813 -11.87003906 6.88015625 -11.12695312 6.8828125 C-6.89949758 6.73514971 -6.89949758 6.73514971 -3.36474609 4.60644531 C-1.8028678 2.78994143 -1.8028678 2.78994143 0 0 Z " fill="#2246B5" transform="translate(517,154)"/>
<path d="M0 0 C1.051875 0.12375 2.10375 0.2475 3.1875 0.375 C2.8575 1.035 2.5275 1.695 2.1875 2.375 C0.85416667 2.70833333 -0.47916667 3.04166667 -1.8125 3.375 C-2.1425 4.035 -2.4725 4.695 -2.8125 5.375 C-3.4725 5.375 -4.1325 5.375 -4.8125 5.375 C-4.8125 6.035 -4.8125 6.695 -4.8125 7.375 C-5.555 7.808125 -6.2975 8.24125 -7.0625 8.6875 C-10.08428496 10.54177714 -11.73730878 12.53121943 -13.8125 15.375 C-14.4725 15.045 -15.1325 14.715 -15.8125 14.375 C-15.36519531 13.86710938 -14.91789063 13.35921875 -14.45703125 12.8359375 C-13.85246094 12.14757812 -13.24789062 11.45921875 -12.625 10.75 C-11.66013672 9.66332031 -11.66013672 9.66332031 -10.67578125 8.5546875 C-8.8416655 6.47349708 -8.8416655 6.47349708 -7.48046875 4.5078125 C-5.07094335 1.13931211 -4.23093041 0.41615709 0 0 Z " fill="#1F45B9" transform="translate(552.8125,118.625)"/>
<path d="M0 0 C1.65 0 3.3 0 5 0 C5.061875 0.556875 5.12375 1.11375 5.1875 1.6875 C6.32619031 4.9283878 8.56890452 6.6312403 11 9 C11 9.66 11 10.32 11 11 C11.99 11 12.98 11 14 11 C14.33 12.65 14.66 14.3 15 16 C3.17241379 6.34482759 3.17241379 6.34482759 0 0 Z " fill="#2246B8" transform="translate(517,200)"/>
<path d="M0 0 C0.66 0.33 1.32 0.66 2 1 C1.56429687 1.42410156 1.12859375 1.84820312 0.6796875 2.28515625 C-3.45008483 6.35235627 -7.28041129 10.55463788 -11 15 C-11.33 14.01 -11.66 13.02 -12 12 C-8.70740156 7.24402448 -4.69476979 3.35340699 0 0 Z " fill="#1D43B7" transform="translate(573,138)"/>
<path d="M0 0 C9.57 0 19.14 0 29 0 C29 0.33 29 0.66 29 1 C27.94872925 1.029729 27.94872925 1.029729 26.8762207 1.06005859 C23.68794838 1.15556166 20.50030853 1.26513871 17.3125 1.375 C16.20970703 1.4059375 15.10691406 1.436875 13.97070312 1.46875 C12.3706543 1.52675781 12.3706543 1.52675781 10.73828125 1.5859375 C9.75899658 1.6173584 8.77971191 1.6487793 7.77075195 1.68115234 C4.87577199 2.01429569 2.64227833 2.79800587 0 4 C0 2.68 0 1.36 0 0 Z " fill="#1647D0" transform="translate(795,81)"/>
<path d="M0 0 C2.37531394 -0.0543965 4.74935883 -0.09385864 7.125 -0.125 C7.79015625 -0.14175781 8.4553125 -0.15851562 9.140625 -0.17578125 C13.49516056 -0.21847278 16.95600114 0.40003783 21 2 C21 2.33 21 2.66 21 3 C19.37509046 3.02698189 17.75005367 3.04638757 16.125 3.0625 C15.22007812 3.07410156 14.31515625 3.08570313 13.3828125 3.09765625 C11 3 11 3 9 2 C7.46331135 1.77532169 5.92031946 1.59203195 4.375 1.4375 C3.55773437 1.35371094 2.74046875 1.26992188 1.8984375 1.18359375 C1.27195313 1.12300781 0.64546875 1.06242188 0 1 C0 0.67 0 0.34 0 0 Z " fill="#224DC0" transform="translate(192,2)"/>
<path d="M0 0 C0.66 0 1.32 0 2 0 C3.80230168 3.82989106 4.19622241 6.78121808 4 11 C4.66 11 5.32 11 6 11 C5.67 11.99 5.34 12.98 5 14 C1.31903365 9.25036599 0.41330414 5.99291003 0 0 Z " fill="#2045B7" transform="translate(795,210)"/>
<path d="M0 0 C4.95696581 1.23924145 7.11658466 2.78577758 10 7 C7.36 6.67 4.72 6.34 2 6 C1.34 4.02 0.68 2.04 0 0 Z " fill="#2149BC" transform="translate(769,121)"/>
<path d="M0 0 C4.75 -0.125 4.75 -0.125 7 1 C7 1.66 7 2.32 7 3 C4.69 3.33 2.38 3.66 0 4 C-0.66 5.98 -1.32 7.96 -2 10 C-2.33 10 -2.66 10 -3 10 C-3.33 7.69 -3.66 5.38 -4 3 C-2.68 2.67 -1.36 2.34 0 2 C0 1.34 0 0.68 0 0 Z " fill="#2858D5" transform="translate(188,56)"/>
<path d="M0 0 C1.65 0.33 3.3 0.66 5 1 C4.67 1.99 4.34 2.98 4 4 C2.35 4 0.7 4 -1 4 C-1.66 5.98 -2.32 7.96 -3 10 C-3.99 10 -4.98 10 -6 10 C-6 9.01 -6 8.02 -6 7 C-5.34 7 -4.68 7 -4 7 C-4 5.68 -4 4.36 -4 3 C-2.68 2.67 -1.36 2.34 0 2 C0 1.34 0 0.68 0 0 Z " fill="#2559D4" transform="translate(47,56)"/>
<path d="M0 0 C-0.33 0.66 -0.66 1.32 -1 2 C-0.67 2.99 -0.34 3.98 0 5 C-4.31392226 4.5206753 -6.16569547 3.2542015 -9 0 C-3.375 -1.125 -3.375 -1.125 0 0 Z " fill="#1E4BC2" transform="translate(351,228)"/>
<path d="M0 0 C-0.185625 0.61875 -0.37125 1.2375 -0.5625 1.875 C-1.23686176 4.04160178 -1.23686176 4.04160178 0 6 C-4.31392226 5.5206753 -6.16569547 4.2542015 -9 1 C-5.846632 0.29925156 -3.27275026 0 0 0 Z " fill="#1C49C3" transform="translate(687,227)"/>
<path d="M0 0 C3.48749314 2.78999451 6.50157221 5.25235831 9 9 C8.67 9.66 8.34 10.32 8 11 C7.01 10.34 6.02 9.68 5 9 C4.34 8.67 3.68 8.34 3 8 C2.34 7.34 1.68 6.68 1 6 C1 5.01 1 4.02 1 3 C0.67 2.01 0.34 1.02 0 0 Z " fill="#1F4CB6" transform="translate(223,11)"/>
<path d="M0 0 C0.66 0 1.32 0 2 0 C3.95582488 2.93373731 5.56224304 5.78216298 7 9 C6.67 9.66 6.34 10.32 6 11 C0.57142857 4.71428571 0.57142857 4.71428571 -1 1 C-0.67 0.67 -0.34 0.34 0 0 Z " fill="#1E41BB" transform="translate(335,217)"/>
<path d="M0 0 C1.32 0.66 2.64 1.32 4 2 C2.87926138 2.83905565 1.75325453 3.67107831 0.625 4.5 C-0.00148438 4.9640625 -0.62796875 5.428125 -1.2734375 5.90625 C-3 7 -3 7 -5 7 C-3.88820837 3.66462511 -2.52588702 2.36292656 0 0 Z " fill="#1E4ABE" transform="translate(774,227)"/>
<path d="M0 0 C0.66 0 1.32 0 2 0 C0.4169423 4.2742558 -2.50568404 6.26531794 -6 9 C-5.67 7.35 -5.34 5.7 -5 4 C-4.01 4 -3.02 4 -2 4 C-2 3.34 -2 2.68 -2 2 C-1.34 2 -0.68 2 0 2 C0 1.34 0 0.68 0 0 Z " fill="#1F47B9" transform="translate(553,159)"/>
<path d="M0 0 C0.33 0.99 0.66 1.98 1 3 C-0.125 4.5 -0.125 4.5 -2 6 C-5.1875 6.1875 -5.1875 6.1875 -8 6 C-8 5.34 -8 4.68 -8 4 C-6.576875 3.566875 -6.576875 3.566875 -5.125 3.125 C-1.94788422 2.23174891 -1.94788422 2.23174891 0 0 Z " fill="#2859D7" transform="translate(197,66)"/>
<path d="M0 0 C4.43090471 1.20842856 6.98112756 2.51668565 10 6 C8.35 6 6.7 6 5 6 C4.67 5.34 4.34 4.68 4 4 C2.35636866 3.27840576 0.68949614 2.60648579 -1 2 C-0.67 1.34 -0.34 0.68 0 0 Z " fill="#2248B6" transform="translate(213,5)"/>
<path d="M0 0 C0.33 0.66 0.66 1.32 1 2 C-0.1446875 2.86625 -0.1446875 2.86625 -1.3125 3.75 C-4.00891579 5.83357198 -4.00891579 5.83357198 -5.6875 8.25 C-6.120625 8.8275 -6.55375 9.405 -7 10 C-7.66 10 -8.32 10 -9 10 C-7.61811547 6.78956118 -6.07578097 4.95063635 -3.375 2.75 C-2.74335937 2.22921875 -2.11171875 1.7084375 -1.4609375 1.171875 C-0.73777344 0.59179688 -0.73777344 0.59179688 0 0 Z " fill="#234BAF" transform="translate(912,123)"/>
<path d="M0 0 C1.22589844 0.15275391 1.22589844 0.15275391 2.4765625 0.30859375 C3.41628906 0.43427734 3.41628906 0.43427734 4.375 0.5625 C4.045 1.2225 3.715 1.8825 3.375 2.5625 C-3.25 2.8125 -3.25 2.8125 -6.625 0.5625 C-4.10446405 -0.69776798 -2.7707902 -0.35624445 0 0 Z " fill="#204CC1" transform="translate(33.625,241.4375)"/>
<path d="M0 0 C3.63 0.33 7.26 0.66 11 1 C7.55549263 3.29633824 5.06187717 3.54016485 1 4 C0.67 2.68 0.34 1.36 0 0 Z " fill="#1747D0" transform="translate(860,118)"/>
<path d="M0 0 C1.13199353 0.9080162 2.25532363 1.82683826 3.375 2.75 C4.00148438 3.26046875 4.62796875 3.7709375 5.2734375 4.296875 C7.08312318 6.08199481 8.00117455 7.67949644 9 10 C7.67823515 9.09674384 6.36784934 8.17682097 5.0625 7.25 C4.33160156 6.73953125 3.60070312 6.2290625 2.84765625 5.703125 C0.79194601 3.80822085 0.37330824 2.72574271 0 0 Z " fill="#2144AF" transform="translate(568,210)"/>
<path d="M0 0 C-1 2 -1 2 -3.8125 3.1875 C-6.85961076 3.96421451 -8.13749363 4.10096399 -11 3 C-7.14243493 0.84694043 -4.44870215 -0.39253254 0 0 Z " fill="#2D4EB5" transform="translate(612,81)"/>
<path d="M0 0 C2.16874252 0.50603992 3.99967627 0.99983813 6 2 C6 3.32 6 4.64 6 6 C3.37812506 4.95125002 2.20628639 4.35068687 0.75 1.875 C0.5025 1.25625 0.255 0.6375 0 0 Z " fill="#194CB8" transform="translate(255,223)"/>
<path d="M0 0 C-0.33 1.32 -0.66 2.64 -1 4 C-1.99 4 -2.98 4 -4 4 C-4.66 2.68 -5.32 1.36 -6 0 C-3.50907189 -1.24546405 -2.58919267 -0.7767578 0 0 Z " fill="#2851C6" transform="translate(122,204)"/>
<path d="M0 0 C0 3.10551666 -0.5393715 4.35261084 -2 7 C-2.66 7 -3.32 7 -4 7 C-4.99 7.495 -4.99 7.495 -6 8 C-4.73058503 4.08597051 -3.48832306 2.20927127 0 0 Z " fill="#1F46C3" transform="translate(677,129)"/>
<path d="M0 0 C5.57142857 5.14285714 5.57142857 5.14285714 6 9 C5.34 9 4.68 9 4 9 C0 2.25 0 2.25 0 0 Z " fill="#2245B1" transform="translate(443,128)"/>
<path d="M0 0 C0.99 0 1.98 0 3 0 C1.75023244 3.65316671 1.32901247 4.78065836 -2 7 C-2 5.68 -2 4.36 -2 3 C-1.34 3 -0.68 3 0 3 C0 2.01 0 1.02 0 0 Z " fill="#2248B7" transform="translate(229,224)"/>
<path d="M0 0 C0.99 0 1.98 0 3 0 C1.73058503 3.91402949 0.48832306 5.79072873 -3 8 C-2.5359375 7.13375 -2.5359375 7.13375 -2.0625 6.25 C-1.07416636 4.15705816 -0.4831387 2.25464725 0 0 Z " fill="#214BB3" transform="translate(1011,220)"/>
<path d="M0 0 C2.5 2.3125 2.5 2.3125 5 5 C5 5.99 5 6.98 5 8 C2.525 7.01 2.525 7.01 0 6 C0.66 5.34 1.32 4.68 2 4 C1.34 2.68 0.68 1.36 0 0 Z " fill="#2546B0" transform="translate(779,128)"/>
</svg>
