<?xml version="1.0" encoding="UTF-8"?>
<svg version="1.1" xmlns="http://www.w3.org/2000/svg" width="670" height="746">
<path d="M0 0 C221.1 0 442.2 0 670 0 C670 246.18 670 492.36 670 746 C448.9 746 227.8 746 0 746 C0 499.82 0 253.64 0 0 Z " fill="#0178D4" transform="translate(0,0)"/>
<path d="M0 0 C0.72703125 0.14566406 1.4540625 0.29132813 2.203125 0.44140625 C2.79609375 0.62574219 3.3890625 0.81007813 4 1 C4.495 1.99 4.495 1.99 5 3 C5.99 3.33 6.98 3.66 8 4 C8.495 7.96 8.495 7.96 9 12 C9.66 12 10.32 12 11 12 C11.495 12.99 11.495 12.99 12 14 C242.175 14.495 242.175 14.495 477 15 C477 13.35 477 11.7 477 10 C478.485 9.505 478.485 9.505 480 9 C480 8.34 480 7.68 480 7 C480.99 7 481.98 7 483 7 C483 6.01 483 5.02 483 4 C483.66 4 484.32 4 485 4 C485 3.34 485 2.68 485 2 C489.455 1.505 489.455 1.505 494 1 C494.33 0.01 494.66 -0.98 495 -2 C501.27 -2 507.54 -2 514 -2 C514 -1.34 514 -0.68 514 0 C515.66666667 0.33333333 517.33333333 0.66666667 519 1 C520.66666667 1.33333333 522.33333333 1.66666667 524 2 C524 2.66 524 3.32 524 4 C524.66 4 525.32 4 526 4 C529 9.75 529 9.75 529 12 C529.66 12 530.32 12 531 12 C535.96062767 19.4409415 535.60691628 28.41269584 534.625 37 C534 40 534 40 532 42 C531.28591666 43.98356483 530.61382258 45.98315437 530 48 C528.68 48 527.36 48 526 48 C526 48.66 526 49.32 526 50 C521.61538462 53 521.61538462 53 519 53 C519 53.66 519 54.32 519 55 C513.81225041 57.09521389 509.19837287 57.38528956 503.6875 57.375 C502.84316406 57.37411377 501.99882813 57.37322754 501.12890625 57.37231445 C494.16106729 57.23951025 488.85950837 56.08578617 483.34375 51.67578125 C482 50 482 50 481 45 C409.06 45 337.12 45 263 45 C263 207.36 263 369.72 263 537 C263.99 537 264.98 537 266 537 C267.72092765 539.3828229 268.86031853 541.37143338 269.5 544.25 C269.665 544.8275 269.83 545.405 270 546 C270.99 546.33 271.98 546.66 273 547 C276.39665795 553.13922974 275.9950034 561.19105515 275 568 C272.98963495 574.03109516 270.5794939 579.58652914 265 583 C264.34 583 263.68 583 263 583 C263 583.66 263 584.32 263 585 C257.20417624 590.15184334 251.57667596 590.26826516 244.1875 590.125 C243.30384766 590.11597656 242.42019531 590.10695313 241.50976562 590.09765625 C239.33972641 590.07419637 237.16982753 590.03832865 235 590 C235 589.34 235 588.68 235 588 C234.27425781 588.0515625 233.54851562 588.103125 232.80078125 588.15625 C229.58408614 587.976797 227.93384423 587.13960849 225.1875 585.5 C224.39730469 585.0359375 223.60710937 584.571875 222.79296875 584.09375 C222.20128906 583.7328125 221.60960937 583.371875 221 583 C221 582.34 221 581.68 221 581 C220.34 581 219.68 581 219 581 C217.23537317 577.91190305 217 576.76687864 217 573 C216.34 573 215.68 573 215 573 C215 570.69 215 568.38 215 566 C214.34 566 213.68 566 213 566 C212.97310784 564.52093108 212.95365379 563.04172517 212.9375 561.5625 C212.92589844 560.73878906 212.91429687 559.91507813 212.90234375 559.06640625 C213 557 213 557 214 556 C214.04125 555.071875 214.0825 554.14375 214.125 553.1875 C214.87128433 547.24210149 218.45807008 541.70968411 222 537 C222.99 537 223.98 537 225 537 C224.67 374.97 224.34 212.94 224 46 C119.06 45.505 119.06 45.505 12 45 C11.34 46.32 10.68 47.64 10 49 C9.01 49.33 8.02 49.66 7 50 C6.814375 50.928125 6.814375 50.928125 6.625 51.875 C6 54 6 54 3.75 55.75 C0.87860126 57.05518125 -0.89097466 57.26648789 -4 57 C-4 57.66 -4 58.32 -4 59 C-9.28 59 -14.56 59 -20 59 C-20 58.34 -20 57.68 -20 57 C-22.31 57 -24.62 57 -27 57 C-27 56.34 -27 55.68 -27 55 C-27.99 55 -28.98 55 -30 55 C-30 54.01 -30 53.02 -30 52 C-30.66 52 -31.32 52 -32 52 C-32 51.34 -32 50.68 -32 50 C-32.99 50 -33.98 50 -35 50 C-35 49.34 -35 48.68 -35 48 C-35.99 48 -36.98 48 -38 48 C-43.9223841 39.39139168 -43.93271827 31.04160516 -43 21 C-42.05749769 16.77663523 -40.40867865 13.61301798 -38 10 C-37.34 10 -36.68 10 -36 10 C-35.773125 9.38125 -35.54625 8.7625 -35.3125 8.125 C-33.62070165 5.38589791 -32.00755839 4.94975528 -29 4 C-29 3.34 -29 2.68 -29 2 C-20.67881484 -4.30392815 -9.43561905 -2.42984927 0 0 Z " fill="#FCFDFE" transform="translate(93,115)"/>
<path d="M0 0 C221.1 0 442.2 0 670 0 C670 246.18 670 492.36 670 746 C655.48 746 640.96 746 626 746 C628.92226978 744.53886511 631.582445 743.40762159 634.625 742.3125 C646.34960476 737.58817396 654.67387335 729.71510099 659.9375 718.125 C661.43510302 713.72028525 662.12469704 709.72253042 662.12880117 705.0752185 C662.13370946 703.61517251 662.13370946 703.61517251 662.13871691 702.12563065 C662.13723328 701.06189971 662.13574966 699.99816877 662.13422108 698.90220356 C662.13657331 697.76315481 662.13892554 696.62410607 662.14134905 695.45054069 C662.14687198 692.27921553 662.14791087 689.10792496 662.14707164 685.93659625 C662.14724119 682.48999266 662.15314786 679.04339814 662.1583125 675.59679908 C662.16764006 668.75656106 662.1715608 661.91632952 662.17383147 655.07608594 C662.17679309 646.88462701 662.18549021 638.69317668 662.19424575 630.50172225 C662.21509172 610.70285977 662.22555979 590.9039958 662.23437535 571.10512491 C662.23858124 561.74069493 662.24380328 552.37626559 662.24905988 543.01183615 C662.26694931 510.96207678 662.28194616 478.91231722 662.28938007 446.8625536 C662.28985483 444.85042112 662.29033072 442.83828865 662.29080774 440.82615618 C662.29104411 439.82831294 662.29128049 438.8304697 662.29152403 437.80238878 C662.29272523 432.74675853 662.29394068 427.69112829 662.29516602 422.63549805 C662.29552624 421.13053738 662.29552624 421.13053738 662.29589374 419.59517347 C662.30378879 387.05675132 662.32722526 354.51836559 662.35972196 321.97995935 C662.39400965 287.58554228 662.41373018 253.19114654 662.41702431 218.7967121 C662.41744186 215.0219982 662.41792142 211.24728431 662.41844749 207.47257042 C662.41857069 206.54311688 662.41869388 205.61366334 662.4188208 204.65604454 C662.42115402 189.69075124 662.43682063 174.72550023 662.45728934 159.76022201 C662.47753193 144.72186085 662.48303204 129.68355055 662.47351871 114.6451783 C662.46829783 105.70894999 662.4742089 96.77289081 662.49605338 87.8366868 C662.5095435 81.86746598 662.50850034 75.89836181 662.49565142 69.92913988 C662.48874272 66.52791371 662.49033371 63.12727502 662.50521151 59.7260351 C662.52025932 56.05939921 662.5107057 52.3936166 662.49498463 48.72700214 C662.50520683 47.67497704 662.51542904 46.62295193 662.52596101 45.53904727 C662.46076058 38.58640927 661.00896072 33.25379415 658 27 C657.33097656 25.57300781 657.33097656 25.57300781 656.6484375 24.1171875 C649.9067907 12.24692595 639.56531054 7.18843685 627 3 C625.63278791 2.90891464 624.26156771 2.87186365 622.89132607 2.87004817 C622.04936605 2.86651975 621.20740604 2.86299133 620.33993208 2.85935599 C619.41298706 2.86055376 618.48604203 2.86175154 617.53100777 2.86298561 C616.54374238 2.86033378 615.556477 2.85768196 614.53929448 2.85494977 C611.1988045 2.8472309 607.85835111 2.84669661 604.51785278 2.84609985 C602.11151968 2.84208692 599.70518726 2.83764898 597.29885566 2.8328203 C591.35813125 2.8220894 585.41741816 2.81609428 579.47668674 2.81211142 C572.36330456 2.80710518 565.24993387 2.796378 558.13655847 2.78562968 C540.93975759 2.75998817 523.74295225 2.74496108 506.54613775 2.73211922 C500.84990521 2.7278651 495.15367299 2.72329938 489.45744085 2.7185359 C459.17282301 2.69327392 428.88820463 2.67122491 398.60357857 2.65880775 C391.5853284 2.6558864 384.56707825 2.65291889 377.54882812 2.64990234 C376.67689368 2.64953143 375.80495923 2.64916053 374.90660252 2.64877838 C346.64392976 2.63662607 318.38131932 2.60568825 290.11867582 2.56398082 C261.06478374 2.52118395 232.01092457 2.49456548 202.95700012 2.48933304 C198.85235424 2.4885926 194.74770841 2.48768192 190.64306259 2.48667526 C189.83523556 2.48648465 189.02740853 2.48629403 188.19510189 2.48609764 C175.19966127 2.48258544 162.20429872 2.46229365 149.20888676 2.43587863 C136.14178543 2.40971878 123.07477422 2.40201297 110.00765045 2.41297992 C102.24733449 2.41895143 94.48732445 2.41107319 86.72705486 2.38314908 C80.92727612 2.3638267 75.12776199 2.37073845 69.32798682 2.38771825 C66.98532457 2.39052213 64.64263356 2.38489832 62.30001761 2.36990531 C46.46125813 2.27474936 33.75947533 2.90209443 21.21875 13.7734375 C12.4019988 22.6212336 7.59656464 33.14309337 7.46633056 45.6653946 C7.47540938 46.71411026 7.48448819 47.76282592 7.49384212 48.84332085 C7.48772877 49.99008224 7.48161541 51.13684364 7.47531679 52.31835538 C7.45974098 56.15343676 7.472574 59.98788359 7.4853363 63.82296753 C7.48222398 66.60332483 7.47310663 69.38365539 7.46428925 72.16399968 C7.44833222 78.20515219 7.44719728 84.24616535 7.45588684 90.28733063 C7.46877398 99.27092083 7.45878493 108.25438532 7.44438729 117.237968 C7.41946327 133.28431847 7.41756158 149.33060992 7.42566141 165.3769741 C7.43273563 179.42069749 7.43279023 193.46439798 7.42579842 207.50812149 C7.42488708 209.3923131 7.42397632 211.2765047 7.42306613 213.16069631 C7.42168299 216.00004325 7.4202919 218.83939018 7.41887999 221.67873711 C7.40590019 248.07447678 7.4007837 274.47020877 7.4124136 300.86594963 C7.41285157 301.86084343 7.41328954 302.85573723 7.41374078 303.88077933 C7.41734756 311.95989034 7.42118236 320.03900124 7.42503171 328.11811214 C7.43987899 359.63199621 7.43110001 391.14579361 7.40307617 422.65966797 C7.37164597 458.07179483 7.35667898 493.4838704 7.36687618 528.89601147 C7.36791295 532.67208996 7.36890018 536.44816847 7.3698597 540.22424698 C7.37010858 541.1540024 7.37035747 542.08375782 7.3706139 543.04168765 C7.3740534 557.0743684 7.36474994 571.10700383 7.34908867 585.13967514 C7.33131802 601.0990106 7.3311907 617.0582358 7.35444032 633.01756655 C7.36693767 641.94655436 7.36569937 650.8752888 7.34455946 659.80426172 C7.3318202 665.77228955 7.33733514 671.74012255 7.35754427 677.70812923 C7.36854541 681.10618532 7.3690481 684.50333742 7.35286897 687.90143321 C7.14941984 711.04566491 7.14941984 711.04566491 17.98828125 731.00390625 C23.48457543 736.45751076 29.85446246 740.26538045 36.9921875 743.17578125 C39.03926002 744.01611647 41.02077406 745.01038703 43 746 C28.81 746 14.62 746 0 746 C0 499.82 0 253.64 0 0 Z " fill="#F7FBFD" transform="translate(0,0)"/>
<path d="M0 0 C27.39 0 54.78 0 83 0 C83 147.84 83 295.68 83 448 C75.74 448 68.48 448 61 448 C58.52104658 444.28156987 58.74609912 442.40604748 58.73828697 437.96223927 C58.73429091 437.23784217 58.73029485 436.51344507 58.72617769 435.76709655 C58.71514113 433.32088481 58.71841341 430.87489693 58.7215271 428.42866516 C58.71652776 426.66478362 58.71065304 424.90090438 58.70397437 423.1370284 C58.68811647 418.27532279 58.68474051 413.41367487 58.68332577 408.55194652 C58.67964179 403.31471464 58.66449138 398.07751479 58.65071106 392.84030151 C58.62840281 383.76158799 58.613411 374.6828858 58.60334396 365.60415077 C58.5887781 352.47771652 58.56324721 339.35132176 58.53501268 326.22491064 C58.48950656 304.9298174 58.45290757 283.63471849 58.421875 262.33959961 C58.39170508 241.6494853 58.35736199 220.95938489 58.31738281 200.26928711 C58.31492126 198.99462817 58.31245972 197.71996923 58.30992357 196.40668426 C58.29754928 190.0122976 58.28509268 183.61791111 58.27259517 177.22352469 C58.1689702 124.14903584 58.07978584 71.07452967 58 18 C57.28812027 17.98969254 56.57624054 17.97938507 55.8427887 17.96876526 C49.14717174 17.87095102 42.45164482 17.76845996 35.75618076 17.66066074 C32.3136426 17.6054012 28.871096 17.55197653 25.4284668 17.50268555 C21.47435474 17.44599199 17.52039056 17.38142505 13.56640625 17.31640625 C11.70394005 17.29133751 11.70394005 17.29133751 9.80384827 17.26576233 C8.66274094 17.24581711 7.52163361 17.22587189 6.34594727 17.20532227 C4.83037987 17.18200584 4.83037987 17.18200584 3.28419495 17.15821838 C1 17 1 17 0 16 C0 10.72 0 5.44 0 0 Z " fill="#EFF6FB" transform="translate(206,192)"/>
<path d="M0 0 C25.41 0 50.82 0 77 0 C77 5.61 77 11.22 77 17 C58.85 17 40.7 17 22 17 C22 158.9 22 300.8 22 447 C15.07 447 8.14 447 1 447 C-0.66899334 445.33100666 -0.12320081 443.30085379 -0.13100848 441.07194141 C-0.12838146 440.35903035 -0.12575445 439.6461193 -0.12304783 438.91160488 C-0.12420167 438.15743637 -0.12535552 437.40326787 -0.12654433 436.62624577 C-0.1292181 434.06676261 -0.12468262 431.50734076 -0.12025452 428.94786072 C-0.12069006 427.10733655 -0.12156466 425.26681244 -0.12284368 423.42628866 C-0.1250919 418.34343826 -0.12106293 413.26060871 -0.11606562 408.17776096 C-0.11176596 402.70601644 -0.1132072 397.2342732 -0.1139679 391.76252747 C-0.11449344 382.27397824 -0.11134347 372.78543586 -0.10573006 363.29688835 C-0.09761916 349.57786988 -0.09500026 335.85885473 -0.09374207 322.13983411 C-0.0915509 299.88415523 -0.08489763 277.62847955 -0.07543945 255.37280273 C-0.06625975 233.74747741 -0.05917382 212.12215306 -0.05493164 190.49682617 C-0.05480011 189.83060876 -0.05466859 189.16439135 -0.05453308 188.47798553 C-0.05308377 181.12391606 -0.05169191 173.76984658 -0.05032361 166.41577709 C-0.03994898 110.94384873 -0.0220546 55.47192484 0 0 Z " fill="#FEFEFE" transform="translate(387,194)"/>
<path d="M0 0 C130.68 0 261.36 0 396 0 C396 7.26 396 14.52 396 22 C395 23 395 23 392.34304994 23.1241985 C391.14351342 23.12381878 389.9439769 23.12343906 388.70809078 23.12304783 C388.04002933 23.12420167 387.37196788 23.12535552 386.68366215 23.12654433 C384.41708982 23.12921747 382.15058676 23.12468315 379.88401794 23.12025452 C378.25385857 23.12069008 376.62369927 23.1215647 374.99354035 23.12284368 C370.49216919 23.12509164 365.99082159 23.12106328 361.48945343 23.11606562 C356.64348163 23.11176559 351.79751126 23.11320722 346.95153809 23.1139679 C338.54831564 23.11449342 330.14510092 23.11134369 321.74188042 23.10573006 C309.59208547 23.09761884 297.44229429 23.09500023 285.29249693 23.09374207 C265.582447 23.09155095 245.8724012 23.08488925 226.16235352 23.07543945 C207.01066102 23.06626688 187.85896964 23.05918529 168.70727539 23.05493164 C166.9378746 23.05453756 166.9378746 23.05453756 165.13272833 23.05413551 C159.21529083 23.05283051 153.29785331 23.0515668 147.3804158 23.05032361 C98.25360765 23.03994913 49.12680409 23.02225511 0 23 C0 15.41 0 7.82 0 0 Z " fill="#FEFEFE" transform="translate(139,78)"/>
<path d="M0 0 C130.68 0 261.36 0 396 0 C396 7.26 396 14.52 396 22 C395 23 395 23 392.34304994 23.1241985 C391.14351342 23.12381878 389.9439769 23.12343906 388.70809078 23.12304783 C388.04002933 23.12420167 387.37196788 23.12535552 386.68366215 23.12654433 C384.41708982 23.12921747 382.15058676 23.12468315 379.88401794 23.12025452 C378.25385857 23.12069008 376.62369927 23.1215647 374.99354035 23.12284368 C370.49216919 23.12509164 365.99082159 23.12106328 361.48945343 23.11606562 C356.64348163 23.11176559 351.79751126 23.11320722 346.95153809 23.1139679 C338.54831564 23.11449342 330.14510092 23.11134369 321.74188042 23.10573006 C309.59208547 23.09761884 297.44229429 23.09500023 285.29249693 23.09374207 C265.582447 23.09155095 245.8724012 23.08488925 226.16235352 23.07543945 C207.01066102 23.06626688 187.85896964 23.05918529 168.70727539 23.05493164 C166.9378746 23.05453756 166.9378746 23.05453756 165.13272833 23.05413551 C159.21529083 23.05283051 153.29785331 23.0515668 147.3804158 23.05032361 C98.25360765 23.03994913 49.12680409 23.02225511 0 23 C0 15.41 0 7.82 0 0 Z M3 2 C3 8.27 3 14.54 3 21 C131.37 21 259.74 21 392 21 C392 14.73 392 8.46 392 2 C263.63 2 135.26 2 3 2 Z " fill="#A0CDF0" transform="translate(139,78)"/>
<path d="M0 0 C25.41 0 50.82 0 77 0 C77 5.61 77 11.22 77 17 C58.85 17 40.7 17 22 17 C22 158.9 22 300.8 22 447 C15.07 447 8.14 447 1 447 C-0.66899334 445.33100666 -0.12320081 443.30085379 -0.13100848 441.07194141 C-0.12838146 440.35903035 -0.12575445 439.6461193 -0.12304783 438.91160488 C-0.12420167 438.15743637 -0.12535552 437.40326787 -0.12654433 436.62624577 C-0.1292181 434.06676261 -0.12468262 431.50734076 -0.12025452 428.94786072 C-0.12069006 427.10733655 -0.12156466 425.26681244 -0.12284368 423.42628866 C-0.1250919 418.34343826 -0.12106293 413.26060871 -0.11606562 408.17776096 C-0.11176596 402.70601644 -0.1132072 397.2342732 -0.1139679 391.76252747 C-0.11449344 382.27397824 -0.11134347 372.78543586 -0.10573006 363.29688835 C-0.09761916 349.57786988 -0.09500026 335.85885473 -0.09374207 322.13983411 C-0.0915509 299.88415523 -0.08489763 277.62847955 -0.07543945 255.37280273 C-0.06625975 233.74747741 -0.05917382 212.12215306 -0.05493164 190.49682617 C-0.05480011 189.83060876 -0.05466859 189.16439135 -0.05453308 188.47798553 C-0.05308377 181.12391606 -0.05169191 173.76984658 -0.05032361 166.41577709 C-0.03994898 110.94384873 -0.0220546 55.47192484 0 0 Z M2 2 C2 148.19 2 294.38 2 445 C8.27 445 14.54 445 21 445 C21.33 303.76 21.66 162.52 22 17 C48.73 16.505 48.73 16.505 76 16 C76 11.38 76 6.76 76 2 C51.58 2 27.16 2 2 2 Z " fill="#B9DBF3" transform="translate(387,194)"/>
<path d="M0 0 C3.20602856 2.2900204 5.14840602 4.81184428 7.625 7.875 C8.945 8.535 10.265 9.195 11.625 9.875 C11.625 14.825 11.625 19.775 11.625 24.875 C10.965 24.875 10.305 24.875 9.625 24.875 C9.625 26.525 9.625 28.175 9.625 29.875 C8.635 29.875 7.645 29.875 6.625 29.875 C6.3775 30.473125 6.13 31.07125 5.875 31.6875 C4.40534996 34.25938757 3.19409841 35.40694377 0.625 36.875 C-2.125 37.0625 -2.125 37.0625 -4.375 36.875 C-4.375 37.865 -4.375 38.855 -4.375 39.875 C-10.11342251 40.07913361 -14.98039047 40.14641454 -20.375 37.875 C-20.375 37.215 -20.375 36.555 -20.375 35.875 C-20.973125 35.83375 -21.57125 35.7925 -22.1875 35.75 C-24.375 34.875 -24.375 34.875 -26 32.25 C-28.71489809 25.58615922 -30.9998509 18.86033799 -28.6875 11.765625 C-26.12908668 6.09447548 -22.72075073 2.45895176 -17.0234375 -0.23828125 C-11.45734449 -2.10185516 -5.52741093 -1.84247031 0 0 Z " fill="#0479D4" transform="translate(89.375,126.125)"/>
<path d="M0 0 C0 0.66 0 1.32 0 2 C1.32 2.66 2.64 3.32 4 4 C4 4.99 4 5.98 4 7 C4.639375 7.28875 5.27875 7.5775 5.9375 7.875 C8 9 8 9 9 11 C9.67805359 18.92354057 10.140406 26.05365999 5.38671875 32.77734375 C4 34 4 34 1 34 C0.67 34.99 0.34 35.98 0 37 C-4.33668172 39.57490477 -9.10592414 39.39409225 -14 39 C-14.99 38.67 -15.98 38.34 -17 38 C-17 37.34 -17 36.68 -17 36 C-17.721875 35.938125 -18.44375 35.87625 -19.1875 35.8125 C-23.3891334 34.5986948 -25.73203883 31.91751321 -28.11328125 28.31640625 C-30.42014307 22.29011084 -30.25666273 13.28739147 -27.97265625 7.3125 C-21.42588354 -2.26283515 -10.34324146 -4.13729659 0 0 Z " fill="#0379D4" transform="translate(607,125)"/>
<path d="M0 0 C7.00489406 -0.47135736 14.3366471 -0.7829709 20 4 C21.0947152 6.88256667 21.05253765 8.8477412 21 12 C21.99 12 22.98 12 24 12 C24 17.61 24 23.22 24 29 C23.01 29 22.02 29 21 29 C21 30.32 21 31.64 21 33 C20.34 33 19.68 33 19 33 C18.67 33.99 18.34 34.98 18 36 C17.34 36 16.68 36 16 36 C16 36.66 16 37.32 16 38 C13.69 38 11.38 38 9 38 C9 38.66 9 39.32 9 40 C1.96095477 40.65176345 -3.12230583 38.96718257 -9 35 C-11.37048755 32.37645386 -12 31.60223472 -12 28 C-12.66 28 -13.32 28 -14 28 C-14.75155586 11.77891929 -14.75155586 11.77891929 -10 6 C-7.30487142 3.30487142 -6.00194536 2.08906181 -2.1875 1.75 C-1.465625 1.8325 -0.74375 1.915 0 2 C0 1.34 0 0.68 0 0 Z " fill="#0479D4" transform="translate(332,655)"/>
<path d="M0 0 C0.66 0.33 1.32 0.66 2 1 C1.67 1.33 1.34 1.66 1 2 C0.11180142 15.1192385 0.11180142 15.1192385 5 27 C5 27.66 5 28.32 5 29 C5.99 29 6.98 29 8 29 C8 29.66 8 30.32 8 31 C8.99 31 9.98 31 11 31 C11 31.66 11 32.32 11 33 C11.66 33 12.32 33 13 33 C13 33.99 13 34.98 13 36 C13.99 36 14.98 36 16 36 C16 36.66 16 37.32 16 38 C18.31 38 20.62 38 23 38 C23 38.66 23 39.32 23 40 C28.28 40 33.56 40 39 40 C39 39.34 39 38.68 39 38 C39.62648437 37.82984375 40.25296875 37.6596875 40.8984375 37.484375 C41.71570313 37.24203125 42.53296875 36.9996875 43.375 36.75 C44.59316406 36.40195313 44.59316406 36.40195313 45.8359375 36.046875 C48.55597612 34.73104404 48.74796392 33.6952227 50 31 C52.84729551 27.34244654 54.27839084 26.11367335 58.9233284 25.38196754 C60.49635974 25.35972953 62.06992598 25.36502819 63.6428833 25.39199829 C64.94680279 25.38453176 64.94680279 25.38453176 66.27706409 25.37691438 C69.18944701 25.36633808 72.10041671 25.39149555 75.01269531 25.41650391 C77.10045502 25.41627722 79.18821546 25.4138634 81.27597046 25.40942383 C86.94518599 25.40371323 92.61388812 25.4290221 98.28300571 25.46009874 C104.20824465 25.48761593 110.13348398 25.48763722 116.05877686 25.49081421 C126.00542097 25.50001944 135.95187283 25.52756087 145.8984375 25.56787109 C159.94529406 25.62474481 173.99205402 25.64702431 188.03900766 25.66315579 C197.750882 25.67559445 207.46274155 25.69628152 217.17459774 25.7185359 C219.53449675 25.72390414 221.89439629 25.72904011 224.2542963 25.73394823 C230.97664782 25.74821698 237.69894357 25.76759296 244.4212532 25.79542542 C246.46232915 25.80317204 248.50341229 25.80922292 250.54449844 25.81350327 C253.31805879 25.81968298 256.09152146 25.83201671 258.86505127 25.84609985 C260.09288767 25.84684649 260.09288767 25.84684649 261.34552884 25.84760821 C266.88573472 25.88573472 266.88573472 25.88573472 268 27 C268.09889275 29.60572413 268.13176841 32.18495278 268.12304783 34.7911768 C268.12420167 35.62132212 268.12535552 36.45146744 268.12654433 37.30676869 C268.12921856 40.12470305 268.12468225 42.94258176 268.12025452 45.76051331 C268.12069005 47.78665348 268.12156464 49.81279359 268.12284368 51.83893341 C268.12509208 57.43485392 268.12106268 63.03075549 268.11606562 68.62667358 C268.11176622 74.65057049 268.11320718 80.67446624 268.1139679 86.69836426 C268.11449346 97.1445547 268.11137805 107.59073964 268.10573006 118.03692818 C268.09981953 128.99669995 268.09596543 139.95646924 268.09487724 150.9162426 C268.0948085 151.59687013 268.09473976 152.27749766 268.09466894 152.97875026 C268.09433062 156.43510336 268.09402923 159.89145645 268.09374207 163.34780955 C268.09163986 187.84963188 268.08489749 212.35145098 268.07543945 236.85327148 C268.06625984 260.66121402 268.05917387 284.46915566 268.05493164 308.27709961 C268.05480011 309.01054954 268.05466859 309.74399946 268.05453308 310.49967514 C268.05321459 317.86506488 268.05193877 325.23045462 268.05069422 332.59584437 C268.04815778 347.6009192 268.04533653 362.60599398 268.04234314 377.61106873 C268.04220585 378.3010265 268.04206856 378.99098427 268.04192711 379.70184985 C268.03272145 425.80123461 268.01685492 471.90061747 268 518 C267.67 518 267.34 518 267 518 C267 356.3 267 194.6 267 28 C199.02 28 131.04 28 61 28 C60.67 29.32 60.34 30.64 60 32 C59.505 31.01 59.505 31.01 59 30 C58.34 30 57.68 30 57 30 C57 30.66 57 31.32 57 32 C56.01 32 55.02 32 54 32 C53.67 32.99 53.34 33.98 53 35 C50.68191636 36.03485877 48.34824702 37.0355414 46 38 C45.505 38.99 45.505 38.99 45 40 C41.88778245 41.99346369 39.449898 42.23778951 35.796875 42.1953125 C34.32734375 42.18564453 34.32734375 42.18564453 32.828125 42.17578125 C31.81234375 42.15902344 30.7965625 42.14226562 29.75 42.125 C28.71875 42.11597656 27.6875 42.10695312 26.625 42.09765625 C24.08309713 42.07412011 21.5416672 42.04124023 19 42 C19 41.34 19 40.68 19 40 C17.35 40 15.7 40 14 40 C14 39.01 14 38.02 14 37 C13.01 36.67 12.02 36.34 11 36 C11 35.34 11 34.68 11 34 C10.21625 33.690625 9.4325 33.38125 8.625 33.0625 C6 32 6 32 4 31 C4 30.01 4 29.02 4 28 C3.01 28 2.02 28 1 28 C1 26.02 1 24.04 1 22 C0.34 22 -0.32 22 -1 22 C-1.02887814 18.52085059 -1.04675687 15.04173169 -1.0625 11.5625 C-1.07087891 10.56927734 -1.07925781 9.57605469 -1.08789062 8.55273438 C-1.09111328 7.60849609 -1.09433594 6.66425781 -1.09765625 5.69140625 C-1.10289307 4.81685791 -1.10812988 3.94230957 -1.11352539 3.04125977 C-1 1 -1 1 0 0 Z " fill="#6EB2E7" transform="translate(50,134)"/>
<path d="M0 0 C0.77251602 0.00359528 1.54503204 0.00719055 2.34095764 0.01089478 C3.55549622 0.01067574 3.55549622 0.01067574 4.79457092 0.01045227 C7.48380671 0.01115163 10.17297412 0.01894507 12.86219788 0.02676392 C14.72164878 0.02862802 16.58110018 0.03005196 18.44055176 0.03105164 C23.34458258 0.03487746 28.24858398 0.04470829 33.15260315 0.05575562 C38.15280255 0.06596836 43.15300669 0.07054896 48.1532135 0.07559204 C57.97158583 0.0863305 67.78993629 0.10340769 77.60829163 0.12442017 C77.60829163 0.45442017 77.60829163 0.78442017 77.60829163 1.12442017 C50.54829163 1.12442017 23.48829163 1.12442017 -4.39170837 1.12442017 C-4.06170837 6.40442017 -3.73170837 11.68442017 -3.39170837 17.12442017 C-0.80951477 17.16200439 -0.80951477 17.16200439 1.82484436 17.2003479 C7.5006665 17.28410728 13.17640633 17.37237868 18.85211086 17.46375942 C22.29464902 17.51901896 25.73719563 17.57244363 29.17982483 17.62173462 C33.13393689 17.67842817 37.08790107 17.74299512 41.04188538 17.80801392 C42.90435158 17.83308266 42.90435158 17.83308266 44.80444336 17.85865784 C45.94555069 17.87860306 47.08665802 17.89854828 48.26234436 17.9190979 C49.77791176 17.94241432 49.77791176 17.94241432 51.32409668 17.96620178 C53.60829163 18.12442017 53.60829163 18.12442017 54.60829163 19.12442017 C54.71060549 21.38458508 54.74046862 23.64802212 54.74416351 25.91049862 C54.74670613 26.63198883 54.74924876 27.35347905 54.75186843 28.0968326 C54.75926162 30.5451641 54.75946514 32.99344579 54.75978088 35.44178772 C54.76362702 37.20251613 54.76791378 38.96324363 54.77260637 40.72397 C54.78429458 45.58632082 54.78974185 50.44866225 54.79424119 55.31102431 C54.80017165 60.54559314 54.81184378 65.78014935 54.82287598 71.01470947 C54.84125708 80.09236253 54.8560898 89.17001586 54.86865234 98.24767876 C54.88691074 111.37479796 54.91157601 124.50189915 54.93802625 137.62900413 C54.98085842 158.9273564 55.01996427 180.22571363 55.05604553 201.52407837 C55.05820834 202.79998075 55.06037114 204.07588314 55.06259948 205.39044923 C55.07792823 214.44760605 55.09312471 223.50476308 55.10829163 232.56192017 C55.12561461 242.90607722 55.142999 253.25023417 55.16053772 263.59439087 C55.16269659 264.86844445 55.16485546 266.14249803 55.16707975 267.4551593 C55.20314893 288.67006056 55.24309977 309.88495281 55.28584051 331.09984165 C55.31204226 344.19978879 55.33469011 357.29973314 55.35282409 370.39969397 C55.365462 379.37028038 55.38157708 388.34085607 55.40047324 397.31143146 C55.41126287 402.49434353 55.42036998 407.67724518 55.42516899 412.86016655 C55.42958089 417.59794616 55.43849962 422.33569436 55.45111221 427.07345904 C55.45486849 428.79417721 55.45691018 430.51490008 55.4571324 432.23562234 C55.45766848 434.56128573 55.46424035 436.88685342 55.47241974 439.21250057 C55.47453571 440.50832371 55.47665168 441.80414684 55.47883177 443.13923734 C55.40172703 446.05132515 55.40172703 446.05132515 56.60829163 448.12442017 C63.53829163 448.45442017 70.46829163 448.78442017 77.60829163 449.12442017 C77.60829163 449.45442017 77.60829163 449.78442017 77.60829163 450.12442017 C73.62914004 450.15329 69.65001509 450.17117423 65.67079163 450.18692017 C63.96632874 450.19948853 63.96632874 450.19948853 62.22743225 450.21231079 C61.14784241 450.21553345 60.06825256 450.2187561 58.95594788 450.22207642 C57.45559998 450.22993164 57.45559998 450.22993164 55.92494202 450.23794556 C53.60829163 450.12442017 53.60829163 450.12442017 52.60829163 449.12442017 C52.51011117 446.84666046 52.48458085 444.56577759 52.4852438 442.28590298 C52.48408995 441.55874845 52.48293611 440.83159392 52.4817473 440.0824044 C52.47907371 437.61481491 52.48360885 435.14728902 52.48803711 432.67970276 C52.48760156 430.90517539 52.48672695 429.13064808 52.48544794 427.35612112 C52.4831998 422.4556956 52.4872286 417.55529172 52.492226 412.65486896 C52.49652577 407.37944529 52.49508442 402.10402295 52.49432373 396.82859802 C52.49379819 387.68054348 52.49694809 378.53249604 52.50256157 369.38444328 C52.51067256 356.15773023 52.51329138 342.93102063 52.51454956 329.70430536 C52.51674071 308.24725509 52.52340251 286.79020861 52.53285217 265.3331604 C52.54202466 244.48387674 52.54910629 223.63459411 52.55335999 202.78530884 C52.55362271 201.50116346 52.55388543 200.21701809 52.55415612 198.89395922 C52.55546111 192.45207922 52.55672483 186.01019921 52.55796802 179.5683192 C52.5683426 126.0870169 52.58596263 72.60571872 52.60829163 19.12442017 C51.89863251 19.12886139 51.18897339 19.13330261 50.45780945 19.13787842 C43.77732095 19.17791496 37.09686582 19.20838404 30.41628456 19.22804451 C26.98153703 19.23849187 23.54688845 19.25266822 20.11219788 19.27529907 C16.16559525 19.3011408 12.219033 19.31088509 8.27235413 19.31973267 C7.03587128 19.33005524 5.79938843 19.34037781 4.5254364 19.35101318 C3.3844046 19.35116425 2.2433728 19.35131531 1.06776428 19.35147095 C0.05960663 19.35591217 -0.94855103 19.36035339 -1.98725891 19.3649292 C-4.39170837 19.12442017 -4.39170837 19.12442017 -6.39170837 17.12442017 C-6.5634174 14.39744793 -6.62416517 11.78535549 -6.57920837 9.06192017 C-6.57856384 8.31619751 -6.57791931 7.57047485 -6.57725525 6.80215454 C-6.52476701 0.38109329 -6.4090259 0.01259059 0 0 Z " fill="#2E90DC" transform="translate(210.39170837402344,190.87557983398438)"/>
<path d="M0 0 C3.72901814 -0.08736736 7.45777165 -0.14051482 11.1875 -0.1875 C12.24259766 -0.21263672 13.29769531 -0.23777344 14.38476562 -0.26367188 C15.91713867 -0.27817383 15.91713867 -0.27817383 17.48046875 -0.29296875 C18.41785889 -0.3086792 19.35524902 -0.32438965 20.32104492 -0.34057617 C23.55681965 0.07078861 25.40470373 1.04645595 28 3 C28.33 3.99 28.66 4.98 29 6 C26.69 5.34 24.38 4.68 22 4 C22 3.34 22 2.68 22 2 C15.73 2.33 9.46 2.66 3 3 C2.67 3.66 2.34 4.32 2 5 C-0.06640625 5.4140625 -0.06640625 5.4140625 -2.5625 5.625 C-3.38878906 5.69976562 -4.21507812 5.77453125 -5.06640625 5.8515625 C-5.70449219 5.90054688 -6.34257813 5.94953125 -7 6 C-7 6.66 -7 7.32 -7 8 C-7.66 8 -8.32 8 -9 8 C-9 8.99 -9 9.98 -9 11 C-9.99 11 -10.98 11 -12 11 C-12 11.66 -12 12.32 -12 13 C-12.66 13.33 -13.32 13.66 -14 14 C-14.33 15.65 -14.66 17.3 -15 19 C-168.45 19 -321.9 19 -480 19 C-480.33 18.01 -480.66 17.02 -481 16 C-481.66 16 -482.32 16 -483 16 C-482.67 14.68 -482.34 13.36 -482 12 C-482 12.66 -482 13.32 -482 14 C-480.68 14 -479.36 14 -478 14 C-477.67 14.66 -477.34 15.32 -477 16 C-325.2 16 -173.4 16 -17 16 C-16.34 14.68 -15.68 13.36 -15 12 C-14.34 12 -13.68 12 -13 12 C-13 11.34 -13 10.68 -13 10 C-12.34 10 -11.68 10 -11 10 C-10.67 9.01 -10.34 8.02 -10 7 C-9.34 7 -8.68 7 -8 7 C-8 6.34 -8 5.68 -8 5 C-5.36 4.67 -2.72 4.34 0 4 C0 2.68 0 1.36 0 0 Z " fill="#5CA9E3" transform="translate(585,111)"/>
<path d="M0 0 C-0.33 1.32 -0.66 2.64 -1 4 C-1.62581001 3.83785997 -2.25162001 3.67571994 -2.89639395 3.50866657 C-7.16273185 2.80943367 -11.34123579 2.85651454 -15.65769672 2.8613348 C-17.1327031 2.85707147 -17.1327031 2.85707147 -18.63750759 2.85272202 C-21.952464 2.84436008 -25.26738553 2.84310563 -28.58235168 2.84178162 C-30.97492722 2.83721729 -33.36750195 2.83221746 -35.76007575 2.82681805 C-40.97217961 2.81605787 -46.1842787 2.8083888 -51.39639091 2.80341911 C-59.14662982 2.79601271 -66.89685185 2.78292946 -74.64708081 2.76867336 C-87.68374573 2.74485443 -100.72041364 2.72565378 -113.75708961 2.70907402 C-126.66731998 2.69264002 -139.57754475 2.67416022 -152.48776817 2.65294075 C-153.29011926 2.65162314 -154.09247035 2.65030554 -154.9191351 2.648948 C-158.99377636 2.64224603 -163.06841756 2.63550744 -167.14305874 2.62875474 C-196.01292891 2.58097609 -224.8828043 2.53779554 -253.75268555 2.49731445 C-281.80151754 2.45797412 -309.85034521 2.41655391 -337.89916992 2.37231445 C-338.76357066 2.37095192 -339.62797141 2.36958939 -340.51856611 2.36818558 C-349.19913663 2.35450035 -357.87970708 2.34077279 -366.56027748 2.32701423 C-384.24401659 2.29898677 -401.92775615 2.27124179 -419.61149597 2.2436676 C-420.83113343 2.2417653 -420.83113343 2.2417653 -422.07541002 2.23982458 C-476.38359965 2.15515115 -530.69179914 2.07708379 -585 2 C-585 1.67 -585 1.34 -585 1 C-530.54132091 0.90460014 -476.08264178 0.80922541 -421.6239624 0.71398926 C-420.41477801 0.71187465 -420.41477801 0.71187465 -419.18116565 0.70971733 C-401.66155814 0.67907941 -384.14195061 0.64844617 -366.62234308 0.61781773 C-358.03061804 0.60279732 -349.438893 0.58777589 -340.84716797 0.57275391 C-339.99219221 0.57125906 -339.13721646 0.56976422 -338.25633235 0.56822408 C-310.5486728 0.51977942 -282.84101338 0.4712667 -255.13335401 0.42271865 C-226.65796759 0.37282578 -198.18258105 0.32300165 -169.70719436 0.2732639 C-165.68440185 0.26623728 -161.66160934 0.25920988 -157.63881683 0.25218201 C-156.84708068 0.25079886 -156.05534453 0.24941571 -155.23961638 0.24799064 C-142.49955298 0.22573194 -129.7594897 0.20340086 -117.01942647 0.18104266 C-104.2085265 0.15856169 -91.3976264 0.13615711 -78.58672616 0.11383021 C-71.64667627 0.10173295 -64.70662643 0.08960212 -57.76657677 0.07737541 C-51.41159672 0.06618276 -45.05661651 0.05508694 -38.70163617 0.0440678 C-36.403995 0.0400668 -34.1063539 0.03603042 -31.80871287 0.03195482 C-9.72809113 -0.00717532 -9.72809113 -0.00717532 0 0 Z " fill="#F2F7FB" transform="translate(633,0)"/>
<path d="M0 0 C0.33 0 0.66 0 1 0 C1.06846081 46.82106209 1.13214492 93.64212809 1.16937256 140.46322632 C1.16992479 141.15598885 1.17047702 141.84875138 1.17104598 142.56250671 C1.18301709 157.61743219 1.19409789 172.6723582 1.20426132 187.72728501 C1.20925075 195.11001955 1.21443695 202.49275395 1.21972656 209.87548828 C1.2202496 210.61016633 1.22077263 211.34484438 1.22131152 212.1017854 C1.23836254 235.92275726 1.26841197 259.74369121 1.30518888 283.56464009 C1.34290755 308.03998135 1.36753905 332.51530162 1.37565996 356.99067145 C1.37681261 360.44617741 1.37811516 363.90168331 1.37950897 367.35718918 C1.37977866 368.03729468 1.38004836 368.71740018 1.38032622 369.41811493 C1.3850565 380.37411401 1.40361788 391.33004827 1.42732814 402.2860209 C1.45085993 413.29553071 1.45955198 424.30499116 1.45400551 435.31452902 C1.4514361 441.28178222 1.45545556 447.24884488 1.4768219 453.21606445 C1.49622696 458.67522764 1.49730929 464.1340714 1.48359558 469.59324901 C1.48189961 471.57181476 1.48702477 473.5504001 1.49953273 475.52892704 C1.51551518 478.21233422 1.50697738 480.89457848 1.49219131 483.57796669 C1.50269937 484.35154257 1.51320742 485.12511844 1.5240339 485.92213601 C1.45971818 491.06446898 0.39211924 494.12352025 -3 498 C-4.32 498.33 -5.64 498.66 -7 499 C-5.02 495.04 -5.02 495.04 -3 491 C-2.01 491 -1.02 491 0 491 C0 328.97 0 166.94 0 0 Z " fill="#E0EEF9" transform="translate(318,161)"/>
<path d="M0 0 C0.99 0 1.98 0 3 0 C3.33 147.18 3.66 294.36 4 446 C10.93 446.33 17.86 446.66 25 447 C25 447.33 25 447.66 25 448 C21.35418313 448.02887512 17.70839537 448.04675585 14.0625 448.0625 C13.02158203 448.07087891 11.98066406 448.07925781 10.90820312 448.08789062 C9.42416992 448.09272461 9.42416992 448.09272461 7.91015625 448.09765625 C6.53549194 448.10551147 6.53549194 448.10551147 5.13305664 448.11352539 C3 448 3 448 2 447 C1.90181954 444.72224029 1.87628922 442.44135742 1.87695217 440.16148281 C1.87579833 439.43432828 1.87464448 438.70717375 1.87345567 437.95798424 C1.87078208 435.49039475 1.87531722 433.02286886 1.87974548 430.55528259 C1.87930993 428.78075522 1.87843533 427.00622792 1.87715632 425.23170096 C1.87490818 420.33127544 1.87893697 415.43087155 1.88393438 410.53044879 C1.88823415 405.25502513 1.88679279 399.97960278 1.8860321 394.70417786 C1.88550657 385.55612331 1.88865646 376.40807587 1.89426994 367.26002312 C1.90238093 354.03331006 1.90499975 340.80660046 1.90625793 327.57988519 C1.90844909 306.12283492 1.91511088 284.66578844 1.92456055 263.20874023 C1.93373303 242.35945657 1.94081466 221.51017394 1.94506836 200.66088867 C1.94533108 199.3767433 1.94559381 198.09259792 1.94586449 196.76953905 C1.94716948 190.32765905 1.9484332 183.88577905 1.94967639 177.44389904 C1.96005098 123.96259674 1.977671 70.48129855 2 17 C1.34 17 0.68 17 0 17 C0 11.39 0 5.78 0 0 Z " fill="#1882D9" transform="translate(384,194)"/>
<path d="M0 0 C0.66 0.33 1.32 0.66 2 1 C1.67 1.33 1.34 1.66 1 2 C0.11180142 15.1192385 0.11180142 15.1192385 5 27 C5 27.66 5 28.32 5 29 C5.99 29 6.98 29 8 29 C8 29.66 8 30.32 8 31 C8.99 31 9.98 31 11 31 C11 31.66 11 32.32 11 33 C11.66 33 12.32 33 13 33 C13 33.99 13 34.98 13 36 C13.99 36 14.98 36 16 36 C16 36.66 16 37.32 16 38 C18.31 38 20.62 38 23 38 C23 38.66 23 39.32 23 40 C28.28 40 33.56 40 39 40 C39 39.34 39 38.68 39 38 C39.62648437 37.82984375 40.25296875 37.6596875 40.8984375 37.484375 C41.71570313 37.24203125 42.53296875 36.9996875 43.375 36.75 C44.59316406 36.40195313 44.59316406 36.40195313 45.8359375 36.046875 C48.50160497 34.75734633 48.84080531 33.64958786 50 31 C52.625 29.25 52.625 29.25 55 28 C53.68954637 31.93136089 52.16791954 34.31206827 49 37 C48.01 37.33 47.02 37.66 46 38 C45.505 38.99 45.505 38.99 45 40 C41.88778245 41.99346369 39.449898 42.23778951 35.796875 42.1953125 C34.32734375 42.18564453 34.32734375 42.18564453 32.828125 42.17578125 C31.81234375 42.15902344 30.7965625 42.14226562 29.75 42.125 C28.71875 42.11597656 27.6875 42.10695312 26.625 42.09765625 C24.08309713 42.07412011 21.5416672 42.04124023 19 42 C19 41.34 19 40.68 19 40 C17.35 40 15.7 40 14 40 C14 39.01 14 38.02 14 37 C13.01 36.67 12.02 36.34 11 36 C11 35.34 11 34.68 11 34 C10.21625 33.690625 9.4325 33.38125 8.625 33.0625 C6 32 6 32 4 31 C4 30.01 4 29.02 4 28 C3.01 28 2.02 28 1 28 C1 26.02 1 24.04 1 22 C0.34 22 -0.32 22 -1 22 C-1.02887814 18.52085059 -1.04675687 15.04173169 -1.0625 11.5625 C-1.07087891 10.56927734 -1.07925781 9.57605469 -1.08789062 8.55273438 C-1.09111328 7.60849609 -1.09433594 6.66425781 -1.09765625 5.69140625 C-1.10289307 4.81685791 -1.10812988 3.94230957 -1.11352539 3.04125977 C-1 1 -1 1 0 0 Z " fill="#4EA2E0" transform="translate(50,134)"/>
<path d="M0 0 C0.99 0.33 1.98 0.66 3 1 C3 5.95 3 10.9 3 16 C2.34 16 1.68 16 1 16 C1 17.65 1 19.3 1 21 C0.01 21 -0.98 21 -2 21 C-2.2475 21.598125 -2.495 22.19625 -2.75 22.8125 C-4.21965004 25.38438757 -5.43090159 26.53194377 -8 28 C-10.75 28.1875 -10.75 28.1875 -13 28 C-13 28.99 -13 29.98 -13 31 C-18.73842251 31.20413361 -23.60539047 31.27141454 -29 29 C-29 28.34 -29 27.68 -29 27 C-29.61875 26.95875 -30.2375 26.9175 -30.875 26.875 C-31.926875 26.441875 -31.926875 26.441875 -33 26 C-34.25 22.9375 -34.25 22.9375 -35 20 C-34.34 20 -33.68 20 -33 20 C-32.7525 20.61875 -32.505 21.2375 -32.25 21.875 C-30.67492305 24.55263081 -29.93242761 24.96065857 -27 26 C-24.07851091 26.23862545 -21.17864445 26.18813827 -18.25 26.125 C-17.45722656 26.11597656 -16.66445312 26.10695312 -15.84765625 26.09765625 C-13.89830719 26.07417012 -11.94911425 26.03830137 -10 26 C-9.67 25.34 -9.34 24.68 -9 24 C-7.33333333 23.33333333 -5.66666667 22.66666667 -4 22 C-3.67 21.34 -3.34 20.68 -3 20 C-2.01 20 -1.02 20 0 20 C1.12517561 13.24894632 1.68346268 6.73385072 0 0 Z " fill="#3E98DE" transform="translate(98,135)"/>
<path d="M0 0 C4.95 0 9.9 0 15 0 C15 0.66 15 1.32 15 2 C15.78375 2.2475 16.5675 2.495 17.375 2.75 C20.40937999 4.19494285 20.67029725 5.05565819 22 8 C22.99 8.33 23.98 8.66 25 9 C25 9.99 25 10.98 25 12 C25.99 12.33 26.98 12.66 28 13 C28 18.61 28 24.22 28 30 C27.01 30 26.02 30 25 30 C25.04640625 28.96359375 25.0928125 27.9271875 25.140625 26.859375 C25.17815275 25.48961221 25.21455184 24.11981818 25.25 22.75 C25.28351562 22.06808594 25.31703125 21.38617188 25.3515625 20.68359375 C25.41984252 17.16717272 25.33505904 15.40435839 23.0546875 12.65234375 C22.37664063 12.10707031 21.69859375 11.56179687 21 11 C20.31822584 9.67432801 19.64808564 8.34246312 19 7 C18.34 6.67 17.68 6.34 17 6 C17 5.34 17 4.68 17 4 C16.195625 4.020625 15.39125 4.04125 14.5625 4.0625 C12 4 12 4 11 3 C4.3053927 2.40226721 -0.08665874 3.94518262 -6 7 C-6.99 7.495 -6.99 7.495 -8 8 C-7 5 -7 5 -4 3.4375 C-3.01 2.963125 -2.02 2.48875 -1 2 C-0.67 1.34 -0.34 0.68 0 0 Z " fill="#9CCAEE" transform="translate(590,121)"/>
<path d="M0 0 C0.33 0 0.66 0 1 0 C1.08172936 2.5215021 1.14083373 5.04029917 1.1875 7.5625 C1.21263672 8.26697266 1.23777344 8.97144531 1.26367188 9.69726562 C1.3357891 14.91374455 0.27440019 18.31195062 -2 23 C-2.69140522 25.77888613 -2.69140522 25.77888613 -3 28 C-3.66 28 -4.32 28 -5 28 C-5.37705078 28.92425781 -5.37705078 28.92425781 -5.76171875 29.8671875 C-7.20818636 32.35857966 -8.22391932 32.94702256 -10.8125 34.125 C-11.47894531 34.43695312 -12.14539063 34.74890625 -12.83203125 35.0703125 C-13.54746094 35.37710938 -14.26289063 35.68390625 -15 36 C-15.68964844 36.36480469 -16.37929688 36.72960937 -17.08984375 37.10546875 C-21.604391 38.4931618 -26.05742304 38.24766124 -30.75 38.1875 C-31.72066406 38.18685547 -32.69132812 38.18621094 -33.69140625 38.18554688 C-40.85956743 38.14043257 -40.85956743 38.14043257 -42 37 C-44.32817964 36.63239269 -46.6618385 36.29758419 -49 36 C-49.66 34.35 -50.32 32.7 -51 31 C-50.113125 31.474375 -49.22625 31.94875 -48.3125 32.4375 C-45.42957244 33.79737149 -43.12389377 34.54060386 -40 35 C-40 35.66 -40 36.32 -40 37 C-36.9570141 36.91262714 -33.91681634 36.80569374 -30.875 36.6875 C-30.0190625 36.66494141 -29.163125 36.64238281 -28.28125 36.61914062 C-23.10357519 36.40008515 -19.55443743 35.69251696 -15 33 C-14.01 32.67 -13.02 32.34 -12 32 C-12 31.34 -12 30.68 -12 30 C-11.113125 29.525625 -10.22625 29.05125 -9.3125 28.5625 C-4.43514708 25.39568792 -2.58715856 20.41425864 -1 15 C-0.22346106 10.02867636 -0.07461043 5.02602975 0 0 Z " fill="#3895DE" transform="translate(368,668)"/>
<path d="M0 0 C0.72703125 0.14566406 1.4540625 0.29132813 2.203125 0.44140625 C2.79609375 0.62574219 3.3890625 0.81007813 4 1 C4.495 1.99 4.495 1.99 5 3 C5.99 3.33 6.98 3.66 8 4 C8.6875 6.0625 8.6875 6.0625 9 8 C4.125 6.25 4.125 6.25 3 4 C-0.02934491 3.34227572 -0.02934491 3.34227572 -3 3 C-3 2.34 -3 1.68 -3 1 C-9.6 1 -16.2 1 -23 1 C-23 1.66 -23 2.32 -23 3 C-24.98 3.33 -26.96 3.66 -29 4 C-29 3.34 -29 2.68 -29 2 C-20.67881484 -4.30392815 -9.43561905 -2.42984927 0 0 Z " fill="#C1DEF5" transform="translate(93,115)"/>
<path d="M0 0 C7.1446598 -0.48076215 14.03577893 -0.49397122 20 4 C20.7421875 6.140625 20.7421875 6.140625 21 8 C20.34 8 19.68 8 19 8 C19 7.01 19 6.02 19 5 C13.36792706 4.28804496 7.73716713 3.85926683 2.0625 3.6875 C0.98097656 3.65011719 -0.10054688 3.61273437 -1.21484375 3.57421875 C-4.13277314 3.71282592 -4.13277314 3.71282592 -5.75390625 6.01953125 C-6.16511719 6.67308594 -6.57632812 7.32664062 -7 8 C-7.66 8 -8.32 8 -9 8 C-9 8.66 -9 9.32 -9 10 C-9.66 9.67 -10.32 9.34 -11 9 C-9.74280103 5.22840309 -8.2876691 4.16687282 -5 2 C-2.1875 1.75 -2.1875 1.75 0 2 C0 1.34 0 0.68 0 0 Z " fill="#57A6E2" transform="translate(332,655)"/>
<path d="M0 0 C0 0.99 0 1.98 0 3 C-0.99 3 -1.98 3 -3 3 C-3.33 3.99 -3.66 4.98 -4 6 C-8.33668172 8.57490477 -13.10592414 8.39409225 -18 8 C-18.99 7.67 -19.98 7.34 -21 7 C-21 6.34 -21 5.68 -21 5 C-21.78375 4.896875 -22.5675 4.79375 -23.375 4.6875 C-26 4 -26 4 -28 1 C-27.35675781 1.2165625 -26.71351563 1.433125 -26.05078125 1.65625 C-18.56932522 3.96152033 -11.79612941 4.33465102 -4 4 C-4 3.34 -4 2.68 -4 2 C-2.68 1.34 -1.36 0.68 0 0 Z " fill="#6BB0E5" transform="translate(611,156)"/>
<path d="M0 0 C0.66 0.33 1.32 0.66 2 1 C0.41641358 4.16717283 -0.45263699 5.73268318 -3.6875 7.3125 C-4.450625 7.539375 -5.21375 7.76625 -6 8 C-6 9.32 -6 10.64 -6 12 C-6.66 12 -7.32 12 -8 12 C-8.144375 13.134375 -8.28875 14.26875 -8.4375 15.4375 C-9 19 -9 19 -10 20 C-10.23527773 22.34987262 -10.41386417 24.70556039 -10.5625 27.0625 C-10.64628906 28.35285156 -10.73007812 29.64320313 -10.81640625 30.97265625 C-10.87699219 31.97167969 -10.93757813 32.97070312 -11 34 C-11.33 34 -11.66 34 -12 34 C-12.60130364 14.40195546 -12.60130364 14.40195546 -7 6 C-6.34 6 -5.68 6 -5 6 C-4.731875 5.38125 -4.46375 4.7625 -4.1875 4.125 C-3 2 -3 2 0 0 Z " fill="#A9D1EF" transform="translate(62,119)"/>
<path d="M0 0 C3.10392079 2.25739694 3.85057943 5.03512673 4.65625 8.6875 C5.60672951 15.0816349 5.31634576 21.68154035 4 28 C3.34 28.66 2.68 29.32 2 30 C1.28591666 31.98356483 0.61382258 33.98315437 0 36 C-0.66 36 -1.32 36 -2 36 C-0.125 29.125 -0.125 29.125 1 28 C1.15764405 26.22130274 1.25100677 24.43681524 1.31640625 22.65234375 C1.35830078 21.57275391 1.40019531 20.49316406 1.44335938 19.38085938 C1.48267578 18.24455078 1.52199219 17.10824219 1.5625 15.9375 C1.60568359 14.79732422 1.64886719 13.65714844 1.69335938 12.48242188 C1.79982839 9.65507805 1.90184207 6.82764262 2 4 C1.34 4 0.68 4 0 4 C0 2.68 0 1.36 0 0 Z " fill="#9DCBEE" transform="translate(623,127)"/>
<path d="M0 0 C3.72901814 -0.08736736 7.45777165 -0.14051482 11.1875 -0.1875 C12.24259766 -0.21263672 13.29769531 -0.23777344 14.38476562 -0.26367188 C15.91713867 -0.27817383 15.91713867 -0.27817383 17.48046875 -0.29296875 C18.41785889 -0.3086792 19.35524902 -0.32438965 20.32104492 -0.34057617 C23.55681965 0.07078861 25.40470373 1.04645595 28 3 C28.495 4.485 28.495 4.485 29 6 C26.69 5.34 24.38 4.68 22 4 C22 3.34 22 2.68 22 2 C12.595 2.495 12.595 2.495 3 3 C2.67 3.66 2.34 4.32 2 5 C-0.32156597 5.40729228 -2.6568787 5.74438677 -5 6 C-4.67 5.34 -4.34 4.68 -4 4 C-2.68 4 -1.36 4 0 4 C0 2.68 0 1.36 0 0 Z " fill="#3393DE" transform="translate(585,111)"/>
<path d="M0 0 C1.3303125 0.7115625 1.3303125 0.7115625 2.6875 1.4375 C5.57042756 2.79737149 7.87610623 3.54060386 11 4 C11 4.66 11 5.32 11 6 C14.0429859 5.91262714 17.08318366 5.80569374 20.125 5.6875 C20.9809375 5.66494141 21.836875 5.64238281 22.71875 5.61914062 C27.92374583 5.39892926 31.38543733 4.61585391 36 2 C36.99 2 37.98 2 39 2 C36.06583511 5.39745408 33.16094206 6.83981421 28.6418457 7.17480469 C25.8418673 7.2327721 23.05031606 7.22340149 20.25 7.1875 C19.27933594 7.18685547 18.30867188 7.18621094 17.30859375 7.18554688 C10.14043257 7.14043257 10.14043257 7.14043257 9 6 C6.67182036 5.63239269 4.3381615 5.29758419 2 5 C1.34 3.35 0.68 1.7 0 0 Z " fill="#7EBCEA" transform="translate(317,699)"/>
<path d="M0 0 C0.66 0.33 1.32 0.66 2 1 C0.71061505 4.86815484 -0.41166717 5.16765983 -4 7 C-10.5407027 9.95975932 -15.87046946 10.37925979 -23 10.1875 C-24.44826172 10.16719727 -24.44826172 10.16719727 -25.92578125 10.14648438 C-28.28445425 10.11145458 -30.64191771 10.06234084 -33 10 C-33.33 9.34 -33.66 8.68 -34 8 C-33.36908447 8.00523682 -32.73816895 8.01047363 -32.08813477 8.01586914 C-29.24626653 8.03657826 -26.40441412 8.04964066 -23.5625 8.0625 C-22.56927734 8.07087891 -21.57605469 8.07925781 -20.55273438 8.08789062 C-19.60849609 8.09111328 -18.66425781 8.09433594 -17.69140625 8.09765625 C-16.81685791 8.10289307 -15.94230957 8.10812988 -15.04125977 8.11352539 C-13.00559794 8.22784809 -13.00559794 8.22784809 -12 7 C-10.33382885 6.95936168 -8.66611905 6.957279 -7 7 C-7 6.34 -7 5.68 -7 5 C-2.61538462 2 -2.61538462 2 0 2 C0 1.34 0 0.68 0 0 Z " fill="#8EC3EA" transform="translate(619,163)"/>
<path d="M0 0 C2.8046113 1.02679284 3.81604056 1.63869403 5.1953125 4.34765625 C5.50210938 5.24355469 5.80890625 6.13945312 6.125 7.0625 C7.164403 10.79112357 7.164403 10.79112357 10 13 C9.67 16.96 9.34 20.92 9 25 C8.34 25 7.68 25 7 25 C6.94392578 24.10861328 6.94392578 24.10861328 6.88671875 23.19921875 C6.3576382 16.52865413 4.93377584 10.39727101 3 4 C2.34 4 1.68 4 1 4 C0.67 2.68 0.34 1.36 0 0 Z " fill="#268CDA" transform="translate(621,123)"/>
<path d="M0 0 C5 2 5 2 7.3125 3.0625 C10.87375623 4.30479869 14.24882052 4.61852412 18 5 C18 4.34 18 3.68 18 3 C20.31 3 22.62 3 25 3 C25 2.34 25 1.68 25 1 C25.66 1 26.32 1 27 1 C27 1.99 27 2.98 27 4 C19.24235752 6.38696692 10.44154359 7.79191825 2.75 4.5 C1.8425 4.005 0.935 3.51 0 3 C0 2.01 0 1.02 0 0 Z " fill="#74B5E9" transform="translate(323,690)"/>
<path d="M0 0 C0.66 0.33 1.32 0.66 2 1 C1.67 1.33 1.34 1.66 1 2 C0.11180142 15.1192385 0.11180142 15.1192385 5 27 C5 27.66 5 28.32 5 29 C5.66 29 6.32 29 7 29 C6.67 29.99 6.34 30.98 6 32 C5.34 31.67 4.68 31.34 4 31 C4 30.01 4 29.02 4 28 C3.01 28 2.02 28 1 28 C1 26.02 1 24.04 1 22 C0.34 22 -0.32 22 -1 22 C-1.02887814 18.52085059 -1.04675687 15.04173169 -1.0625 11.5625 C-1.07087891 10.56927734 -1.07925781 9.57605469 -1.08789062 8.55273438 C-1.09111328 7.60849609 -1.09433594 6.66425781 -1.09765625 5.69140625 C-1.10289307 4.81685791 -1.10812988 3.94230957 -1.11352539 3.04125977 C-1 1 -1 1 0 0 Z " fill="#55A4E1" transform="translate(50,134)"/>
<path d="M0 0 C0.99 0.33 1.98 0.66 3 1 C2.67 5.95 2.34 10.9 2 16 C2.66 16 3.32 16 4 16 C5.6875 18.375 5.6875 18.375 7 21 C6.67 21.66 6.34 22.32 6 23 C5.01 22.67 4.02 22.34 3 22 C3 20.68 3 19.36 3 18 C2.01 17.67 1.02 17.34 0 17 C0 11.39 0 5.78 0 0 Z " fill="#B2D5F0" transform="translate(316,667)"/>
<path d="M0 0 C0.33 0.66 0.66 1.32 1 2 C1.99 2 2.98 2 4 2 C4 2.66 4 3.32 4 4 C4.66 4 5.32 4 6 4 C6 4.99 6 5.98 6 7 C6.99 7 7.98 7 9 7 C9 7.66 9 8.32 9 9 C11.31 9 13.62 9 16 9 C16 9.66 16 10.32 16 11 C20.95 11 25.9 11 31 11 C31 11.33 31 11.66 31 12 C12.41353383 12.60902256 12.41353383 12.60902256 4 7 C4 6.34 4 5.68 4 5 C2.68 4.34 1.36 3.68 0 3 C0 2.01 0 1.02 0 0 Z " fill="#AFD4F1" transform="translate(57,163)"/>
<path d="M0 0 C0.33 0.99 0.66 1.98 1 3 C1.99 3 2.98 3 4 3 C5.88287154 20.38035264 5.88287154 20.38035264 2.5625 25 C1 26 1 26 -1 26 C-1 26.66 -1 27.32 -1 28 C-1.66 27.67 -2.32 27.34 -3 27 C-2.67 26.34 -2.34 25.68 -2 25 C-1.34 25 -0.68 25 0 25 C0 23.68 0 22.36 0 21 C0.99 21 1.98 21 3 21 C3 15.39 3 9.78 3 4 C2.01 4 1.02 4 0 4 C0 2.68 0 1.36 0 0 Z " fill="#8CC2EB" transform="translate(353,663)"/>
<path d="M0 0 C0.99 0.33 1.98 0.66 3 1 C3 1.99 3 2.98 3 4 C3.99 4.33 4.98 4.66 6 5 C6 10.61 6 16.22 6 22 C5.01 22 4.02 22 3 22 C3.03480469 20.99839844 3.06960938 19.99679688 3.10546875 18.96484375 C3.42334181 9.10236805 3.42334181 9.10236805 0 0 Z " fill="#B6D8F2" transform="translate(612,129)"/>
<path d="M0 0 C0.66 0.33 1.32 0.66 2 1 C1.51273438 1.66128906 1.02546875 2.32257813 0.5234375 3.00390625 C-1.36008648 6.70817007 -1.44279705 9.88097626 -1.375 13.9375 C-1.38660156 14.62779297 -1.39820313 15.31808594 -1.41015625 16.02929688 C-1.38330542 20.75056823 -0.39284362 23.95495484 2 28 C1.01 27.67 0.02 27.34 -1 27 C-1 26.34 -1 25.68 -1 25 C-1.66 25 -2.32 25 -3 25 C-4.70378433 8.39961487 -4.70378433 8.39961487 0 0 Z " fill="#A1CDEE" transform="translate(580,129)"/>
<path d="M0 0 C0 0.33 0 0.66 0 1 C-6.93 1 -13.86 1 -21 1 C-21 1.99 -21 2.98 -21 4 C-22.98 4.33 -24.96 4.66 -27 5 C-27 4.34 -27 3.68 -27 3 C-19.43628682 -2.73008574 -8.86664351 -1.47777392 0 0 Z " fill="#61ABE4" transform="translate(91,114)"/>
<path d="M0 0 C0.66 0 1.32 0 2 0 C2.24621094 0.60328125 2.49242188 1.2065625 2.74609375 1.828125 C5.00737137 5.74485509 8.87769399 7.41596575 13 9 C16.14280395 9.38338422 18.81921327 9.25244339 22 9 C22 9.66 22 10.32 22 11 C16.26157749 11.20413361 11.39460953 11.27141454 6 9 C6 8.34 6 7.68 6 7 C5.38125 6.95875 4.7625 6.9175 4.125 6.875 C3.42375 6.58625 2.7225 6.2975 2 6 C0.75 2.9375 0.75 2.9375 0 0 Z " fill="#9ECBEE" transform="translate(63,155)"/>
<path d="M0 0 C1.46484375 1.046875 1.46484375 1.046875 3 3 C3.86264776 8.6974875 4.41368591 15.33243615 1.65234375 20.54296875 C0 22.4375 0 22.4375 -3 25 C-3 22 -3 22 -1 20 C-0.35232207 17.42938689 -0.35232207 17.42938689 0 15 C0.66 15 1.32 15 2 15 C1.34650367 7.44961578 1.34650367 7.44961578 0 0 Z " fill="#3493DD" transform="translate(613,133)"/>
<path d="M0 0 C0 0.33 0 0.66 0 1 C-0.70125 1.02578125 -1.4025 1.0515625 -2.125 1.078125 C-9.90718915 1.54336457 -15.87734155 2.71299111 -21.375 8.5 C-22.75682431 10.62588355 -23.97110737 12.68499158 -25 15 C-25.38838341 11.69874105 -24.99037458 9.97949367 -23.5625 6.9375 C-17.13345168 -0.43238466 -9.27323123 -0.56486688 0 0 Z " fill="#91C6EE" transform="translate(86,124)"/>
<path d="M0 0 C2.4375 0.375 2.4375 0.375 5 1 C5.33 1.66 5.66 2.32 6 3 C9.4374823 3.02901394 12.87493312 3.04680335 16.3125 3.0625 C17.77719727 3.07506836 17.77719727 3.07506836 19.27148438 3.08789062 C20.20927734 3.09111328 21.14707031 3.09433594 22.11328125 3.09765625 C22.97735596 3.10289307 23.84143066 3.10812988 24.73168945 3.11352539 C27.16728714 3.09335523 27.16728714 3.09335523 30 2 C30 2.99 30 3.98 30 5 C21.75 5 13.5 5 5 5 C4.67 4.01 4.34 3.02 4 2 C2.68 2 1.36 2 0 2 C0 1.34 0 0.68 0 0 Z " fill="#3594DC" transform="translate(580,169)"/>
<path d="M0 0 C0.33 0 0.66 0 1 0 C1 6.6 1 13.2 1 20 C0.34 19.67 -0.32 19.34 -1 19 C-2.55128484 12.63973216 -2.98416262 5.96832525 0 0 Z " fill="#479DDF" transform="translate(62,135)"/>
<path d="M0 0 C0.99 0 1.98 0 3 0 C1.125 5.875 1.125 5.875 0 7 C-0.165 8.155 -0.33 9.31 -0.5 10.5 C-1 14 -1 14 -2 15 C-2.23192865 16.51469448 -2.41215238 18.03754562 -2.5625 19.5625 C-2.64628906 20.38878906 -2.73007812 21.21507812 -2.81640625 22.06640625 C-2.87699219 22.70449219 -2.93757813 23.34257813 -3 24 C-3.33 24 -3.66 24 -4 24 C-4 20.04 -4 16.08 -4 12 C-3.34 12 -2.68 12 -2 12 C-2 9.69 -2 7.38 -2 5 C-1.34 5 -0.68 5 0 5 C0 3.35 0 1.7 0 0 Z " fill="#54A5E3" transform="translate(309,657)"/>
<path d="M0 0 C2 1 2 1 3.109375 3.0625 C4.22382067 6.73821554 4.29208741 10.19810399 4.25 14 C4.25773437 14.69867187 4.26546875 15.39734375 4.2734375 16.1171875 C4.25808241 20.18628563 3.8011034 23.34061531 2 27 C1.67 27 1.34 27 1 27 C0.957279 25.33388095 0.95936168 23.66617115 1 22 C1.33 21.67 1.66 21.34 2 21 C2.4535999 14.31203869 2.20163319 8.32969542 0 2 C0 1.34 0 0.68 0 0 Z " fill="#A7CFEF" transform="translate(364,661)"/>
<path d="M0 0 C0.33 1.32 0.66 2.64 1 4 C0.34 4 -0.32 4 -1 4 C-1.144375 5.134375 -1.28875 6.26875 -1.4375 7.4375 C-2 11 -2 11 -3 12 C-3.23527773 14.34987262 -3.41386417 16.70556039 -3.5625 19.0625 C-3.64628906 20.35285156 -3.73007812 21.64320313 -3.81640625 22.97265625 C-3.87699219 23.97167969 -3.93757813 24.97070312 -4 26 C-4.33 26 -4.66 26 -5 26 C-5.05380578 23.20807795 -5.09357669 20.4171859 -5.125 17.625 C-5.14175781 16.8309375 -5.15851562 16.036875 -5.17578125 15.21875 C-5.19335473 13.14507985 -5.10335168 11.07116759 -5 9 C-4.34 8.34 -3.68 7.68 -3 7 C-1.96157435 4.68351201 -0.9578025 2.35096976 0 0 Z " fill="#CCE5F8" transform="translate(55,127)"/>
<path d="M0 0 C7.26 0 14.52 0 22 0 C22 0.33 22 0.66 22 1 C12.595 1.495 12.595 1.495 3 2 C2.67 2.66 2.34 3.32 2 4 C-0.32156597 4.40729228 -2.6568787 4.74438677 -5 5 C-4.67 4.34 -4.34 3.68 -4 3 C-2.68 3 -1.36 3 0 3 C0 2.01 0 1.02 0 0 Z " fill="#85C0EC" transform="translate(585,112)"/>
<path d="M0 0 C1.66666667 0 3.33333333 0 5 0 C3.80313938 3.59058187 2.79133419 4.10318984 -0.3125 6.125 C-1.09238281 6.64320313 -1.87226562 7.16140625 -2.67578125 7.6953125 C-4.83027467 8.90472561 -6.58734097 9.54728137 -9 10 C-9 9.34 -9 8.68 -9 8 C-7 6.375 -7 6.375 -5 5 C-4.34 5.33 -3.68 5.66 -3 6 C-3 5.34 -3 4.68 -3 4 C-2.01 4 -1.02 4 0 4 C0 2.68 0 1.36 0 0 Z " fill="#1381D6" transform="translate(644,733)"/>
<path d="M0 0 C0.99 0.33 1.98 0.66 3 1 C3 5.95 3 10.9 3 16 C2.34 16 1.68 16 1 16 C1 17.65 1 19.3 1 21 C0.34 20.67 -0.32 20.34 -1 20 C-0.505 18.515 -0.505 18.515 0 17 C1.62211177 11.31685664 1.43561935 5.74247741 0 0 Z " fill="#96C8ED" transform="translate(98,135)"/>
<path d="M0 0 C1.125 3.75 1.125 3.75 0 6 C-0.22622081 7.70363822 -0.40888473 9.41328701 -0.5625 11.125 C-0.64628906 12.03507813 -0.73007812 12.94515625 -0.81640625 13.8828125 C-0.87699219 14.58148437 -0.93757813 15.28015625 -1 16 C-0.34 16 0.32 16 1 16 C1 17.65 1 19.3 1 21 C0.67 20.01 0.34 19.02 0 18 C-0.66 18 -1.32 18 -2 18 C-2.05397335 15.5622037 -2.09365616 13.12560315 -2.125 10.6875 C-2.14175781 9.99720703 -2.15851563 9.30691406 -2.17578125 8.59570312 C-2.21217794 4.82864604 -2.14378864 3.21568296 0 0 Z " fill="#2C90DD" transform="translate(320,665)"/>
<path d="M0 0 C0 3.52119695 -1.02843078 4.94379819 -3.2890625 7.5703125 C-6.38822457 10.16002327 -10.13778222 11.04075637 -14 12 C-14.33 11.34 -14.66 10.68 -15 10 C-14.37351562 9.82984375 -13.74703125 9.6596875 -13.1015625 9.484375 C-12.28429687 9.24203125 -11.46703125 8.9996875 -10.625 8.75 C-9.81289062 8.51796875 -9.00078125 8.2859375 -8.1640625 8.046875 C-5.50242162 6.75929422 -5.12388824 5.66403139 -4 3 C-1.875 1.25 -1.875 1.25 0 0 Z " fill="#8BC2EC" transform="translate(104,162)"/>
<path d="M0 0 C0.33 0 0.66 0 1 0 C1.04898438 1.07121094 1.09796875 2.14242187 1.1484375 3.24609375 C1.22345294 4.64325639 1.2990013 6.0403905 1.375 7.4375 C1.4059375 8.14455078 1.436875 8.85160156 1.46875 9.58007812 C1.57280629 11.39239188 1.77919892 13.19817988 2 15 C2.66 15.33 3.32 15.66 4 16 C4.625 19.0625 4.625 19.0625 5 22 C1.86377059 19.90918039 1.17647866 19.42859496 0 16 C-0.13997227 13.21175242 -0.1888913 10.53172884 -0.125 7.75 C-0.11597656 7.00492188 -0.10695313 6.25984375 -0.09765625 5.4921875 C-0.07418358 3.66131941 -0.03831525 1.83061762 0 0 Z " fill="#3B96DC" transform="translate(578,135)"/>
<path d="M0 0 C2.05078125 0.03255208 4.1015625 0.06510417 6.15234375 0.09765625 C6.48234375 2.07765625 6.81234375 4.05765625 7.15234375 6.09765625 C3.24022642 4.9418034 0.27783965 3.74230663 -2.84765625 1.09765625 C-1.84765625 0.09765625 -1.84765625 0.09765625 0 0 Z " fill="#0A7DD6" transform="translate(30.84765625,737.90234375)"/>
<path d="M0 0 C2.27076842 -0.02699725 4.54162821 -0.04639453 6.8125 -0.0625 C8.07707031 -0.07410156 9.34164062 -0.08570312 10.64453125 -0.09765625 C14 0 14 0 17 1 C17.33 1.99 17.66 2.98 18 4 C15.525 3.505 15.525 3.505 13 3 C13 2.34 13 1.68 13 1 C11.0412957 1.14076315 9.08303907 1.2877676 7.125 1.4375 C6.03445312 1.51871094 4.94390625 1.59992188 3.8203125 1.68359375 C1.05271029 1.83001703 1.05271029 1.83001703 -1 3 C-0.67 2.01 -0.34 1.02 0 0 Z " fill="#D6E8F6" transform="translate(73,123)"/>
<path d="M0 0 C0.33 0.66 0.66 1.32 1 2 C1.99 1.67 2.98 1.34 4 1 C4.125 6.75 4.125 6.75 3 9 C2.01 8.67 1.02 8.34 0 8 C0 7.01 0 6.02 0 5 C-0.185625 4.29875 -0.37125 3.5975 -0.5625 2.875 C-0.706875 2.25625 -0.85125 1.6375 -1 1 C-0.67 0.67 -0.34 0.34 0 0 Z " fill="#0D7DD5" transform="translate(658,708)"/>
<path d="M0 0 C0.66 0.33 1.32 0.66 2 1 C0.7260411 3.03833424 -0.61061923 5.03852126 -2 7 C-2.66 7 -3.32 7 -4 7 C-4 7.66 -4 8.32 -4 9 C-6 10.625 -6 10.625 -8 12 C-7.67 10.35 -7.34 8.7 -7 7 C-6.34 7 -5.68 7 -5 7 C-5 6.34 -5 5.68 -5 5 C-4.01 5 -3.02 5 -2 5 C-2 4.01 -2 3.02 -2 2 C-1.34 2 -0.68 2 0 2 C0 1.34 0 0.68 0 0 Z " fill="#B4D8F2" transform="translate(578,117)"/>
<path d="M0 0 C3.25 -0.375 3.25 -0.375 6 0 C5.67 1.32 5.34 2.64 5 4 C4.67 3.34 4.34 2.68 4 2 C3.34 2 2.68 2 2 2 C2 2.66 2 3.32 2 4 C1.01 4 0.02 4 -1 4 C-1.33 4.99 -1.66 5.98 -2 7 C-2.66 6.67 -3.32 6.34 -4 6 C-2.375 3 -2.375 3 0 0 Z " fill="#1684D9" transform="translate(105,162)"/>
<path d="M0 0 C0.5775 0.226875 1.155 0.45375 1.75 0.6875 C1.09 0.6875 0.43 0.6875 -0.25 0.6875 C-0.25 1.3475 -0.25 2.0075 -0.25 2.6875 C-1.57 2.6875 -2.89 2.6875 -4.25 2.6875 C-4.25 3.6775 -4.25 4.6675 -4.25 5.6875 C-5.9 6.3475 -7.55 7.0075 -9.25 7.6875 C-4.73882682 -0.65817039 -4.73882682 -0.65817039 0 0 Z " fill="#3A97DD" transform="translate(72.25,127.3125)"/>
<path d="M0 0 C0.763125 0.309375 1.52625 0.61875 2.3125 0.9375 C4.18789677 1.67893593 6.08684652 2.36228217 8 3 C8.33 3.99 8.66 4.98 9 6 C6.36 5.34 3.72 4.68 1 4 C0.67 2.68 0.34 1.36 0 0 Z " fill="#A8D0EF" transform="translate(323,690)"/>
<path d="M0 0 C0.66 0.33 1.32 0.66 2 1 C0.73721868 4.78834395 -0.52112952 5.22011278 -4 7 C-6.3125 7.6875 -6.3125 7.6875 -8 8 C-6.74874616 4.24623848 -5.4347596 3.75926711 -2 2 C-1.34 2 -0.68 2 0 2 C0 1.34 0 0.68 0 0 Z " fill="#489EDF" transform="translate(619,163)"/>
<path d="M0 0 C2.9375 0.375 2.9375 0.375 6 1 C6.33 1.66 6.66 2.32 7 3 C7.99 3.33 8.98 3.66 10 4 C10.6875 6.0625 10.6875 6.0625 11 8 C7.34683329 6.75023244 6.21934164 6.32901247 4 3 C1.94074861 2.27617533 1.94074861 2.27617533 0 2 C0 1.34 0 0.68 0 0 Z " fill="#6AB0E5" transform="translate(91,115)"/>
<path d="M0 0 C0.66 0 1.32 0 2 0 C2.66 2.31 3.32 4.62 4 7 C4.66 7 5.32 7 6 7 C5.67 7.99 5.34 8.98 5 10 C4.34 9.67 3.68 9.34 3 9 C3 8.01 3 7.02 3 6 C2.01 6 1.02 6 0 6 C0 4.02 0 2.04 0 0 Z " fill="#459BDE" transform="translate(51,156)"/>
<path d="M0 0 C0.66 0.33 1.32 0.66 2 1 C-1.61328125 5.6875 -1.61328125 5.6875 -3 7 C-3.99 7 -4.98 7 -6 7 C-4.60667426 3.63279613 -3.0210714 2.0140476 0 0 Z " fill="#2289D9" transform="translate(587,125)"/>
<path d="M0 0 C0.66 0.66 1.32 1.32 2 2 C0.35 4.31 -1.3 6.62 -3 9 C-5 6 -5 6 -5 4 C-3.35 3.34 -1.7 2.68 0 2 C0 1.34 0 0.68 0 0 Z " fill="#1582D7" transform="translate(656,722)"/>
<path d="M0 0 C0.33 0 0.66 0 1 0 C1.19392201 5.52677733 0.7479503 9.75614911 -1 15 C-1.33 15 -1.66 15 -2 15 C-2.19392201 9.47322267 -1.7479503 5.24385089 0 0 Z " fill="#298CD9" transform="translate(99,140)"/>
<path d="M0 0 C2.32758311 0.93103324 3.74357132 1.65382128 5.25 3.6875 C6.27095909 6.83545718 6.12632947 9.71543368 6 13 C5.67 13 5.34 13 5 13 C4.34 10.03 3.68 7.06 3 4 C2.34 4 1.68 4 1 4 C0.67 2.68 0.34 1.36 0 0 Z " fill="#4BA1E2" transform="translate(621,123)"/>
<path d="M0 0 C0.99 0.33 1.98 0.66 3 1 C3 2.32 3 3.64 3 5 C3.66 5 4.32 5 5 5 C5.33 6.65 5.66 8.3 6 10 C5.34 10 4.68 10 4 10 C3.3310968 8.52184338 2.66493641 7.04244528 2 5.5625 C1.62875 4.73878906 1.2575 3.91507813 0.875 3.06640625 C0 1 0 1 0 0 Z " fill="#D2E7F7" transform="translate(51,153)"/>
<path d="M0 0 C0.99 0.33 1.98 0.66 3 1 C2.21625 1.9075 1.4325 2.815 0.625 3.75 C-1.30052496 6.05190236 -2.82205741 8.21577207 -4 11 C-4.56638908 6.18569279 -2.82561627 3.79692186 0 0 Z " fill="#C0DDF4" transform="translate(65,128)"/>
<path d="M0 0 C0 0.33 0 0.66 0 1 C-1.65 1 -3.3 1 -5 1 C-5 1.99 -5 2.98 -5 4 C-6.98 4.33 -8.96 4.66 -11 5 C-11 4.34 -11 3.68 -11 3 C-7.28026121 0.15549386 -4.62609198 -0.3227506 0 0 Z " fill="#7BB8E8" transform="translate(75,114)"/>
<path d="M0 0 C5.875 2.75 5.875 2.75 7 5 C5.35 5 3.7 5 2 5 C1.34 3.35 0.68 1.7 0 0 Z " fill="#4CA1E1" transform="translate(317,699)"/>
<path d="M0 0 C0.99 0 1.98 0 3 0 C1.90931332 3.77545388 1.0916909 6.47043472 -2 9 C-2 7.68 -2 6.36 -2 5 C-1.34 5 -0.68 5 0 5 C0 3.35 0 1.7 0 0 Z " fill="#429BDF" transform="translate(309,657)"/>
<path d="M0 0 C0.66 0.33 1.32 0.66 2 1 C1.01 2.485 1.01 2.485 0 4 C0 4.99 0 5.98 0 7 C-1.32 7.33 -2.64 7.66 -4 8 C-2.68 5.36 -1.36 2.72 0 0 Z " fill="#ABD4F1" transform="translate(315,652)"/>
<path d="M0 0 C4.55737263 0.43820891 7.57653445 0.85041169 11 4 C9.02 4 7.04 4 5 4 C5 3.34 5 2.68 5 2 C3.35 2 1.7 2 0 2 C0 1.34 0 0.68 0 0 Z " fill="#419BE0" transform="translate(64,172)"/>
</svg>
