<?xml version="1.0" encoding="UTF-8"?>
<svg version="1.1" xmlns="http://www.w3.org/2000/svg" width="1040" height="240">
<path d="M0 0 C343.2 0 686.4 0 1040 0 C1040 79.2 1040 158.4 1040 240 C696.8 240 353.6 240 0 240 C0 160.8 0 81.6 0 0 Z " fill="#FDFEFE" transform="translate(0,0)"/>
<path d="M0 0 C0.77153241 -0.00311998 1.54306481 -0.00623996 2.33797699 -0.00945449 C4.93129201 -0.01745155 7.52437415 -0.01110421 10.11769104 -0.00482178 C11.97369016 -0.0075309 13.82968821 -0.01109139 15.6856842 -0.01544189 C20.73316152 -0.02457811 25.78055729 -0.02101639 30.82803607 -0.01468372 C36.10460811 -0.00962935 41.38117305 -0.01431368 46.65774536 -0.01745605 C55.52087155 -0.02109766 64.38396444 -0.01629183 73.24708557 -0.0067749 C83.49959974 0.00410666 93.75203435 0.00058701 104.00454658 -0.01042771 C112.79950818 -0.01949904 121.5944458 -0.02078652 130.38941056 -0.01555037 C135.6455297 -0.0124294 140.90161144 -0.01202478 146.1577282 -0.01862335 C151.09970962 -0.02439381 156.04158834 -0.02040538 160.98355865 -0.00883484 C162.79923138 -0.00618651 164.61491273 -0.00695629 166.43058205 -0.01136017 C168.90549887 -0.0168103 171.38008482 -0.00998798 173.85498047 0 C174.57667197 -0.00446144 175.29836347 -0.00892289 176.04192442 -0.01351953 C182.56772982 0.03770175 182.56772982 0.03770175 185.49098206 2.25396729 C188.98084524 6.46746347 188.92204447 10.69370241 188.89212036 15.93240356 C188.89891703 16.80561693 188.9057137 17.6788303 188.91271633 18.57850468 C188.93170496 21.50413803 188.92925042 24.42935335 188.92677307 27.3550415 C188.93574952 29.45277445 188.9459575 31.55050243 188.95730591 33.64822388 C188.98382078 39.34658965 188.99083998 45.0448203 188.99275327 50.74324179 C188.99560157 55.49976567 189.00663755 60.25625806 189.01726955 65.01276982 C189.04170094 76.23429848 189.04902244 87.45575493 189.04689026 98.67730713 C189.04508757 110.2546141 189.07675002 121.83150186 189.12412125 133.40870273 C189.16334075 143.34770427 189.17944226 153.28656875 189.17752403 163.22564709 C189.17675889 169.1621665 189.18532224 175.09831335 189.21705818 181.03475571 C189.24609094 186.61799544 189.24634717 192.20050616 189.22450829 197.78377151 C189.22136943 199.83201918 189.22846768 201.88031215 189.24658966 203.92848206 C189.26974583 206.72703359 189.25582723 209.52306648 189.23269653 212.32156372 C189.24812722 213.13042617 189.26355791 213.93928861 189.2794562 214.77266204 C189.18445505 219.98050472 187.95807985 223.18622757 184.28549141 226.95044172 C181.2497137 229.15562045 178.19913106 229.22123012 174.59669495 229.14285278 C173.81992684 229.15377272 173.04315874 229.16469265 172.24285221 229.17594349 C169.64882559 229.20379053 167.05768442 229.18178451 164.46363831 229.159729 C162.60057399 229.1692177 160.7375228 229.18168325 158.87449646 229.19689941 C153.82056323 229.22879642 148.76763086 229.21644571 143.71368027 229.19424582 C138.42335576 229.17651592 133.13311659 229.19296137 127.8427887 229.20394897 C118.95876183 229.21668213 110.07514237 229.19990653 101.19117737 229.16656494 C90.92186235 229.12846905 80.65352015 229.14080905 70.38422871 229.17934978 C61.56531863 229.21112175 52.74670132 229.21559538 43.92775249 229.1972791 C38.66140485 229.18636903 33.39551439 229.18490178 28.12919617 229.20803452 C23.17771525 229.22826527 18.2274877 229.21421456 13.27614212 229.17377472 C11.45971381 229.16452355 9.64317989 229.16716981 7.82679367 229.18261337 C5.34486511 229.20176912 2.86694272 229.17774056 0.38526917 229.14285278 C-0.69129645 229.16627536 -0.69129645 229.16627536 -1.78961086 229.19017112 C-5.87740109 229.07881395 -8.1726495 228.10953326 -10.95605373 225.25668716 C-14.10681682 221.05601805 -14.34847852 217.4453238 -14.25073242 212.32156372 C-14.26159729 211.0070637 -14.26159729 211.0070637 -14.27268165 209.66600811 C-14.28953549 206.74134921 -14.26365397 203.81867329 -14.23777771 200.894104 C-14.24099783 198.7928311 -14.24681635 196.69156081 -14.2550354 194.59030151 C-14.26956228 188.8919511 -14.24663893 183.19430681 -14.21617627 177.49604177 C-14.18980743 171.53263763 -14.1951076 165.56925501 -14.19625854 159.60580444 C-14.19345008 149.5937113 -14.1674164 139.58189116 -14.12644958 129.56988525 C-14.07924871 117.99146595 -14.06345624 106.41334541 -14.06565624 94.83483684 C-14.06748669 83.6974268 -14.05217565 72.56011411 -14.02728081 61.42273331 C-14.01668471 56.68201055 -14.01119142 51.94132225 -14.00959969 47.20058823 C-14.006588 41.62073443 -13.98828713 36.04113184 -13.95810127 30.46136093 C-13.94933309 28.41229795 -13.9456488 26.36320606 -13.94738388 24.31412506 C-13.94885466 21.51995016 -13.93190399 18.72648029 -13.91015625 15.93240356 C-13.91480206 15.11907967 -13.91944786 14.30575578 -13.92423445 13.46778572 C-13.865291 8.89112984 -13.39388402 5.86796587 -10.50901794 2.25396729 C-6.8699496 -0.17207828 -4.20449148 -0.02591176 0 0 Z " fill="#0579D3" transform="translate(18.509017944335938,3.74603271484375)"/>
<path d="M0 0 C1.68046573 -0.00405354 3.360928 -0.00988638 5.04138184 -0.01739502 C8.54469662 -0.02618579 12.04708667 -0.0135646 15.55029297 0.01464844 C20.00886414 0.04883322 24.46526755 0.02912007 28.92375946 -0.00678635 C32.38832513 -0.02861636 35.85238885 -0.0215001 39.31697083 -0.00601959 C40.95937873 -0.00205786 42.60183437 -0.00678321 44.2441864 -0.02089691 C55.62478524 -0.09726866 65.00923344 1.00569298 73.86877441 9.02618408 C83.32047583 18.6899556 84.0133072 28.64565781 83.9375 41.51171875 C83.9402001 43.13399996 83.94408682 44.75627958 83.94909668 46.3785553 C83.9549691 49.76676958 83.94650345 53.15455992 83.92773438 56.54272461 C83.90496409 60.86104884 83.91806947 65.17837734 83.94202423 69.496665 C83.95655942 72.84354494 83.95184084 76.1901934 83.94151306 79.53708076 C83.93886608 81.12810958 83.94204321 82.71916018 83.95143127 84.3101635 C84.00918933 96.84840894 82.55076617 106.40771616 73.625 115.81640625 C66.47334523 122.20001359 59.62578465 123.90103951 50.2043457 123.97387695 C49.49791428 123.98044815 48.79148285 123.98701935 48.06364441 123.99378967 C45.73643873 124.01342428 43.40929734 124.02516431 41.08203125 124.03515625 C40.2826885 124.03923178 39.48334576 124.0433073 38.6597805 124.04750633 C34.42724241 124.068327 30.19473634 124.08264495 25.9621582 124.09204102 C21.6124432 124.1030863 17.26324242 124.13747566 12.91370869 124.17721272 C9.54972954 124.20348118 6.18587099 124.21174195 2.82179832 124.21532249 C1.21957114 124.22016347 -0.38265156 124.23170563 -1.98477745 124.25036049 C-13.97488871 124.38127524 -23.7344153 123.3610416 -32.83984375 114.7890625 C-38.91251404 107.89137464 -41.82796385 99.79199116 -41.88427734 90.66503906 C-41.89099457 89.97796875 -41.89771179 89.29089844 -41.90463257 88.58300781 C-41.92352887 86.32609695 -41.92753279 84.06948491 -41.9296875 81.8125 C-41.93612242 80.23077272 -41.94285128 78.64904662 -41.94985962 77.06732178 C-41.96181232 73.75546513 -41.96554264 70.44371262 -41.96435547 67.13183594 C-41.96415266 62.91101816 -41.99142364 58.69087656 -42.02589989 54.47021866 C-42.04826265 51.20315554 -42.05219012 47.93625257 -42.05113602 44.66912079 C-42.05347909 43.1143537 -42.06222881 41.55958131 -42.07780075 40.00489044 C-42.17502557 29.2933902 -41.54175004 19.47487505 -34.09375 11.046875 C-24.02275561 0.91403429 -13.48537793 -0.11588778 0 0 Z " fill="#0579D3" transform="translate(710.59375,107.203125)"/>
<path d="M0 0 C0.72272598 -0.00832352 1.44545197 -0.01664703 2.19007874 -0.02522278 C4.57265675 -0.049257 6.95496018 -0.05808951 9.33764648 -0.06469727 C11.00569231 -0.0736731 12.67373735 -0.08279511 14.34178162 -0.09205627 C17.83952789 -0.10853417 21.33717864 -0.1162434 24.83496094 -0.11914062 C29.28777049 -0.12450363 33.73966387 -0.16210155 38.19221592 -0.20788479 C41.64036717 -0.23783881 45.08830346 -0.24486823 48.53657341 -0.24586678 C50.1762299 -0.25003777 51.81588892 -0.26234467 53.45541573 -0.28338432 C65.46337703 -0.42513313 75.94782212 0.63899278 85.14624023 9.18139648 C91.68505146 16.39991782 93.74718754 22.71617165 93.82324219 32.41650391 C93.82981339 33.11318176 93.83638458 33.80985962 93.84315491 34.52764893 C93.86278709 36.82238901 93.87452904 39.1170639 93.88452148 41.41186523 C93.88859701 42.20017542 93.89267254 42.9884856 93.89687157 43.80068398 C93.91769128 47.97486733 93.93200959 52.14901823 93.94140625 56.32324219 C93.95245092 60.61242633 93.9868398 64.90108892 94.02657795 69.19008923 C94.05284974 72.50774534 94.06110748 75.82527921 94.06468773 79.14303017 C94.06952791 80.72292915 94.08106774 82.30282363 94.09972572 83.88261986 C94.23211035 95.83643054 93.10468817 105.5234227 84.56811523 114.55249023 C77.42627704 121.07014338 69.89803512 123.53876134 60.21728516 123.59692383 C59.51056168 123.60364105 58.8038382 123.61035828 58.07569885 123.61727905 C55.75929566 123.63614253 53.44318402 123.64017732 51.12670898 123.64233398 C49.50157049 123.64877019 47.87643313 123.65549915 46.251297 123.6625061 C42.85126054 123.67444988 39.45132547 123.67818994 36.05126953 123.67700195 C31.71726698 123.67679897 27.38392164 123.70409244 23.05007458 123.73854637 C19.69465715 123.76090091 16.33939575 123.76483689 12.98391151 123.7637825 C11.38727874 123.76612594 9.79064084 123.77487775 8.19408226 123.79044724 C-3.04477414 123.88978725 -13.12116432 123.18527971 -21.75610352 115.14233398 C-28.11287001 107.83749229 -31.58453529 99.85877564 -31.64428711 90.17456055 C-31.65100433 89.48749023 -31.65772156 88.80041992 -31.66464233 88.0925293 C-31.68353863 85.83561843 -31.68754256 83.5790064 -31.68969727 81.32202148 C-31.69613218 79.74029421 -31.70286105 78.1585681 -31.70986938 76.57684326 C-31.72182209 73.26498662 -31.7255524 69.9532341 -31.72436523 66.64135742 C-31.72416243 62.42053964 -31.7514334 58.20039805 -31.78590965 53.97974014 C-31.80827242 50.71267702 -31.81219989 47.44577405 -31.81114578 44.17864227 C-31.81348885 42.62387518 -31.82223858 41.0691028 -31.83781052 39.51441193 C-31.94558451 27.64068339 -30.73219907 18.03483523 -22.28344727 9.06030273 C-15.68352144 3.06158473 -8.93268515 0.07295018 0 0 Z " fill="#0378D3" transform="translate(942.353759765625,107.693603515625)"/>
<path d="M0 0 C1.68046573 -0.00405354 3.360928 -0.00988638 5.04138184 -0.01739502 C8.54469662 -0.02618579 12.04708667 -0.0135646 15.55029297 0.01464844 C20.00886414 0.04883322 24.46526755 0.02912007 28.92375946 -0.00678635 C32.38832513 -0.02861636 35.85238885 -0.0215001 39.31697083 -0.00601959 C40.95937873 -0.00205786 42.60183437 -0.00678321 44.2441864 -0.02089691 C55.62091154 -0.09724266 65.11617263 0.96437846 73.8939209 9.10357666 C80.09078851 15.65427495 83.54132844 22.06392842 83.51977539 31.11621094 C83.51965454 32.19177246 83.51953369 33.26733398 83.51940918 34.37548828 C83.51429321 35.49938965 83.50917725 36.62329102 83.50390625 37.78125 C83.50289917 38.81910645 83.50189209 39.85696289 83.50085449 40.92626953 C83.49562608 44.79981594 83.48166481 48.67334659 83.46875 52.546875 C83.448125 61.209375 83.4275 69.871875 83.40625 78.796875 C53.04625 78.796875 22.68625 78.796875 -8.59375 78.796875 C-8.59375 83.086875 -8.59375 87.376875 -8.59375 91.796875 C21.76625 91.796875 52.12625 91.796875 83.40625 91.796875 C83.40625 102.356875 83.40625 112.916875 83.40625 123.796875 C70.5405876 123.88740469 57.67513831 123.96072308 44.8092289 124.00412369 C38.83444975 124.02495848 32.85990067 124.05320135 26.88525391 124.09863281 C21.11455411 124.14223662 15.344075 124.16604299 9.57322311 124.17638397 C7.37649438 124.18374924 5.17977711 124.19813173 2.98314285 124.21979523 C-0.10443554 124.24902199 -3.19111315 124.25282291 -6.27880859 124.25097656 C-7.17792969 124.26535767 -8.07705078 124.27973877 -9.00341797 124.29455566 C-18.29362079 124.23482004 -26.05410652 121.17725149 -32.83984375 114.7890625 C-38.91251404 107.89137464 -41.82796385 99.79199116 -41.88427734 90.66503906 C-41.89099457 89.97796875 -41.89771179 89.29089844 -41.90463257 88.58300781 C-41.92352887 86.32609695 -41.92753279 84.06948491 -41.9296875 81.8125 C-41.93612242 80.23077272 -41.94285128 78.64904662 -41.94985962 77.06732178 C-41.96181232 73.75546513 -41.96554264 70.44371262 -41.96435547 67.13183594 C-41.96415266 62.91101816 -41.99142364 58.69087656 -42.02589989 54.47021866 C-42.04826265 51.20315554 -42.05219012 47.93625257 -42.05113602 44.66912079 C-42.05347909 43.1143537 -42.06222881 41.55958131 -42.07780075 40.00489044 C-42.17502557 29.2933902 -41.54175004 19.47487505 -34.09375 11.046875 C-24.02275561 0.91403429 -13.48537793 -0.11588778 0 0 Z " fill="#0579D3" transform="translate(356.59375,107.203125)"/>
<path d="M0 0 C10.89 0 21.78 0 33 0 C33 28.38 33 56.76 33 86 C48.37698104 86.49020775 48.37698104 86.49020775 53.86328125 82.515625 C55.17827767 80.96466876 55.17827767 80.96466876 56.3125 79.25 C57.26431432 78.05754639 58.2174797 76.86617015 59.171875 75.67578125 C59.63529297 75.06428223 60.09871094 74.4527832 60.57617188 73.82275391 C62.89091984 70.85946373 65.48093916 68.16738354 68.0625 65.4375 C69.05759932 64.36346837 70.05109806 63.2879515 71.04296875 62.2109375 C71.77459229 61.41768066 71.77459229 61.41768066 72.52099609 60.60839844 C74.01406332 58.98470632 75.50204209 57.35650554 76.98828125 55.7265625 C77.47353271 55.19490479 77.95878418 54.66324707 78.45874023 54.11547852 C79.78359952 52.66272383 81.10670876 51.2083737 82.4296875 49.75390625 C83.27789063 48.84511719 84.12609375 47.93632813 85 47 C85.524729 46.17483887 85.524729 46.17483887 86.06005859 45.33300781 C87.5848052 43.2370216 88.68643845 42.21955776 91 41 C96.64237213 40.25156933 102.1985452 40.43530763 107.875 40.625 C109.43744891 40.65512184 110.99995341 40.68249377 112.5625 40.70703125 C116.37637919 40.77289199 120.18757688 40.87628183 124 41 C124.95787845 51.63472295 124.95787845 51.63472295 121.62109375 55.63671875 C120.58642482 56.68062579 119.52383529 57.69747103 118.4375 58.6875 C117.32097928 59.79493276 116.20508976 60.90300229 115.08984375 62.01171875 C114.28135986 62.78781494 114.28135986 62.78781494 113.45654297 63.57958984 C111.69335611 65.2990369 110.08820718 67.11870721 108.5 69 C105.48591145 72.48229648 102.37732189 75.86975108 99.25 79.25 C98.73961182 79.80236328 98.22922363 80.35472656 97.70336914 80.92382812 C95.10566582 83.73268384 92.50089827 86.53459772 89.88671875 89.328125 C88.9035855 90.38536056 87.92051022 91.44265004 86.9375 92.5 C86.05964844 93.4384375 85.18179688 94.376875 84.27734375 95.34375 C82.17895173 97.79127414 80.55555397 100.18470231 79 103 C79.85722656 103.9178125 80.71445312 104.835625 81.59765625 105.78125 C92.14953181 117.0989626 92.14953181 117.0989626 97.203125 122.953125 C99.55365095 125.63068065 101.96321671 128.25278163 104.375 130.875 C113.12820425 140.39613444 113.12820425 140.39613444 117.05078125 144.83984375 C118.90199377 146.95116562 118.90199377 146.95116562 120.66796875 148.56640625 C122.95596045 150.81594431 123.96519198 152.50231265 124.18920898 155.70532227 C124.15549194 157.18343384 124.15549194 157.18343384 124.12109375 158.69140625 C124.10361084 159.68470947 124.08612793 160.6780127 124.06811523 161.70141602 C124.04563721 162.45994873 124.02315918 163.21848145 124 164 C93.0089726 166.07886149 93.0089726 166.07886149 86.3828125 161.609375 C83.3006435 158.79943213 81.16644401 155.54468989 79 152 C77.90400942 150.7040652 76.78168715 149.42956167 75.625 148.1875 C75.10035156 147.57132813 74.57570313 146.95515625 74.03515625 146.3203125 C70.52145747 142.31429124 66.85886712 138.44215937 63.17749023 134.59008789 C59.85068865 131.08951462 56.97992367 127.57356288 54.1875 123.625 C48.77562579 118.19658147 48.77562579 118.19658147 33 119 C33 133.85 33 148.7 33 164 C22.11 164 11.22 164 0 164 C0 109.88 0 55.76 0 0 Z " fill="#0579D3" transform="translate(454,67)"/>
<path d="M0 0 C10.89 0 21.78 0 33 0 C33 12.21 33 24.42 33 37 C48.18 37 63.36 37 79 37 C79.020625 42.259375 79.04125 47.51875 79.0625 52.9375 C79.071604 54.599021 79.08070801 56.26054199 79.09008789 57.97241211 C79.09258545 59.26928955 79.09508301 60.56616699 79.09765625 61.90234375 C79.10277222 62.58816528 79.10788818 63.27398682 79.11315918 63.98059082 C79.11347054 65.65415231 79.06222837 67.3275958 79 69 C78 70 78 70 76.17137146 70.12025452 C74.97557213 70.1169236 74.97557213 70.1169236 73.75561523 70.11352539 C72.84211304 70.11340454 71.92861084 70.11328369 70.98742676 70.11315918 C69.53765442 70.10548523 69.53765442 70.10548523 68.05859375 70.09765625 C67.17498169 70.09664917 66.29136963 70.09564209 65.38098145 70.09460449 C62.06647451 70.08935531 58.75198601 70.07539417 55.4375 70.0625 C48.033125 70.041875 40.62875 70.02125 33 70 C33 88.81 33 107.62 33 127 C47.76454451 126.96039293 47.76454451 126.96039293 62.52905273 126.90991211 C64.37223249 126.90699306 66.21541288 126.90444448 68.05859375 126.90234375 C69.50836609 126.8946698 69.50836609 126.8946698 70.98742676 126.88684082 C71.90092896 126.88671997 72.81443115 126.88659912 73.75561523 126.88647461 C74.55281479 126.884254 75.35001434 126.88203339 76.17137146 126.87974548 C78 127 78 127 79 128 C79.0883967 130.3756852 79.11530305 132.72208674 79.09765625 135.09765625 C79.0962413 135.80651474 79.09482635 136.51537323 79.09336853 137.24571228 C79.08775443 139.51801712 79.07519963 141.79022475 79.0625 144.0625 C79.05748681 145.59960796 79.05292359 147.13671745 79.04882812 148.67382812 C79.03778042 152.44925642 79.02050641 156.22461171 79 160 C71.65352337 160.10203038 64.30723177 160.17172874 56.96020508 160.21972656 C54.46469291 160.23975138 51.96922712 160.26697941 49.47387695 160.30175781 C45.87179059 160.3506777 42.27032854 160.37306113 38.66796875 160.390625 C37.56543259 160.41127014 36.46289642 160.43191528 35.32695007 160.45318604 C26.80123183 160.45561544 19.48238974 158.7890425 12.1875 154.25 C2.38689976 144.16938261 -0.61878945 134.50119667 -0.45410156 120.56396484 C-0.45468567 119.25552612 -0.45526978 117.9470874 -0.45587158 116.59899902 C-0.45701061 113.04162825 -0.43363478 109.4848064 -0.40557575 105.92756224 C-0.38042519 102.19869553 -0.37820942 98.46981369 -0.37347412 94.74087524 C-0.36108417 87.69331054 -0.32831711 80.64599658 -0.28807616 73.59854186 C-0.24323379 65.56947769 -0.22134021 57.54040102 -0.20129442 49.51124263 C-0.15958036 33.00732553 -0.08627852 16.50375344 0 0 Z " fill="#087AD3" transform="translate(228,71)"/>
<path d="M0 0 C1.18160706 0.00848969 2.36321411 0.01697937 3.58062744 0.02572632 C7.30993551 0.05898897 11.03698392 0.13422245 14.765625 0.2109375 C17.31246851 0.24107191 19.85934632 0.26844156 22.40625 0.29296875 C28.61092013 0.35356123 34.81078021 0.47103297 41.015625 0.5859375 C41.015625 11.1459375 41.015625 21.7059375 41.015625 32.5859375 C26.165625 32.5859375 11.315625 32.5859375 -3.984375 32.5859375 C-3.984375 35.2259375 -3.984375 37.8659375 -3.984375 40.5859375 C10.865625 40.5859375 25.715625 40.5859375 41.015625 40.5859375 C41.015625 51.1459375 41.015625 61.7059375 41.015625 72.5859375 C26.165625 72.5859375 11.315625 72.5859375 -3.984375 72.5859375 C-3.984375 102.6159375 -3.984375 132.6459375 -3.984375 163.5859375 C-14.544375 163.5859375 -25.104375 163.5859375 -35.984375 163.5859375 C-36.07474281 145.33998128 -36.14839619 127.09420684 -36.19162369 108.8480835 C-36.21223033 100.37569149 -36.2403145 91.90344862 -36.28613281 83.43115234 C-36.32605886 76.04486457 -36.35182161 68.65868483 -36.36072898 61.27229214 C-36.36593401 57.3628597 -36.37812773 53.45373627 -36.40729523 49.54440308 C-36.43455579 45.86062174 -36.44279875 42.17727511 -36.43680573 38.49340248 C-36.43842144 36.50532598 -36.45988838 34.51729623 -36.48205566 32.52934265 C-36.43660647 22.63228196 -34.14032122 15.89939764 -27.23052979 8.61099243 C-19.22126309 1.3901165 -10.44271907 -0.28893233 0 0 Z " fill="#0278D3" transform="translate(618.984375,67.4140625)"/>
<path d="M0 0 C10.89 0 21.78 0 33 0 C33 43.56 33 87.12 33 132 C40.92 132 48.84 132 57 132 C57 142.56 57 153.12 57 164 C52.070625 164.061875 47.14125 164.12375 42.0625 164.1875 C40.52601807 164.21481201 38.98953613 164.24212402 37.40649414 164.27026367 C26.09009274 164.33884792 17.49180304 162.93643196 9 155 C0.67774803 145.90577443 -0.44216604 137.30327264 -0.34057617 125.33203125 C-0.3397287 123.96141071 -0.34020738 122.59078882 -0.34190369 121.22016907 C-0.34276039 117.52022654 -0.32518776 113.82057896 -0.30418181 110.12070465 C-0.28536047 106.24633806 -0.28366029 102.37196385 -0.28010559 98.49755859 C-0.27080109 91.17019655 -0.24620906 83.84296964 -0.21605712 76.51566696 C-0.18246328 68.16983104 -0.1660146 59.82398849 -0.15097082 51.47810173 C-0.11965794 34.31864303 -0.06466599 17.15937035 0 0 Z " fill="#0579D3" transform="translate(802,67)"/>
<path d="M0 0 C10.89 0 21.78 0 33 0 C33 40.59 33 81.18 33 123 C22.11 123 11.22 123 0 123 C0 82.41 0 41.82 0 0 Z " fill="#077AD2" transform="translate(871,108)"/>
<path d="M0 0 C19.8 0 39.6 0 60 0 C60 19.47 60 38.94 60 59 C40.2 59 20.4 59 0 59 C0 39.53 0 20.06 0 0 Z " fill="#FAFCFD" transform="translate(944,140)"/>
<path d="M0 0 C19.8 0 39.6 0 60 0 C60 18.81 60 37.62 60 57 C40.2 57 20.4 57 0 57 C0 38.19 0 19.38 0 0 Z " fill="#FDFDFE" transform="translate(702,141)"/>
<path d="M0 0 C6.52707466 -0.376562 6.52707466 -0.376562 8.86780262 1.48721886 C11.66845369 3.47426385 13.45041689 3.38115238 16.86515808 3.39199829 C18.66345314 3.40863777 18.66345314 3.40863777 20.49807739 3.4256134 C21.80993011 3.42260727 23.12178284 3.41960114 24.47338867 3.41650391 C25.87136056 3.42388446 27.269326 3.43258962 28.6672821 3.44252014 C32.46041343 3.46584408 36.25338113 3.47099249 40.04657531 3.47317934 C44.01265823 3.47883757 47.9786343 3.50210762 51.94465637 3.52377319 C59.45504412 3.56230063 66.9654013 3.58651829 74.4758628 3.60489786 C87.93927979 3.6383122 101.40260554 3.69592981 114.86591321 3.75888956 C119.59401309 3.7804311 124.32208108 3.79567194 129.05021894 3.80572915 C131.98384578 3.81272518 134.91744969 3.8236018 137.85106087 3.83537102 C139.87020147 3.84213575 141.889357 3.84384681 143.9085083 3.84544373 C145.0989122 3.85089706 146.2893161 3.8563504 147.51579285 3.86196899 C148.55683261 3.86452509 149.59787237 3.86708118 150.67045879 3.86971474 C153 4 153 4 154 5 C154 7.64 154 10.28 154 13 C131.89 13 109.78 13 87 13 C87.09050767 39.71589993 87.09050767 39.71589993 87.20898438 66.43164062 C87.26350476 77.32395906 87.31491605 88.21623006 87.34643555 99.10864258 C87.36940368 107.04102964 87.4027884 114.97329262 87.44870156 122.9055813 C87.47264982 127.10599475 87.49136807 131.30628519 87.49761391 135.50676537 C87.50365755 139.46060189 87.52363107 143.41412359 87.55427551 147.36784363 C87.56306734 148.81863533 87.56677594 150.26946815 87.56500816 151.72028542 C87.5633557 153.70228761 87.5818196 155.68427606 87.60127258 157.66618347 C87.60588155 158.77510043 87.61049051 159.88401739 87.61523914 161.0265379 C88.04850037 164.37481468 89.21259481 166.18054432 91 169 C91 173.21894271 90.66605308 175.23599794 87.875 178.4375 C84.18021252 180.44553668 82.15463913 180.65599565 78 180 C74.5625 178 74.5625 178 72 175 C71.34952537 172.04120388 71.60069226 170.09463501 72 167 C72.66 166.01 73.32 165.02 74 164 C74.31302539 161.17084495 74.31302539 161.17084495 74.2784729 157.9066925 C74.28963638 156.63203125 74.30079987 155.35737 74.31230164 154.04408264 C74.31466668 152.62875396 74.31684232 151.21342494 74.31884766 149.7980957 C74.32814426 148.30998183 74.33831253 146.82187318 74.34928894 145.33377075 C74.37663327 141.29070002 74.39175143 137.24766421 74.40471697 133.20452523 C74.42032816 128.98040009 74.44712476 124.75634648 74.4727478 120.53227234 C74.51957129 112.53193209 74.55629809 104.53157844 74.58942068 96.53117102 C74.62761687 87.4236127 74.67703356 78.31612616 74.72740483 69.2086283 C74.83077781 50.47246521 74.91853939 31.73627205 75 13 C53.55 13 32.1 13 10 13 C9.01 10.36 8.02 7.72 7 5 C4.4345406 2.4345406 2.52313332 2.45953913 -1 2 C-0.67 1.34 -0.34 0.68 0 0 Z " fill="#F8FAFB" transform="translate(25,39)"/>
<path d="M0 0 C17.16 0 34.32 0 52 0 C52 49.5 52 99 52 150 C51.67 150 51.34 150 51 150 C51 148.02 51 146.04 51 144 C48.69 144.33 46.38 144.66 44 145 C44 100.12 44 55.24 44 9 C35.42 9 26.84 9 18 9 C17.67 7.68 17.34 6.36 17 5 C17.66 4.67 18.32 4.34 19 4 C18.01 4 17.02 4 16 4 C16 3.34 16 2.68 16 2 C10.72 1.67 5.44 1.34 0 1 C0 0.67 0 0.34 0 0 Z " fill="#0477D0" transform="translate(48,53)"/>
<path d="M0 0 C8.58 0 17.16 0 26 0 C26 45.21 26 90.42 26 137 C23.36 137 20.72 137 18 137 C18 93.77 18 50.54 18 6 C12.06 6 6.12 6 0 6 C0 4.02 0 2.04 0 0 Z " fill="#DFEDF6" transform="translate(66,62)"/>
<path d="M0 0 C10.56 0 21.12 0 32 0 C32 10.56 32 21.12 32 32 C21.44 32 10.88 32 0 32 C0 21.44 0 10.88 0 0 Z " fill="#0477D2" transform="translate(872,68)"/>
<path d="M0 0 C19.47 0 38.94 0 59 0 C59 5.28 59 10.56 59 16 C39.53 16 20.06 16 0 16 C0 10.72 0 5.44 0 0 Z " fill="#FEFEFE" transform="translate(348,141)"/>
<path d="M0 0 C7.59 0 15.18 0 23 0 C23 1.65 23 3.3 23 5 C17.39 5 11.78 5 6 5 C6 48.23 6 91.46 6 136 C4.02 136 2.04 136 0 136 C0 91.12 0 46.24 0 0 Z " fill="#FCFDFD" transform="translate(122,63)"/>
<path d="M0 0 C39.93 0 79.86 0 121 0 C121 2.31 121 4.62 121 7 C81.07 7 41.14 7 0 7 C0 4.69 0 2.38 0 0 Z " fill="#EAF2F7" transform="translate(46,27)"/>
<path d="M0 0 C3.13799283 0.12667127 5.46522247 0.4144895 8.0625 2.3125 C10.52469772 6.00579658 10.85448683 9.0274344 10.0625 13.3125 C8.0625 16.3125 8.0625 16.3125 5.0625 18.3125 C0.7774344 19.10448683 -2.24420342 18.77469772 -5.9375 16.3125 C-38.6075 15.8175 -38.6075 15.8175 -71.9375 15.3125 C-71.9375 64.8125 -71.9375 114.3125 -71.9375 165.3125 C-72.2675 165.3125 -72.5975 165.3125 -72.9375 165.3125 C-72.9375 115.4825 -72.9375 65.6525 -72.9375 14.3125 C-50.8275 14.3125 -28.7175 14.3125 -5.9375 14.3125 C-6.4325 8.8675 -6.4325 8.8675 -6.9375 3.3125 C-3.9375 0.3125 -3.9375 0.3125 0 0 Z " fill="#97C3E6" transform="translate(184.9375,37.6875)"/>
<path d="M0 0 C0 0.33 0 0.66 0 1 C-1.98 1.33 -3.96 1.66 -6 2 C-4.6078125 2.4021875 -4.6078125 2.4021875 -3.1875 2.8125 C1.29053421 4.48078725 1.29053421 4.48078725 3 7 C3.33 8.98 3.66 10.96 4 13 C25.45 13.33 46.9 13.66 69 14 C69 14.33 69 14.66 69 15 C68.1945575 15.00586624 67.38911499 15.01173248 66.55926514 15.01777649 C58.96677143 15.07569283 51.37460629 15.14776299 43.78240585 15.23571491 C39.87920956 15.28043273 35.97611798 15.31968549 32.07275391 15.34643555 C28.30539845 15.37245484 24.53844565 15.41284682 20.77133942 15.46318626 C19.33449565 15.47986442 17.89758222 15.49137282 16.46065521 15.49761391 C14.44729072 15.50724372 12.43405298 15.53699877 10.42089844 15.56762695 C9.27506287 15.57873001 8.12922729 15.58983307 6.94866943 15.60127258 C3.687056 16.04231717 2.46949344 16.92119326 0 19 C-3.92721068 19.58490372 -5.48108543 19.34594305 -8.8125 17.125 C-11.79857385 14.22424254 -11.95683819 13.43881175 -12.375 9.1875 C-12.31879192 5.75880687 -11.99773575 4.99670655 -9.9375 2 C-6.35342568 -0.44022082 -4.25018379 -0.41668469 0 0 Z " fill="#AFCDE4" transform="translate(31,38)"/>
<path d="M0 0 C0.33 0 0.66 0 1 0 C1 10.23 1 20.46 1 31 C-11.90020874 31.0678409 -24.80029852 31.12285389 -37.70064545 31.15543652 C-43.69112285 31.1710764 -49.68147162 31.1922843 -55.671875 31.22631836 C-61.45552328 31.25897123 -67.23904801 31.27686564 -73.02278137 31.28463173 C-75.22672978 31.29016456 -77.43067161 31.30096883 -79.63456726 31.31719017 C-82.72722868 31.3390429 -85.81938288 31.3419636 -88.91210938 31.34057617 C-89.81842102 31.351362 -90.72473267 31.36214783 -91.6585083 31.3732605 C-97.44050579 31.34528706 -101.69721823 30.32713509 -107 28 C-103.23559994 26.93723686 -100.15800763 27.08577931 -96.25 27.4375 C-95.07953125 27.53933594 -93.9090625 27.64117187 -92.703125 27.74609375 C-91.81109375 27.82988281 -90.9190625 27.91367188 -90 28 C-90 28.33 -90 28.66 -90 29 C-45.45 29.495 -45.45 29.495 0 30 C0 20.1 0 10.2 0 0 Z " fill="#1985D4" transform="translate(439,200)"/>
<path d="M0 0 C1.875 1.125 1.875 1.125 3 3 C3.4375 6 3.4375 6 3 9 C0.88310295 11.35210784 -0.44041515 11.91810953 -3.5625 12.375 C-6 12 -6 12 -7.8125 10.875 C-9.55198782 8.12844028 -9.39769128 6.18153026 -9 3 C-6.79086995 -0.68188342 -4.01844539 -0.50230567 0 0 Z " fill="#137DD1" transform="translate(31,42)"/>
<path d="M0 0 C2 3 2 3 1.8125 6.0625 C1 9 1 9 -2 11 C-4.83079592 11.35384949 -6.36830089 11.3920891 -8.8125 9.875 C-10.57002414 7.09996189 -10.46822746 5.21070255 -10 2 C-6.96457461 -1.61916104 -4.32701626 -1.31691799 0 0 Z " fill="#147ED1" transform="translate(190,42)"/>
<path d="M0 0 C3.0625 0.25 3.0625 0.25 6.0625 2.25 C6.5 5.6875 6.5 5.6875 6.0625 9.25 C4.375 11.25 4.375 11.25 2.0625 12.25 C-1.30786311 12.00925978 -2.52548021 11.66201979 -4.9375 9.25 C-5.1875 5.75 -5.1875 5.75 -4.9375 2.25 C-2.9375 0.25 -2.9375 0.25 0 0 Z " fill="#1D81CF" transform="translate(105.9375,203.75)"/>
<path d="M0 0 C1.96301592 3.50538557 2.95902388 7.13351728 4 11 C6.35367713 11.6878236 6.35367713 11.6878236 9 12 C12.31460705 10.29107501 12.31460705 10.29107501 12.6875 6.875 C12.8421875 5.451875 12.8421875 5.451875 13 4 C13.99 5.485 13.99 5.485 15 7 C15.66 6.34 16.32 5.68 17 5 C16.76683515 9.04152406 16.5771041 11.33802764 13.875 14.4375 C10.18021252 16.44553668 8.15463913 16.65599565 4 16 C0.5625 14 0.5625 14 -2 11 C-2.65047463 8.04120388 -2.39930774 6.09463501 -2 3 C-1.34 2.01 -0.68 1.02 0 0 Z " fill="#D7E6F2" transform="translate(99,203)"/>
<path d="M0 0 C8.25 0 16.5 0 25 0 C23.68 0.33 22.36 0.66 21 1 C20.67 2.32 20.34 3.64 20 5 C19.67 4.34 19.34 3.68 19 3 C18.67 3.66 18.34 4.32 18 5 C12.06 5 6.12 5 0 5 C0 3.35 0 1.7 0 0 Z " fill="#EFF5F8" transform="translate(66,62)"/>
<path d="M0 0 C2.31 0.33 4.62 0.66 7 1 C3.71364625 6.0009731 -0.5949998 8.66081944 -6 11 C-6.99 11 -7.98 11 -9 11 C-8.814375 10.38125 -8.62875 9.7625 -8.4375 9.125 C-7.76313824 6.95839822 -7.76313824 6.95839822 -9 5 C-7.576875 5.2784375 -7.576875 5.2784375 -6.125 5.5625 C-3.10131207 6.28686632 -3.10131207 6.28686632 -1 5 C-0.34444881 2.47266765 -0.34444881 2.47266765 0 0 Z " fill="#107ACF" transform="translate(779,219)"/>
<path d="M0 0 C0.82757813 0.49113281 0.82757813 0.49113281 1.671875 0.9921875 C4.38780923 2.16787715 6.30551759 2.20248638 9.25 2.125 C10.58804688 2.09792969 10.58804688 2.09792969 11.953125 2.0703125 C12.62859375 2.04710937 13.3040625 2.02390625 14 2 C14 3.66666667 14 5.33333333 14 7 C13.01 7.66 12.02 8.32 11 9 C11 9.66 11 10.32 11 11 C9.02 10.34 7.04 9.68 5 9 C5 8.01 5 7.02 5 6 C4.34 5.67 3.68 5.34 3 5 C1.66666667 4.33333333 0.33333333 3.66666667 -1 3 C-0.67 2.01 -0.34 1.02 0 0 Z " fill="#127DD2" transform="translate(178,53)"/>
<path d="M0 0 C-0.33 0.99 -0.66 1.98 -1 3 C0.32 3 1.64 3 3 3 C2.67 3.99 2.34 4.98 2 6 C0.68 5.67 -0.64 5.34 -2 5 C-2.33 5.99 -2.66 6.98 -3 8 C-4.32 7.67 -5.64 7.34 -7 7 C-7 5.02 -7 3.04 -7 1 C-3.375 -1.125 -3.375 -1.125 0 0 Z " fill="#0678D2" transform="translate(108,206)"/>
<path d="M0 0 C2.43873271 4.35487984 4 8.99365563 4 14 C1 14 1 14 -0.6875 13 C-2.71837544 9.90533266 -2.55923183 6.60232453 -2 3 C-1.34 2.01 -0.68 1.02 0 0 Z " fill="#E9F2F8" transform="translate(99,203)"/>
<path d="M0 0 C0.33 0.99 0.66 1.98 1 3 C1.66 3.33 2.32 3.66 3 4 C2.01 5.485 2.01 5.485 1 7 C-1.92167234 7.5452622 -4.67824236 7.92678849 -7.625 8.1875 C-8.42679688 8.26935547 -9.22859375 8.35121094 -10.0546875 8.43554688 C-12.03525571 8.63596151 -14.01751032 8.8195807 -16 9 C-16.66 7.68 -17.32 6.36 -18 5 C-17.34 4.34 -16.68 3.68 -16 3 C-15.484375 3.495 -14.96875 3.99 -14.4375 4.5 C-11.09971339 6.55402253 -8.85600245 6.41314312 -5 6 C-1.8149643 4.23984869 -1.16703028 3.50109084 0 0 Z " fill="#1D87D5" transform="translate(115,212)"/>
<path d="M0 0 C0 0.33 0 0.66 0 1 C-1.98 1.33 -3.96 1.66 -6 2 C-4.35 2.33 -2.7 2.66 -1 3 C-1 3.33 -1 3.66 -1 4 C-1.94875 4.20625 -2.8975 4.4125 -3.875 4.625 C-7.29166667 5.70833333 -7.29166667 5.70833333 -8.375 9.125 C-8.58125 10.07375 -8.7875 11.0225 -9 12 C-9.66 12 -10.32 12 -11 12 C-11.8125 8.8125 -11.8125 8.8125 -12 5 C-8.59817433 0.00356855 -5.8719473 -0.57568111 0 0 Z " fill="#CDE0ED" transform="translate(31,38)"/>
<path d="M0 0 C0.33 0.66 0.66 1.32 1 2 C1.99 2 2.98 2 4 2 C3.67 3.65 3.34 5.3 3 7 C-0.63 6.67 -4.26 6.34 -8 6 C-8 5.34 -8 4.68 -8 4 C-8.66 3.67 -9.32 3.34 -10 3 C-6.98968256 2.06576355 -6.13349732 1.95550089 -3 3 C-2.01 3 -1.02 3 0 3 C0 2.01 0 1.02 0 0 Z " fill="#147ED1" transform="translate(189,32)"/>
<path d="M0 0 C0.66 0 1.32 0 2 0 C1.53411505 5.70709064 0.06242216 9.15939723 -3 14 C-4.76462683 10.91190305 -5 9.76687864 -5 6 C-3.68 5.67 -2.36 5.34 -1 5 C-0.67 3.35 -0.34 1.7 0 0 Z " fill="#1079CC" transform="translate(791,205)"/>
<path d="M0 0 C1.9375 0.3125 1.9375 0.3125 4 1 C4.33 1.99 4.66 2.98 5 4 C5.66 4 6.32 4 7 4 C7.33 5.98 7.66 7.96 8 10 C7.01 10.66 6.02 11.32 5 12 C4.16180842 10.37750059 3.3295884 8.75191503 2.5 7.125 C2.0359375 6.22007812 1.571875 5.31515625 1.09375 4.3828125 C0 2 0 2 0 0 Z " fill="#0F79CD" transform="translate(912,206)"/>
<path d="M0 0 C0.99 0 1.98 0 3 0 C2.34 3.3 1.68 6.6 1 10 C-3.875 5.375 -3.875 5.375 -5 2 C-3.68 2 -2.36 2 -1 2 C-0.67 1.34 -0.34 0.68 0 0 Z " fill="#0D7ACD" transform="translate(236,210)"/>
<path d="M0 0 C4.32239956 3.34003602 7.17477391 6.32751069 10 11 C9.401875 10.67 8.80375 10.34 8.1875 10 C5.94613529 8.79212012 5.94613529 8.79212012 3 9 C1 8 1 8 0 6 C-0.039992 4.00039988 -0.04346799 1.99952758 0 0 Z " fill="#157CCE" transform="translate(559,200)"/>
<path d="M0 0 C1 2 1 2 0.3125 4.5 C-1.21623258 7.41187158 -2.00554192 7.82880745 -5 9 C-7.10644531 9.22705078 -7.10644531 9.22705078 -9.328125 9.1953125 C-10.12734375 9.18886719 -10.9265625 9.18242187 -11.75 9.17578125 C-12.575 9.15902344 -13.4 9.14226562 -14.25 9.125 C-15.09046875 9.11597656 -15.9309375 9.10695312 -16.796875 9.09765625 C-18.86470604 9.07415817 -20.93238995 9.03828908 -23 9 C-23 8.67 -23 8.34 -23 8 C-21.84242188 8.00902344 -20.68484375 8.01804688 -19.4921875 8.02734375 C-11.12222668 8.21863617 -11.12222668 8.21863617 -3.53515625 5.375 C-1.724612 3.29471743 -1.724612 3.29471743 0 0 Z " fill="#2A8BD7" transform="translate(510,145)"/>
<path d="M0 0 C1.98 0 3.96 0 6 0 C6.66 1.32 7.32 2.64 8 4 C7.34 4.66 6.68 5.32 6 6 C2.98694043 5.61121812 1.60314689 4.73543126 -1 3 C-0.67 2.01 -0.34 1.02 0 0 Z " fill="#0578D3" transform="translate(25,47)"/>
<path d="M0 0 C2.31 0.33 4.62 0.66 7 1 C6.01 1.495 6.01 1.495 5 2 C4.34444881 4.52733235 4.34444881 4.52733235 4 7 C4.99 7.33 5.98 7.66 7 8 C4.625 8.125 4.625 8.125 2 8 C0 6 0 6 -0.125 2.875 C-0.08375 1.92625 -0.0425 0.9775 0 0 Z " fill="#1079CB" transform="translate(180,44)"/>
<path d="M0 0 C1.41681634 0.31182069 2.83344651 0.62448737 4.25 0.9375 C5.43335938 1.19853516 5.43335938 1.19853516 6.640625 1.46484375 C8.76878703 1.947556 10.88532842 2.46163178 13 3 C13.33 4.32 13.66 5.64 14 7 C8.39958947 6.57996921 4.411509 4.31423011 0 1 C0 0.67 0 0.34 0 0 Z " fill="#1E81CE" transform="translate(813,223)"/>
<path d="M0 0 C0.66 0 1.32 0 2 0 C2 0.66 2 1.32 2 2 C1.34 2 0.68 2 0 2 C-0.33 3.65 -0.66 5.3 -1 7 C-0.360625 7.103125 0.27875 7.20625 0.9375 7.3125 C1.618125 7.539375 2.29875 7.76625 3 8 C3.33 8.99 3.66 9.98 4 11 C1 11 1 11 -1.6875 8.5 C-2.450625 7.675 -3.21375 6.85 -4 6 C-2.84826645 3.53199953 -1.95216435 1.95216435 0 0 Z " fill="#177DCD" transform="translate(526,201)"/>
<path d="M0 0 C-0.9590625 0.7734375 -0.9590625 0.7734375 -1.9375 1.5625 C-4.55791681 4.65935623 -4.69389817 7.02067623 -5 11 C-6.88391785 7.73454239 -7.49287967 4.71888239 -8 1 C-4.93251126 -0.86240388 -3.40254489 -1.2151946 0 0 Z " fill="#2384D0" transform="translate(24,39)"/>
<path d="M0 0 C0.33 0.66 0.66 1.32 1 2 C2.65 2 4.3 2 6 2 C6 2.66 6 3.32 6 4 C5.34 4 4.68 4 4 4 C4 4.66 4 5.32 4 6 C4.66 6 5.32 6 6 6 C6 6.66 6 7.32 6 8 C5.01 8.33 4.02 8.66 3 9 C1.5 7.875 1.5 7.875 0 6 C-0.1875 2.8125 -0.1875 2.8125 0 0 Z " fill="#0975CB" transform="translate(529,208)"/>
<path d="M0 0 C2.25 0.125 2.25 0.125 5 1 C7.3125 4.0625 7.3125 4.0625 9 7 C8.67 7.66 8.34 8.32 8 9 C6.84775972 8.07038578 5.70340824 7.1309875 4.5625 6.1875 C3.60537109 5.40439453 3.60537109 5.40439453 2.62890625 4.60546875 C1 3 1 3 0 0 Z " fill="#1F80CD" transform="translate(918,218)"/>
<path d="M0 0 C2.64752004 2.57784846 4.94432065 4.91648098 7 8 C5.02 8.33 3.04 8.66 1 9 C0.67 6.03 0.34 3.06 0 0 Z " fill="#167ECE" transform="translate(544,183)"/>
<path d="M0 0 C4.62609198 -0.3227506 7.28026121 0.15549386 11 3 C11 3.66 11 4.32 11 5 C6.62886504 4.49172849 3.61004338 3.54826592 0 1 C0 0.67 0 0.34 0 0 Z " fill="#2481CA" transform="translate(683,225)"/>
<path d="M0 0 C-2.75 4.875 -2.75 4.875 -5 6 C-5 5.34 -5 4.68 -5 4 C-5.99 4.33 -6.98 4.66 -8 5 C-8.33 4.34 -8.66 3.68 -9 3 C-5.92807025 0.26939578 -4.09590633 -0.34132553 0 0 Z " fill="#157DD1" transform="translate(556,142)"/>
<path d="M0 0 C3.27742098 3.10026309 5.93104837 5.97098894 8 10 C8 10.66 8 11.32 8 12 C7.34 12 6.68 12 6 12 C6 11.01 6 10.02 6 9 C5.01 8.67 4.02 8.34 3 8 C0.2332241 5.02827774 0 4.25809375 0 0 Z " fill="#2483CC" transform="translate(1027,118)"/>
<path d="M0 0 C0.66 1.32 1.32 2.64 2 4 C0.68 4.99 -0.64 5.98 -2 7 C-3.32 6.34 -4.64 5.68 -6 5 C-4.02 3.35 -2.04 1.7 0 0 Z " fill="#197ED0" transform="translate(925,113)"/>
<path d="M0 0 C0 0.99 0 1.98 0 3 C-1.98 3.99 -1.98 3.99 -4 5 C-4 5.66 -4 6.32 -4 7 C-4.99 6.67 -5.98 6.34 -7 6 C-7 4.68 -7 3.36 -7 2 C-4.69 1.34 -2.38 0.68 0 0 Z " fill="#0D7ED5" transform="translate(33,55)"/>
<path d="M0 0 C6.52307692 -0.36923077 6.52307692 -0.36923077 8.9375 1.5 C9.288125 1.995 9.63875 2.49 10 3 C9.01 3.66 8.02 4.32 7 5 C6.34 4.34 5.68 3.68 5 3 C3.01178687 2.60235737 1.01055661 2.26224651 -1 2 C-0.67 1.34 -0.34 0.68 0 0 Z " fill="#F0F6F9" transform="translate(25,39)"/>
<path d="M0 0 C4.0369867 1.79421631 6.64480474 3.20551875 9 7 C7.35 6.67 5.7 6.34 4 6 C3.67 6.66 3.34 7.32 3 8 C3 6.68 3 5.36 3 4 C2.01 3.67 1.02 3.34 0 3 C0 2.01 0 1.02 0 0 Z " fill="#187AC6" transform="translate(1018,111)"/>
<path d="M0 0 C1.9375 0.3125 1.9375 0.3125 4 1 C4.33 1.99 4.66 2.98 5 4 C4.34 4.66 3.68 5.32 3 6 C0.9375 5.8125 0.9375 5.8125 -1 5 C-1.33 4.01 -1.66 3.02 -2 2 C-1.34 2 -0.68 2 0 2 C0 1.34 0 0.68 0 0 Z " fill="#0975C8" transform="translate(572,217)"/>
<path d="M0 0 C0 3.35279018 -0.35469584 5.08332445 -2 8 C-5.125 9.3125 -5.125 9.3125 -8 10 C-5.61820737 6.25718301 -3.25524265 3.02272532 0 0 Z " fill="#2D87CF" transform="translate(327,114)"/>
<path d="M0 0 C0.99 0.33 1.98 0.66 3 1 C2.34 2.65 1.68 4.3 1 6 C-0.98 5.34 -2.96 4.68 -5 4 C-3.36587557 2.29159719 -2.13093906 1.06546953 0 0 Z " fill="#1680D2" transform="translate(334,110)"/>
<path d="M0 0 C0 0.66 0 1.32 0 2 C-2 3.625 -2 3.625 -4 5 C-3.67 5.66 -3.34 6.32 -3 7 C-4.875 7.625 -4.875 7.625 -7 8 C-7.66 7.34 -8.32 6.68 -9 6 C-7.8803014 4.99406757 -6.7540588 3.9954151 -5.625 3 C-4.68527344 2.1646875 -4.68527344 2.1646875 -3.7265625 1.3125 C-2 0 -2 0 0 0 Z " fill="#1F80CA" transform="translate(599,72)"/>
<path d="M0 0 C0.33 0.99 0.66 1.98 1 3 C2.32467746 3.6837045 3.65863633 4.34964186 5 5 C5.99 6.485 5.99 6.485 7 8 C5.68 8 4.36 8 3 8 C1.25 6.25 1.25 6.25 0 4 C0 2.68 0 1.36 0 0 Z " fill="#F2F8F9" transform="translate(19,47)"/>
<path d="M0 0 C0.33 0.66 0.66 1.32 1 2 C3.02463255 2.65213292 3.02463255 2.65213292 5 3 C3 5 3 5 0.8359375 5.1953125 C-0.38222656 5.16050781 -0.38222656 5.16050781 -1.625 5.125 C-2.44226563 5.10695312 -3.25953125 5.08890625 -4.1015625 5.0703125 C-4.72804687 5.04710937 -5.35453125 5.02390625 -6 5 C-6 4.67 -6 4.34 -6 4 C-4.35 3.67 -2.7 3.34 -1 3 C-0.67 2.01 -0.34 1.02 0 0 Z " fill="#0A75C9" transform="translate(199,226)"/>
<path d="M0 0 C2.31 0 4.62 0 7 0 C7 0.99 7 1.98 7 3 C4.69 3 2.38 3 0 3 C0 2.01 0 1.02 0 0 Z " fill="#EEF3F8" transform="translate(103,216)"/>
<path d="M0 0 C1.85776765 3.13498292 2.20140476 5.37471432 2 9 C1.34 8.01 0.68 7.02 0 6 C-0.33 7.65 -0.66 9.3 -1 11 C-1.33 11 -1.66 11 -2 11 C-2.25 3.375 -2.25 3.375 0 0 Z " fill="#B7D6EA" transform="translate(99,203)"/>
<path d="M0 0 C1.65322266 0.01740234 1.65322266 0.01740234 3.33984375 0.03515625 C4.99693359 0.04869141 4.99693359 0.04869141 6.6875 0.0625 C7.54214844 0.07410156 8.39679687 0.08570313 9.27734375 0.09765625 C9.27734375 1.74765625 9.27734375 3.39765625 9.27734375 5.09765625 C8.61734375 4.10765625 7.95734375 3.11765625 7.27734375 2.09765625 C2.62588783 1.7174085 2.62588783 1.7174085 -1.72265625 3.09765625 C-2.38265625 2.43765625 -3.04265625 1.77765625 -3.72265625 1.09765625 C-2.72265625 0.09765625 -2.72265625 0.09765625 0 0 Z " fill="#0573C8" transform="translate(849.72265625,198.90234375)"/>
<path d="M0 0 C1.98 0.495 1.98 0.495 4 1 C4 1.66 4 2.32 4 3 C4.66 3.33 5.32 3.66 6 4 C5.67 4.99 5.34 5.98 5 7 C3.02 5.35 1.04 3.7 -1 2 C-0.67 1.34 -0.34 0.68 0 0 Z " fill="#0E77CA" transform="translate(505,185)"/>
<path d="M0 0 C1.32 0.66 2.64 1.32 4 2 C3 4 3 4 2 5 C0.33985384 5.36442233 -1.32706064 5.69972883 -3 6 C-1.125 1.125 -1.125 1.125 0 0 Z " fill="#187BCC" transform="translate(675,121)"/>
<path d="M0 0 C0.99 0 1.98 0 3 0 C3 0.66 3 1.32 3 2 C3.66 2.33 4.32 2.66 5 3 C4.34 3 3.68 3 3 3 C3 3.99 3 4.98 3 6 C1.35 6 -0.3 6 -2 6 C-1.34 4.02 -0.68 2.04 0 0 Z " fill="#0E7FDB" transform="translate(185,47)"/>
<path d="M0 0 C0.99 0.33 1.98 0.66 3 1 C3.33 1.99 3.66 2.98 4 4 C2.02 4.33 0.04 4.66 -2 5 C-2.33 4.34 -2.66 3.68 -3 3 C-2.01 2.01 -1.02 1.02 0 0 Z " fill="#127ED3" transform="translate(106,211)"/>
<path d="M0 0 C2.125 0.9375 2.125 0.9375 4 2 C4 3.65 4 5.3 4 7 C3.01 7.495 3.01 7.495 2 8 C1.566875 6.824375 1.566875 6.824375 1.125 5.625 C0.15087746 2.90328368 0.15087746 2.90328368 -2 1 C-1.34 0.67 -0.68 0.34 0 0 Z " fill="#EFF6F9" transform="translate(111,203)"/>
<path d="M0 0 C0.66 0.33 1.32 0.66 2 1 C2.5 3.5 2.5 3.5 3 6 C3.66 6.33 4.32 6.66 5 7 C4.01 7 3.02 7 2 7 C-0.1875 4.5 -0.1875 4.5 -2 2 C-1.34 1.34 -0.68 0.68 0 0 Z " fill="#1379C9" transform="translate(515,194)"/>
<path d="M0 0 C1.5625 1.25 1.5625 1.25 3 3 C2.6875 5.1875 2.6875 5.1875 2 7 C0.68 7 -0.64 7 -2 7 C-2 6.01 -2 5.02 -2 4 C-1.34 4 -0.68 4 0 4 C0 2.68 0 1.36 0 0 Z " fill="#177ECE" transform="translate(435,123)"/>
<path d="M0 0 C2 3 2 3 2 5 C2.66 5.33 3.32 5.66 4 6 C3.34 6.66 2.68 7.32 2 8 C0.35 6.02 -1.3 4.04 -3 2 C-2.01 2 -1.02 2 0 2 C0 1.34 0 0.68 0 0 Z " fill="#1077CB" transform="translate(542,222)"/>
<path d="M0 0 C0.99 0.33 1.98 0.66 3 1 C1.515 3.475 1.515 3.475 0 6 C-1.32 5.67 -2.64 5.34 -4 5 C-2.68 3.35 -1.36 1.7 0 0 Z " fill="#1A7CC9" transform="translate(532,121)"/>
<path d="M0 0 C0.33 0.66 0.66 1.32 1 2 C3.02463255 2.65213292 3.02463255 2.65213292 5 3 C4.67 4.65 4.34 6.3 4 8 C3.34 8 2.68 8 2 8 C0.74335022 5.09399739 0 3.20395416 0 0 Z " fill="#167ED2" transform="translate(670,206)"/>
<path d="M0 0 C1.98 0 3.96 0 6 0 C5.34 1.32 4.68 2.64 4 4 C3.01 4 2.02 4 1 4 C0.67 2.68 0.34 1.36 0 0 Z " fill="#1A7CC9" transform="translate(538,155)"/>
<path d="M0 0 C0.99 0.495 0.99 0.495 2 1 C2 1.66 2 2.32 2 3 C3.65 3 5.3 3 7 3 C7.33 3.99 7.66 4.98 8 6 C3.50347222 6.36458333 3.50347222 6.36458333 1.1875 4.6875 C0 3 0 3 0 0 Z " fill="#3E92D5" transform="translate(22,48)"/>
<path d="M0 0 C0.66 0 1.32 0 2 0 C2 2.31 2 4.62 2 7 C0.68 6.67 -0.64 6.34 -2 6 C-1.34 4.02 -0.68 2.04 0 0 Z " fill="#117ACE" transform="translate(44,27)"/>
<path d="M0 0 C0.66 0 1.32 0 2 0 C1.67 1.32 1.34 2.64 1 4 C2.98 4 4.96 4 7 4 C7 4.33 7 4.66 7 5 C4.03 5 1.06 5 -2 5 C-1.34 3.35 -0.68 1.7 0 0 Z " fill="#0E7BD2" transform="translate(252,225)"/>
<path d="M0 0 C2 1.3125 2 1.3125 4 3 C4 3.99 4 4.98 4 6 C2.0625 5.6875 2.0625 5.6875 0 5 C-0.33 4.01 -0.66 3.02 -1 2 C-0.67 1.34 -0.34 0.68 0 0 Z " fill="#1380D5" transform="translate(98,215)"/>
<path d="M0 0 C0.33 0.66 0.66 1.32 1 2 C3.01669827 3.13350534 3.01669827 3.13350534 5 4 C4.01 5.485 4.01 5.485 3 7 C1.68 5.68 0.36 4.36 -1 3 C-0.67 2.01 -0.34 1.02 0 0 Z " fill="#197BCB" transform="translate(809,216)"/>
<path d="M0 0 C4.875 4.75 4.875 4.75 6 7 C4.68 6.67 3.36 6.34 2 6 C2.33 5.34 2.66 4.68 3 4 C0.525 3.01 0.525 3.01 -2 2 C-1.34 1.34 -0.68 0.68 0 0 Z " fill="#147BCC" transform="translate(784,117)"/>
<path d="M0 0 C1.65 1.65 3.3 3.3 5 5 C2.92446352 5.5534764 1.15634036 6 -1 6 C-0.67 4.02 -0.34 2.04 0 0 Z " fill="#2186D6" transform="translate(570,212)"/>
<path d="M0 0 C0.99 0 1.98 0 3 0 C2.67 1.65 2.34 3.3 2 5 C0.35 4.67 -1.3 4.34 -3 4 C-1.6875 2 -1.6875 2 0 0 Z " fill="#2181CB" transform="translate(523,131)"/>
<path d="M0 0 C1.32 1.32 2.64 2.64 4 4 C2.35 4.33 0.7 4.66 -1 5 C-1 1 -1 1 0 0 Z " fill="#0B77CA" transform="translate(428,115)"/>
</svg>
